<?xml version="1.0" standalone="no"?>
<!DOCTYPE svg PUBLIC "-//W3C//DTD SVG 1.1//EN" "http://www.w3.org/Graphics/SVG/1.1/DTD/svg11.dtd" >
<svg>
<metadata>
Created by FontForge 20090622 at Wed May 23 11:12:09 2018
 By deploy user
Copyright (c) 2010 by Miles Newlyn. All rights reserved.
</metadata>
<defs>
<font id="Rubrik" horiz-adv-x="609" >
  <font-face 
    font-family="Rubrik"
    font-weight="400"
    font-stretch="normal"
    units-per-em="1000"
    panose-1="2 0 5 3 0 0 0 2 0 4"
    ascent="787"
    descent="-213"
    x-height="515"
    cap-height="705"
    bbox="-20.1739 -285 1056.5 945"
    underline-thickness="70"
    underline-position="-30"
    unicode-range="U+0020-U+FB02"
  />
<missing-glyph horiz-adv-x="301" 
 />
    <glyph glyph-name="fi" unicode="fi" horiz-adv-x="665" 
d="M76 509h35v46q0 76 41 119.5t116 43.5q52 0 88 -11q32 -9 32 -38q0 -15 -10.5 -25.5t-28.5 -10.5q-5 0 -35.5 4.5t-43.5 4.5q-78 0 -78 -93v-40h140q24 2 33.5 -17.5t0 -39t-33.5 -17.5h-140v-397q0 -18 -11.5 -30t-28.5 -12t-29 12t-12 30v397h-35q-24 -2 -33.5 17.5
t0 39t33.5 17.5zM563 692q15 -14 15 -35t-15 -36q-14 -15 -35 -15t-35 15t-14 36t14 35q14 15 35 15t35 -15zM569 484v-446q0 -18 -11.5 -30t-29.5 -12q-16 0 -28 12t-12 30v446q0 17 11.5 29.5t28.5 12.5t29 -12.5t12 -29.5z" />
    <glyph glyph-name=".notdef" horiz-adv-x="301" 
 />
    <glyph glyph-name=".null" horiz-adv-x="0" 
 />
    <glyph glyph-name="nonmarkingreturn" horiz-adv-x="333" 
 />
    <glyph glyph-name="space" unicode=" " horiz-adv-x="273" 
 />
    <glyph glyph-name="exclam" unicode="!" horiz-adv-x="215" 
d="M72 263l-5 396q0 17 12 29.5t29 12.5q16 0 28 -12.5t12 -29.5l-5 -396q0 -15 -10.5 -25.5t-25.5 -10.5q-14 0 -24.5 11t-10.5 25zM66 31v53q0 16 12.5 28t29.5 12t29 -12t12 -28v-53q0 -16 -12 -28t-29 -12t-29.5 12t-12.5 28z" />
    <glyph glyph-name="quotedbl" unicode="&#x22;" horiz-adv-x="349" 
d="M145 661v-136q0 -17 -11.5 -28t-27.5 -11q-17 0 -28.5 11.5t-11.5 27.5v136q-1 24 19.5 34.5t40.5 0t19 -34.5zM283 661v-136q1 -24 -19.5 -34t-41 0t-18.5 34v136q0 17 11.5 28.5t27.5 11.5q17 0 28.5 -11.5t11.5 -28.5z" />
    <glyph glyph-name="numbersign" unicode="#" horiz-adv-x="642" 
d="M324 207h-107l-61 -189q-8 -27 -33 -27q-21 0 -31 16.5t-3 37.5l52 162h-56q-24 -2 -34 17.5t0.5 39t34.5 17.5h81l48 151h-58q-24 -2 -34.5 17.5t0 39t34.5 17.5h83l58 176q9 26 33 26q21 0 31 -16.5t3 -37.5l-48 -148h106l58 176q9 26 34 26q21 0 30.5 -16.5t3.5 -37.5
l-49 -148h56q24 2 34.5 -17.5t0 -39t-34.5 -17.5h-82l-48 -151h59q24 2 34.5 -17.5t0 -39t-34.5 -17.5h-84l-61 -189q-9 -27 -34 -27q-21 0 -31 16.5t-3 37.5zM398 432h-107l-48 -151h107z" />
    <glyph glyph-name="dollar" unicode="$" 
d="M547 203q0 -79 -58 -131q-59 -52 -148 -56v-66q0 -17 -10.5 -28t-26.5 -11q-14 0 -25.5 11.5t-11.5 27.5v68q-101 9 -180 67q-22 16 -22 37q0 17 12.5 29t29.5 12q14 0 29 -12q77 -58 177 -58q73 0 112 28t39 82q0 45 -37 69q-39 25 -143 47q-113 24 -162 66.5t-49 117.5
t53 124t141 57v65q0 16 11 27.5t26 11.5q16 0 26.5 -11t10.5 -28v-65q92 -12 143 -54q15 -12 15 -33q0 -16 -12 -27t-29 -11q-8 0 -28 11q-62 38 -132 38q-72 0 -107 -28.5t-35 -73.5q0 -51 33 -72q34 -22 114 -38q131 -27 187 -70q57 -44 57 -123z" />
    <glyph glyph-name="percent" unicode="%" horiz-adv-x="748" 
d="M340 561q1 -25 0 -50q-5 -62 -46 -105q-42 -43 -103 -43t-104 43t-46 105q-2 26 0 50q1 61 45 105q43 43 105 43q61 0 103 -43q43 -43 46 -105zM115 558q-1 -22 0 -44q2 -34 23 -55.5t53 -21.5t53 22t23 56q1 19 0 43q-2 34 -23 56t-53 22t-52.5 -22t-23.5 -56zM156 152
l391 452q10 12 26.5 13t27.5 -9q12 -10 12.5 -26t-9.5 -28l-392 -452q-11 -11 -26.5 -12t-27.5 9q-11 10 -11.5 26t9.5 27zM562 336q59 0 103 -44q43 -43 46 -104q1 -25 0 -50q-5 -63 -47 -105q-42 -43 -102 -43q-61 0 -104 43q-42 42 -47 105q-2 26 0 50q3 61 46 104
q44 44 105 44zM561 263q-30 0 -51 -22t-24 -56q-1 -22 0 -44q2 -33 23 -55t52 -22q32 0 53 21.5t23 55.5q2 20 0 44q-2 34 -23 56t-53 22z" />
    <glyph glyph-name="ampersand" unicode="&#x26;" horiz-adv-x="694" 
d="M585 342q18 0 29 -11.5t11 -29.5v-9q0 -91 -55 -170l67 -59q12 -10 13.5 -26t-9.5 -29t-28 -13.5t-30 11.5l-65 58q-79 -73 -202 -73q-121 0 -188 54q-68 56 -68 140q0 120 128 174q-91 76 -91 161q0 82 57.5 131.5t156.5 49.5q100 0 158 -46.5t58 -125.5q0 -70 -46 -117
t-150 -80l181 -159q34 50 34 121q0 22 11 35t28 13zM180 522q0 -37 21.5 -67t66.5 -64q96 24 136 53q40 30 40 85q0 43 -34 69.5t-98 26.5q-66 0 -99 -27.5t-33 -75.5zM314 68q90 0 148 49l-209 189q-61 -24 -85 -50.5t-24 -68.5q0 -55 45 -87t125 -32z" />
    <glyph glyph-name="quotesingle" unicode="'" horiz-adv-x="212" 
d="M145 661v-136q0 -17 -11.5 -28t-27.5 -11q-17 0 -28.5 11.5t-11.5 27.5v136q-1 24 19.5 34.5t40.5 0t19 -34.5z" />
    <glyph glyph-name="parenleft" unicode="(" horiz-adv-x="351" 
d="M334 -107q23 -23 6 -50q-9 -15 -26 -17.5t-32 9.5q-99 89 -151 216.5t-52 257.5t52 257t151 216q15 12 32 10t26 -17q17 -27 -6 -50q-113 -102 -154.5 -259t0 -314t154.5 -259z" />
    <glyph glyph-name="parenright" unicode=")" horiz-adv-x="351" 
d="M34 725q-23 23 -6 50q10 15 26.5 17t31.5 -10q99 -89 151 -216t52 -257t-52 -257.5t-151 -216.5q-15 -12 -32 -9.5t-26 17.5q-17 27 6 50q113 102 154.5 259t0 314t-154.5 259z" />
    <glyph glyph-name="asterisk" unicode="*" horiz-adv-x="389" 
d="M234 666l-5 -84q73 49 74 49q13 9 27.5 6.5t21.5 -14.5q16 -31 -15 -48l-83 -42l83 -41q13 -6 17.5 -19t-2.5 -29q-7 -12 -21.5 -14t-27.5 6l-75 47l6 -84q1 -24 -16.5 -33.5t-35 0t-16.5 33.5l6 84l-75 -47q-13 -8 -27.5 -6t-21.5 14q-7 16 -2.5 29t17.5 19l83 41
l-83 42q-31 17 -15 48q7 12 21.5 14.5t27.5 -6.5l1 -1q1 0 6 -4t13 -9l22.5 -14.5l31.5 -20.5l-5 84q-1 24 16.5 33.5t35 0t16.5 -33.5z" />
    <glyph glyph-name="plus" unicode="+" horiz-adv-x="628" 
d="M275 136v175h-174q-17 0 -29 11.5t-12 27.5q0 17 12 28.5t29 11.5h174v174q0 17 11.5 29t28.5 12t28.5 -12t11.5 -29v-174h172q17 0 29 -11.5t12 -28.5q0 -16 -12 -27.5t-29 -11.5h-172v-175q0 -17 -11.5 -29t-28.5 -12t-28.5 12t-11.5 29z" />
    <glyph glyph-name="comma" unicode="," horiz-adv-x="214" 
d="M148 85v-26q0 -81 -25 -125q-16 -28 -43 -28q-15 0 -26 11t-11 26q0 3 11.5 33.5t11.5 56.5v52q0 17 12 28.5t29 11.5t29 -12t12 -28z" />
    <glyph glyph-name="hyphen" unicode="-" horiz-adv-x="339" 
d="M246 246h-153q-17 0 -29.5 12t-12.5 28q0 17 12.5 29t29.5 12h153q17 0 29.5 -12t12.5 -29t-12.5 -28.5t-29.5 -11.5z" />
    <glyph glyph-name="period" unicode="." horiz-adv-x="265" 
d="M148 87v-54q0 -18 -11.5 -30t-29.5 -12q-17 0 -29 12.5t-12 29.5v54q0 17 12 29.5t29 12.5t29 -12.5t12 -29.5z" />
    <glyph glyph-name="slash" unicode="/" horiz-adv-x="349" 
d="M331 730q16 -6 22 -21.5t0 -31.5l-271 -684q-6 -15 -21 -21.5t-30 -1.5q-16 6 -22.5 21.5t0.5 31.5l271 683q6 15 21 22t30 2z" />
    <glyph glyph-name="zero" unicode="0" horiz-adv-x="696" 
d="M91 259q-5 93 0 185q7 117 79 192q71 74 183 74q111 0 183 -74q71 -73 79 -192q5 -92 0 -185q-8 -120 -79 -194q-72 -75 -183 -75t-183 75q-71 74 -79 194zM533 263q5 71 0 178q-5 88 -53 139t-127 51t-127 -51t-53 -139q-5 -107 0 -178q7 -90 54.5 -142t125.5 -52
t125.5 52t54.5 142z" />
    <glyph glyph-name="one" unicode="1" horiz-adv-x="460" 
d="M282 705q18 0 29.5 -12t11.5 -30v-625q0 -18 -12 -30t-29 -12t-29 12.5t-12 29.5v557l-125 -69q-15 -9 -31.5 -5t-24.5 19q-8 14 -3 31t19 25l184 103q10 6 22 6z" />
    <glyph glyph-name="two" unicode="2" horiz-adv-x="588" 
d="M64 58q0 65 36.5 119.5t118.5 112.5q134 94 164 125q44 47 45 101q0 49 -36.5 82t-104.5 33q-91 0 -147 -71q-10 -13 -23 -17q-17 -5 -32.5 2t-19.5 22q-6 19 5 36q78 107 214 107q107 0 166 -56q60 -56 60 -138q0 -75 -44 -125q-46 -53 -173 -143q-79 -57 -112 -94.5
t-34 -74.5h336q17 0 29.5 -11t12.5 -27q0 -18 -12 -29.5t-30 -11.5h-360q-27 0 -43 15.5t-16 42.5z" />
    <glyph glyph-name="three" unicode="3" horiz-adv-x="591" 
d="M454 606l-154 -165q90 2 149 -51t59 -136q0 -120 -101 -189q-101 -68 -273 -68q-37 0 -48 1q-18 1 -30 12t-12 28q0 18 13 29t34 10q31 -3 60 -3q127 0 201 47.5t74 130.5q0 56 -37 88.5t-98 32.5q-17 0 -44.5 -4t-28.5 -4q-16 0 -27.5 11t-11.5 27q0 17 12 29l176 190
h-282q-18 0 -30 11t-12 28q0 18 12 29t30 11h322q26 0 43.5 -16t17.5 -41q0 -21 -14 -38z" />
    <glyph glyph-name="four" unicode="4" horiz-adv-x="665" 
d="M576 171h-74v-130q0 -17 -12 -29t-29 -12t-28.5 12t-11.5 29v130h-291q-31 0 -51 18.5t-18 48.5q0 23 18 47l266 354q21 28 28 36q30 32 62 32q67 0 67 -84v-372h74q17 0 28.5 -11.5t11.5 -29.5q0 -16 -12 -27.5t-28 -11.5zM421 612l-272 -361h272v361z" />
    <glyph glyph-name="five" unicode="5" horiz-adv-x="606" 
d="M543 270q0 -132 -115 -204q-115 -71 -311 -71q-19 0 -31 11t-12 29t11.5 29t29.5 11q167 0 256.5 49t89.5 144q0 52 -38 85t-99 33q-76 0 -162 -44q-29 -12 -48.5 0.5t-19.5 39.5v252q0 67 69 67h297q18 0 30 -11.5t12 -28.5t-12 -28t-30 -11h-290v-197q78 39 159 39
q97 0 155 -55q59 -56 59 -139z" />
    <glyph glyph-name="six" unicode="6" horiz-adv-x="668" 
d="M514 623q-2 0 -17 2t-37.5 4t-41.5 2q-102 0 -166 -60t-74 -167q93 43 182 43q111 0 176 -59t65 -161t-66 -170q-64 -67 -185 -67q-143 1 -207 102t-52 272q10 166 95.5 256t231.5 90q61 0 102 -10q33 -8 33 -39q0 -16 -10.5 -27t-28.5 -11zM353 370q-87 0 -181 -51
q-7 -122 39 -186t139 -64q80 0 124.5 43.5t44.5 114.5q0 69 -42.5 106t-123.5 37z" />
    <glyph glyph-name="seven" unicode="7" horiz-adv-x="527" 
d="M76 701h367q26 0 43 -15t17 -40q0 -19 -13 -39q-141 -233 -198 -347q-56 -111 -84 -232q-8 -32 -39 -32q-12 0 -19 4q-29 14 -17 55q31 112 91 236q55 115 185 331h-333q-17 0 -29.5 11.5t-12.5 27.5q0 18 12 29t30 11z" />
    <glyph glyph-name="eight" unicode="8" horiz-adv-x="681" 
d="M341 631q-82 0 -123.5 -29t-41.5 -81q0 -55 44 -86t120 -31q77 0 120 32t43 87q0 108 -162 108zM336 324q-85 0 -130 -34.5t-45 -94.5q0 -59 45 -92.5t133 -33.5t135 34.5t47 90.5q0 60 -49.5 95t-135.5 35zM78 192q0 65 33.5 111t90.5 64q-49 19 -78 58.5t-29 94.5
q0 90 64 140t180 50t181 -49.5t65 -136.5q0 -112 -105 -156q57 -18 90 -63.5t33 -111.5q0 -94 -68.5 -148.5t-193.5 -54.5t-194 54t-69 148z" />
    <glyph glyph-name="nine" unicode="9" horiz-adv-x="663" 
d="M156 76l53 3l49 4q35 3 48 7l42 12q31 9 74 44q49 41 67 143q-90 -41 -178 -41q-109 0 -174 60q-64 61 -64 165q0 103 65 170q66 67 184 67q257 0 257 -319v-29q-7 -198 -108 -281q-101 -82 -312 -86q-19 -1 -31 11t-12 29q0 16 11 28t29 13zM323 325q37 0 66 7
q25 6 52 16l56 26v26q0 121 -40.5 176t-134.5 55q-82 0 -124.5 -41.5t-42.5 -115.5q0 -149 168 -149z" />
    <glyph glyph-name="colon" unicode=":" horiz-adv-x="277" 
d="M179 87v-54q0 -18 -11.5 -30t-29.5 -12q-17 0 -29 12.5t-12 29.5v54q0 17 12 29.5t29 12.5t29 -12.5t12 -29.5zM179 457v-54q0 -18 -11.5 -30t-29.5 -12q-17 0 -29 12.5t-12 29.5v54q0 17 12 29.5t29 12.5t29 -12.5t12 -29.5z" />
    <glyph glyph-name="semicolon" unicode=";" horiz-adv-x="277" 
d="M195 85v-22v-23q0 -49 -17 -90.5t-51 -43.5q-15 0 -25 10.5t-11 23.5q0 2 2 16q0 2 6 14t10 28t4 35v52q0 17 11.5 28.5t29.5 11.5q17 0 29 -12t12 -28zM195 457v-54q0 -18 -11.5 -30t-29.5 -12q-17 0 -29 12.5t-12 29.5v54q0 17 12 29.5t29 12.5t29 -12.5t12 -29.5z" />
    <glyph glyph-name="less" unicode="&#x3c;" horiz-adv-x="628" 
d="M477 585l-275 -221q-19 -14 0 -28l275 -221q13 -10 14.5 -27t-9.5 -30q-10 -13 -26.5 -14t-30.5 10l-272 221q-88 75 0 150l272 221q14 11 30 10t27 -14t9.5 -30t-14.5 -27z" />
    <glyph glyph-name="equal" unicode="=" horiz-adv-x="628" 
d="M520 402h-412q-17 0 -29 11.5t-12 27.5q0 17 12 28.5t29 11.5h412q17 0 29 -11.5t12 -28.5q0 -16 -12 -27.5t-29 -11.5zM520 221h-412q-17 0 -29 11.5t-12 27.5q0 17 12 28.5t29 11.5h412q17 0 29 -11.5t12 -28.5q0 -16 -12 -27.5t-29 -11.5z" />
    <glyph glyph-name="greater" unicode="&#x3e;" horiz-adv-x="628" 
d="M146 642q11 13 27 14t30 -10l273 -221q88 -75 0 -150l-273 -221q-14 -11 -30 -10t-27 14q-10 13 -8.5 30t14.5 27l275 221q19 14 0 28l-275 221q-13 10 -14.5 27t8.5 30z" />
    <glyph glyph-name="question" unicode="?" horiz-adv-x="558" 
d="M131 561q-13 -18 -34 -18q-16 0 -28 12.5t-12 29.5q0 13 11 29q78 95 214 95q92 0 151 -54q58 -52 58 -137q0 -93 -49 -145q-49 -54 -163 -107q-13 -7 -30 -7q-15 0 -26.5 11t-11.5 27q0 27 28 40q98 43 133 79q37 37 37 100q0 52 -34 83t-93 31q-95 0 -151 -69zM211 31
v53q0 16 12 28t29 12t29 -11.5t12 -28.5v-53q0 -17 -12 -28.5t-29 -11.5q-16 0 -28.5 12t-12.5 28z" />
    <glyph glyph-name="at" unicode="@" horiz-adv-x="863" 
d="M478 141q18 6 32 -1.5t17 -23.5q6 -33 -28 -45q-26 -10 -62 -10q-78 0 -127.5 46.5t-52.5 124.5q-1 37 0 73q3 76 55 128t128 52q75 0 128 -53q54 -52 54 -127v-118q0 -22 15.5 -38t36.5 -16q22 0 37.5 16t15.5 38v161q0 127 -84 206q-85 80 -204 80q-115 0 -195 -77
t-90 -193q-8 -88 1 -197q10 -121 89 -186q80 -65 186 -65q65 0 118 22q30 12 47 -11q9 -12 5.5 -28t-18.5 -25q-63 -33 -151 -33q-64 0 -123.5 20t-109.5 58.5t-82.5 102t-38.5 143.5q-7 91 -1 202q10 147 112 244q104 98 251 98q151 0 257 -101q106 -100 106 -257v-162
q0 -53 -37 -90t-88 -37q-54 0 -91 37t-37 90v113q0 46 -31.5 77.5t-77.5 31.5q-45 0 -75.5 -31.5t-32.5 -77.5q-2 -32 0 -65q3 -63 48 -88q47 -26 98 -8z" />
    <glyph glyph-name="A" unicode="A" horiz-adv-x="675" 
d="M650 41q0 -18 -11 -30t-29 -12q-28 0 -39 26l-74 209h-319l-74 -209q-11 -26 -39 -26q-18 0 -29 12t-11 30q0 8 2 14l208 580q28 76 103 76q77 0 102 -76l208 -580q2 -6 2 -14zM312 611l-106 -299h263l-105 299q-7 20 -26 20t-26 -20z" />
    <glyph glyph-name="B" unicode="B" horiz-adv-x="669" 
d="M402 323h-220v-244h210q136 0 136 123q0 56 -34 88.5t-92 32.5zM182 622v-221h205q123 0 123 110q0 111 -123 111h-205zM612 200q0 -99 -56 -149.5t-153 -50.5h-233q-32 0 -51 19t-19 49v565q0 31 19 49.5t51 18.5h222q95 0 147 -52q53 -53 53 -128q0 -123 -94 -156v-2
q53 -13 83.5 -56t30.5 -107z" />
    <glyph glyph-name="C" unicode="C" horiz-adv-x="665" 
d="M361 69q60 0 109 32.5t72 86.5q11 26 38 26q15 0 27 -12t12 -27q0 -7 -3 -18q-30 -75 -100 -121t-155 -46q-119 0 -198 79t-87 200q-6 83 0 162q9 119 87 199q80 80 198 80q85 0 155 -46q70 -45 100 -120q3 -10 3 -19q0 -15 -12 -26.5t-27 -11.5q-27 0 -38 26
q-23 54 -72 86t-109 32q-85 0 -140 -57t-63 -147q-5 -77 0 -154q8 -90 63 -147t140 -57z" />
    <glyph glyph-name="D" unicode="D" horiz-adv-x="719" 
d="M568 298q3 55 0 104q-5 105 -63.5 162.5t-168.5 57.5h-154v-543h154q109 0 167.5 57t64.5 162zM336 0h-167q-32 0 -50.5 19t-18.5 49v565q0 30 18.5 49t50.5 19h167q147 0 226 -81q81 -82 88 -215q3 -57 0 -109q-7 -133 -88 -215q-79 -81 -226 -81z" />
    <glyph glyph-name="E" unicode="E" horiz-adv-x="625" 
d="M170 701h345q17 0 29 -11.5t12 -28.5q0 -16 -12.5 -27.5t-28.5 -11.5h-333v-230h324q17 0 28.5 -11t11.5 -28q0 -16 -12 -27.5t-28 -11.5h-324v-235h335q16 0 28.5 -11.5t12.5 -27.5q0 -17 -12 -28.5t-29 -11.5h-347q-32 0 -51 19t-19 49v565q0 31 19 49.5t51 18.5z" />
    <glyph glyph-name="F" unicode="F" horiz-adv-x="594" 
d="M100 38v595q0 31 19 49.5t51 18.5h343q18 0 30 -11t12 -28q0 -16 -12.5 -28t-29.5 -12h-331v-245h314q17 0 29 -11.5t12 -28.5q0 -16 -12.5 -27.5t-28.5 -11.5h-314v-260q0 -17 -12 -29.5t-29 -12.5q-16 0 -28.5 12.5t-12.5 29.5z" />
    <glyph glyph-name="G" unicode="G" horiz-adv-x="701" 
d="M639 306v-66q0 -104 -76 -177t-195 -73q-120 0 -202 79t-90 200q-6 83 0 162q9 120 91 199q83 80 201 80q84 0 151 -41t102 -113q4 -7 4 -20q0 -16 -12 -28t-29 -12q-23 0 -36 22q-26 54 -72.5 83.5t-106.5 29.5q-87 0 -145 -57t-66 -147q-6 -79 0 -154q8 -89 66 -147
q58 -57 145 -57q83 0 136 45q53 47 53 117v62h-143q-17 0 -29.5 12t-12.5 28q0 17 12.5 28.5t29.5 11.5h155q32 0 50.5 -18.5t18.5 -48.5z" />
    <glyph glyph-name="H" unicode="H" horiz-adv-x="755" 
d="M100 38v625q0 17 12 29.5t29 12.5q18 0 29.5 -12t11.5 -30v-273h390v273q0 17 12 29.5t29 12.5q18 0 29.5 -12t11.5 -30v-625q0 -18 -11.5 -30t-29.5 -12q-16 0 -28.5 12.5t-12.5 29.5v273h-390v-273q0 -18 -11.5 -30t-29.5 -12q-17 0 -29 12.5t-12 29.5z" />
    <glyph glyph-name="I" unicode="I" horiz-adv-x="283" 
d="M100 38v625q0 17 12 29.5t29 12.5q18 0 29.5 -12t11.5 -30v-625q0 -18 -11.5 -30t-29.5 -12q-17 0 -29 12.5t-12 29.5z" />
    <glyph glyph-name="J" unicode="J" horiz-adv-x="516" 
d="M40 100q-4 11 -4 19q0 16 11.5 28t27.5 12q25 0 38 -24q36 -66 107 -66q52 0 85 36t33 100v458q0 17 12 29.5t29 12.5q18 0 29.5 -12t11.5 -30v-464q0 -92 -58 -150q-59 -59 -142 -59q-58 0 -107 30.5t-73 79.5z" />
    <glyph glyph-name="K" unicode="K" horiz-adv-x="633" 
d="M605 38q0 -27 -24.5 -37.5t-43.5 8.5l-292 282q-15 15 -27 19t-36 4v-276q0 -18 -11.5 -30t-29.5 -12q-16 0 -28.5 12.5t-12.5 29.5v625q0 17 12 29.5t29 12.5q18 0 29.5 -12t11.5 -30v-269q38 0 63 24l285 273q12 13 30 13q25 0 35 -25t-8 -43l-294 -279l300 -290
q12 -14 12 -29z" />
    <glyph glyph-name="L" unicode="L" horiz-adv-x="556" 
d="M100 65v598q0 17 12 29.5t29 12.5q18 0 29.5 -12t11.5 -30v-584h327q17 0 29.5 -11.5t12.5 -27.5q0 -18 -12 -29t-30 -11h-342q-30 0 -48.5 18.5t-18.5 46.5z" />
    <glyph glyph-name="M" unicode="M" horiz-adv-x="926" 
d="M777 630l87 -583q3 -22 -8.5 -37t-32.5 -15q-35 0 -40 33l-82 589q-2 10 -10 10t-12 -9l-130 -543q-18 -76 -83 -76q-66 0 -84 76l-130 543q-4 9 -11 9q-8 0 -11 -10l-82 -589q-4 -33 -39 -33q-21 0 -32.5 15t-8.5 36l86 584q6 39 29 59t58 20q69 0 86 -71l129 -551
q3 -10 11 -10t11 10l126 551q5 44 46 62.5t81.5 -1t45.5 -69.5z" />
    <glyph glyph-name="N" unicode="N" horiz-adv-x="769" 
d="M238 665l350 -568h2q0 11 -2 65t-2 84v417q0 17 12 29.5t29 12.5q18 0 29.5 -12t11.5 -30v-595q0 -30 -18.5 -50t-47.5 -20q-44 0 -66 37l-355 575h-2q3 -123 3 -155v-417q0 -18 -11.5 -30t-29.5 -12q-16 0 -28.5 12.5t-12.5 29.5v593q0 31 20 52t50 21q46 0 68 -39z" />
    <glyph glyph-name="O" unicode="O" horiz-adv-x="729" 
d="M369 -10q-119 0 -202 80t-91 199q-6 83 0 162q9 120 91 199q83 80 202 80q120 0 204 -81q85 -80 92 -198q6 -79 0 -162q-8 -119 -92 -199q-85 -80 -204 -80zM369 69q87 0 146 57q60 60 67 147q8 77 0 155q-7 87 -68 145q-58 58 -145 58q-85 0 -144 -57q-60 -58 -67 -146
q-6 -78 0 -155q8 -89 66 -147q58 -57 145 -57z" />
    <glyph glyph-name="P" unicode="P" horiz-adv-x="644" 
d="M182 622v-281h179q152 0 152 140q0 67 -37 104t-110 37h-184zM362 262h-180v-224q0 -17 -12.5 -29.5t-28.5 -12.5t-28.5 12.5t-12.5 29.5v596q0 30 18 48.5t50 18.5h202q96 0 161 -59q66 -58 66 -160q0 -104 -66 -162q-64 -58 -169 -58z" />
    <glyph glyph-name="Q" unicode="Q" horiz-adv-x="730" 
d="M369 -10q-119 0 -202 80t-91 199q-6 83 0 162q9 120 91 199q83 80 202 80q120 0 204 -81q85 -80 92 -198q6 -79 0 -162q-9 -126 -99 -205l93 -114q10 -13 9 -29t-13 -26t-28 -8.5t-26 13.5l-99 120q-62 -30 -133 -30zM369 69q43 0 81 15l-97 119q-9 11 -8.5 28t12.5 26
q12 11 29 9.5t27 -14.5l102 -126q59 59 67 147q8 77 0 155q-7 87 -68 145q-58 58 -145 58q-85 0 -144 -57q-60 -58 -67 -146q-6 -78 0 -155q8 -89 66 -147q58 -57 145 -57z" />
    <glyph glyph-name="R" unicode="R" horiz-adv-x="678" 
d="M619 39q0 -17 -12.5 -30t-29.5 -13q-18 0 -30 14l-188 232q-26 32 -56 32h-121v-236q0 -17 -12.5 -29.5t-28.5 -12.5t-28.5 12.5t-12.5 29.5v596q0 30 18 48.5t50 18.5h204q96 0 161 -57t65 -158q0 -84 -44.5 -134t-125.5 -63l182 -225q9 -11 9 -25zM182 622v-270h180
q153 0 153 134q0 65 -37.5 100.5t-110.5 35.5h-185z" />
    <glyph glyph-name="S" unicode="S" horiz-adv-x="619" 
d="M331 394q132 -25 188 -69t56 -128q0 -91 -68 -150q-67 -57 -185 -57q-136 0 -242 73q-21 13 -21 36q0 18 12 30t30 12q13 0 30 -12q86 -59 192 -59q80 0 124.5 33.5t44.5 93.5q0 47 -39 73q-37 25 -142 45q-124 24 -180.5 70t-56.5 125q0 92 66 146q68 54 175 54
q60 0 113.5 -15.5t83.5 -40.5q16 -13 16 -34q0 -16 -11.5 -27.5t-26.5 -11.5t-32 10q-73 40 -143 40q-79 0 -118.5 -32t-39.5 -87q0 -48 37 -73q38 -26 137 -45z" />
    <glyph glyph-name="T" unicode="T" horiz-adv-x="600" 
d="M260 38v584h-200q-17 0 -29.5 11.5t-12.5 27.5q0 18 12 29t30 11h480q18 0 29.5 -11t11.5 -29q0 -16 -12 -27.5t-29 -11.5h-198v-584q0 -17 -12 -29.5t-29 -12.5t-29 12.5t-12 29.5z" />
    <glyph glyph-name="U" unicode="U" horiz-adv-x="748" 
d="M657 663v-379q0 -129 -80 -212q-79 -82 -203 -82t-203 82q-80 83 -80 212v379q0 17 12 29.5t29 12.5t29 -12.5t12 -29.5v-378q0 -98 56 -157q57 -59 145 -59t144 59q57 59 57 157v378q0 17 12 29.5t29 12.5t29 -12.5t12 -29.5z" />
    <glyph glyph-name="V" unicode="V" horiz-adv-x="664" 
d="M23 661q0 18 12 30.5t30 12.5q27 0 38 -27l217 -597q4 -9 12 -9q10 0 12 9l217 596q9 28 39 28q18 0 29 -12.5t11 -30.5q0 -4 -2 -14l-218 -585q-27 -72 -88 -72q-62 0 -89 72l-217 585q-3 8 -3 14z" />
    <glyph glyph-name="W" unicode="W" horiz-adv-x="926" 
d="M39 664q0 16 11 28t29 12q15 0 26.5 -8.5t13.5 -21.5l126 -606q1 -2 3 -2t3 2l149 574q7 28 27 44.5t46 16.5q24 0 44 -16.5t27 -44.5l148 -574q1 -3 3 -3t3 3l129 606q7 30 40 30q18 0 29 -12t11 -29q0 -8 -1 -10l-140 -601q-8 -39 -39.5 -53.5t-63 0.5t-41.5 52
l-148 570q-1 2 -2.5 2t-2.5 -2l-150 -570q-8 -29 -27.5 -45t-43.5 -16q-26 0 -46.5 17t-26.5 46l-135 600q-1 3 -1 11z" />
    <glyph glyph-name="X" unicode="X" horiz-adv-x="645" 
d="M569 704q17 0 29 -12.5t12 -28.5q0 -15 -10 -28l-226 -287l223 -284q10 -13 10 -29q0 -15 -12 -26.5t-29 -11.5q-21 0 -33 16l-210 269l-213 -270q-12 -15 -34 -15q-17 0 -29 12t-12 28q0 14 10 27l224 285l-224 287q-10 13 -10 27q0 16 13 28t30 12q19 0 32 -16
l212 -272l213 272q14 17 34 17z" />
    <glyph glyph-name="Y" unicode="Y" horiz-adv-x="647" 
d="M589 705q17 0 29.5 -12t12.5 -29t-10 -27l-230 -282l-10.5 -13.5t-9 -12.5t-5 -12t-2.5 -19v-260q0 -18 -11.5 -30t-29.5 -12q-16 0 -28.5 12.5t-12.5 29.5v260q0 7 -6 28q0 3 -3.5 8t-5.5 6q-1 2 -6 8t-6 8l-229 280q-10 10 -10 28q0 16 12.5 28t29.5 12q20 0 32 -15
l233 -292l234 292q13 16 32 16z" />
    <glyph glyph-name="Z" unicode="Z" horiz-adv-x="586" 
d="M506 0h-381q-34 0 -54 18.5t-20 47.5q0 24 20 50l365 506h-339q-17 0 -29 11t-12 27q0 18 12 29.5t29 11.5h357q33 0 53 -18.5t20 -46.5q0 -21 -23 -56l-362 -501h364q17 0 29.5 -11.5t12.5 -27.5q0 -18 -12 -29t-30 -11z" />
    <glyph glyph-name="bracketleft" unicode="[" horiz-adv-x="361" 
d="M310 -175h-157q-30 0 -47.5 18t-17.5 46v840q0 28 18 46t47 18h157q17 0 29.5 -11.5t12.5 -28.5t-12.5 -29t-29.5 -12h-140v-806h140q17 0 29.5 -12t12.5 -29t-12.5 -28.5t-29.5 -11.5z" />
    <glyph glyph-name="backslash" unicode="\" horiz-adv-x="351" 
d="M19 760q16 7 31.5 0t21.5 -23l295 -742q7 -16 0 -32.5t-23 -22.5t-31.5 1.5t-21.5 23.5l-295 742q-6 15 0.5 31t22.5 22z" />
    <glyph glyph-name="bracketright" unicode="]" horiz-adv-x="361" 
d="M51 -95h140v806h-140q-17 0 -29.5 12t-12.5 29t12.5 28.5t29.5 11.5h156q30 0 47.5 -18t17.5 -46v-840q0 -28 -17.5 -46t-47.5 -18h-156q-17 0 -29.5 11.5t-12.5 28.5t12.5 29t29.5 12z" />
    <glyph glyph-name="asciicircum" unicode="^" horiz-adv-x="611" 
d="M311 622q-8 0 -12 -10l-92 -245q-5 -16 -21 -22.5t-31 -0.5q-16 6 -22.5 22t-0.5 30l92 238q29 71 87 71q59 0 88 -71l92 -238q6 -14 -1 -30t-22 -22q-16 -6 -31.5 0.5t-21.5 22.5l-91 245q-4 10 -13 10z" />
    <glyph glyph-name="underscore" unicode="_" horiz-adv-x="472" 
d="M0 -122h472v-75h-472v75z" />
    <glyph glyph-name="grave" unicode="`" horiz-adv-x="360" 
d="M129 888l135 -70q19 -10 19 -31q0 -14 -10 -24t-24 -10q-8 0 -20 6l-133 69q-18 10 -18 30q0 14 9.5 24t23.5 10q9 0 18 -4z" />
    <glyph glyph-name="a" unicode="a" horiz-adv-x="562" 
d="M481 346v-266q0 -22 -17 -33q-23 -17 -83 -38q-55 -18 -121 -18q-95 0 -147.5 46t-52.5 124q0 72 53.5 117t147.5 45q62 0 140 -21v41q0 60 -30.5 87.5t-94.5 27.5q-49 0 -119 -26q-24 -9 -41 0.5t-17 30.5q0 26 26 38q67 32 159 32q95 0 146 -46.5t51 -140.5zM269 64
q95 0 132 37v131q-84 22 -139 22q-54 0 -87.5 -24.5t-33.5 -66.5q0 -99 128 -99z" />
    <glyph glyph-name="b" unicode="b" horiz-adv-x="601" 
d="M527 335q6 -72 0 -142q-8 -95 -66 -148.5t-155 -53.5q-57 0 -114 20q-52 18 -84 40q-16 10 -16 33v585q0 17 11.5 29.5t28.5 12.5t29 -12.5t12 -29.5v-168q73 32 144 32q93 0 147.5 -52t62.5 -146zM445 199q4 57 0 130q-8 128 -131 128q-80 0 -141 -35v-314
q21 -16 58 -28q39 -13 74 -13q128 0 140 132z" />
    <glyph glyph-name="c" unicode="c" horiz-adv-x="557" 
d="M302 67q42 0 76.5 22t51.5 63q12 27 39 27q16 0 27 -11.5t11 -29.5q0 -45 -57 -96q-56 -51 -149 -51q-96 0 -157 57q-63 60 -67 145q-5 71 0 142q4 87 67 143q62 55 157 55q93 0 148 -52q56 -51 56 -95q0 -18 -11 -29.5t-27 -11.5q-27 0 -39 27q-17 41 -50.5 63t-75.5 22
q-62 0 -100.5 -34.5t-43.5 -92.5q-4 -57 0 -132q5 -59 43.5 -95t100.5 -36z" />
    <glyph glyph-name="d" unicode="d" horiz-adv-x="601" 
d="M80 334q8 96 62.5 147.5t147.5 51.5q71 0 144 -32v168q0 17 12 29.5t28 12.5q18 0 29.5 -12t11.5 -30v-585q0 -21 -17 -33q-26 -19 -82 -40q-57 -20 -115 -20q-97 0 -155 53.5t-66 148.5q-6 71 0 141zM161 199q12 -132 141 -132q35 0 74 13q37 12 58 28v314
q-61 35 -141 35q-123 0 -132 -127q-4 -61 0 -131z" />
    <glyph glyph-name="e" unicode="e" horiz-adv-x="572" 
d="M514 316v-30q0 -58 -59 -58h-299v-16q0 -68 40.5 -107.5t108.5 -39.5q47 0 122 26q24 9 41 -1.5t17 -30.5q0 -23 -22 -36q-54 -32 -159 -32q-101 0 -161.5 58t-65.5 157q-4 64 1 120q8 96 68 151.5t153 55.5q98 0 156 -61q59 -61 59 -156zM156 296h266q12 0 13 12
q4 68 -33 110t-102 42q-71 0 -108.5 -43.5t-35.5 -120.5z" />
    <glyph glyph-name="f" unicode="f" horiz-adv-x="393" 
d="M76 509h35v46q0 76 41 119.5t116 43.5q52 0 88 -11q32 -9 32 -38q0 -15 -10.5 -25.5t-28.5 -10.5q-5 0 -35.5 4.5t-43.5 4.5q-78 0 -78 -93v-40h140q24 2 33.5 -17.5t0 -39t-33.5 -17.5h-140v-397q0 -18 -11.5 -30t-28.5 -12t-29 12t-12 30v397h-35q-24 -2 -33.5 17.5
t0 39t33.5 17.5z" />
    <glyph glyph-name="g" unicode="g" horiz-adv-x="600" 
d="M512 436v-390q0 -109 -61 -170.5t-164 -61.5q-91 0 -158 42q-35 23 -35 43q0 15 10 26.5t28 11.5q17 0 43 -16q56 -32 112 -32q62 0 103 38t41 102v10q-71 -34 -147 -34q-92 0 -146.5 53t-60.5 146q-5 63 0 126q6 94 63.5 148.5t154.5 54.5q59 0 117 -20q59 -20 83 -37
q17 -14 17 -40zM298 456q-128 0 -140 -131q-5 -51 0 -116q9 -129 134 -129q43 0 82.5 12.5t56.5 28.5v299q0 2 -17.5 10t-50.5 17t-65 9z" />
    <glyph glyph-name="h" unicode="h" horiz-adv-x="610" 
d="M173 669v-202q28 29 70.5 47.5t86.5 18.5q91 0 143.5 -53.5t52.5 -150.5v-291q0 -18 -12 -30t-29 -12t-28.5 12t-11.5 30v284q0 63 -32.5 98.5t-91.5 35.5q-42 0 -83 -21.5t-65 -55.5v-341q0 -18 -11.5 -30t-29.5 -12q-17 0 -28.5 12t-11.5 30v631q0 17 11.5 29.5
t28.5 12.5t29 -12.5t12 -29.5z" />
    <glyph glyph-name="i" unicode="i" horiz-adv-x="273" 
d="M171 692q15 -14 15 -35t-15 -36q-14 -15 -35 -15t-35 15t-14 36t14 35q14 15 35 15t35 -15zM177 484v-446q0 -18 -11.5 -30t-29.5 -12q-16 0 -28 12t-12 30v446q0 17 11.5 29.5t28.5 12.5t29 -12.5t12 -29.5z" />
    <glyph glyph-name="j" unicode="j" horiz-adv-x="266" 
d="M42 -191q-17 0 -28.5 11.5t-11.5 28.5q0 15 12 28q42 45 59 90q16 41 16 106v411q0 17 11.5 29.5t28.5 12.5t29 -12.5t12 -29.5v-408q0 -81 -23 -139t-74 -114q-12 -14 -31 -14zM164 692q15 -14 15 -35t-15 -36q-14 -15 -35 -15t-35 15t-14 36t14 35q14 15 35 15t35 -15z
" />
    <glyph glyph-name="k" unicode="k" horiz-adv-x="535" 
d="M463 528q16 0 27.5 -12t11.5 -28q0 -17 -12 -29l-197 -189l200 -203q28 -30 2 -59q-11 -12 -29 -11.5t-29 12.5l-191 196q-24 24 -55 24h-18v-191q0 -18 -11.5 -30t-29.5 -12q-16 0 -28 12.5t-12 29.5v631q0 17 11.5 29t28.5 12t29 -12t12 -29v-361h17q33 0 56 23
l187 184q12 13 30 13z" />
    <glyph glyph-name="l" unicode="l" horiz-adv-x="265" 
d="M173 669v-631q0 -18 -11.5 -30t-29.5 -12q-17 0 -28.5 12t-11.5 30v631q0 17 11.5 29t28.5 12t29 -12t12 -29z" />
    <glyph glyph-name="m" unicode="m" horiz-adv-x="874" 
d="M790 329v-291q0 -18 -11.5 -30t-28.5 -12t-29 12t-12 30v286q0 132 -114 132q-76 0 -114 -53v-365q0 -18 -11.5 -30t-28.5 -12t-29 12t-12 30v295q0 123 -114 123q-64 0 -114 -33v-385q0 -18 -11.5 -30t-28.5 -12t-29 12t-12 30v404q0 22 21 39q67 52 173 52
q108 0 154 -61q73 61 158 61q99 0 146 -51t47 -153z" />
    <glyph glyph-name="n" unicode="n" 
d="M525 329v-291q0 -18 -11 -30t-29 -12q-17 0 -29 12t-12 30v287q0 63 -37 97t-97 34q-82 0 -138 -33v-385q0 -18 -11.5 -30t-28.5 -12t-29 12t-12 30v405q0 23 18 36q30 22 84 38t119 16q104 0 158.5 -52.5t54.5 -151.5z" />
    <glyph glyph-name="o" unicode="o" horiz-adv-x="592" 
d="M523 335q4 -72 0 -142q-4 -88 -68 -145q-61 -57 -155 -57q-92 0 -155 57q-64 57 -68 145q-4 70 0 142q4 86 67 142q64 56 156 56q94 0 155 -55q64 -56 68 -143zM158 329q-5 -66 0 -131q5 -59 43.5 -95t98.5 -36t98.5 36t43.5 95q5 65 0 131q-4 58 -42 93t-100 35
t-100 -35t-42 -93z" />
    <glyph glyph-name="p" unicode="p" horiz-adv-x="600" 
d="M527 190q-8 -96 -65 -147.5t-155 -51.5q-66 0 -135 32v-175q0 -17 -12 -29.5t-28 -12.5q-17 0 -29 12.5t-12 29.5v593q0 21 16 31q32 22 84 40q57 21 119 21q95 0 152 -53.5t65 -148.5q6 -71 0 -141zM445 325q-12 132 -136 132q-35 0 -77 -14q-40 -13 -60 -27v-312
q58 -37 133 -37q131 0 140 127q5 75 0 131z" />
    <glyph glyph-name="q" unicode="q" horiz-adv-x="601" 
d="M80 189q-6 72 0 142q8 95 64.5 148.5t151.5 53.5q62 0 119 -21q55 -18 85 -40q15 -11 15 -31v-593q0 -18 -11.5 -30t-29.5 -12q-16 0 -28 12.5t-12 29.5v175q-72 -32 -139 -32q-96 0 -151.5 51.5t-63.5 146.5zM161 325q-4 -70 0 -130q9 -128 136 -128q78 0 137 35v314
q-20 14 -60 27q-42 14 -76 14q-125 0 -137 -132z" />
    <glyph glyph-name="r" unicode="r" horiz-adv-x="378" 
d="M335 522q32 -8 32 -38q0 -15 -11 -26t-29 -11q-11 0 -34 4t-45 4q-81 -1 -81 -90v-328q0 -17 -12 -29t-29 -12t-29 12t-12 29v337q0 75 42.5 117t120.5 42q51 0 87 -11z" />
    <glyph glyph-name="s" unicode="s" horiz-adv-x="487" 
d="M278 300l32 -8q133 -34 133 -141q0 -73 -53 -116.5t-141 -43.5q-110 0 -178 56q-12 10 -14 26t6 28q23 31 56 8q33 -25 61.5 -35t75.5 -10q49 0 78 23t29 60q0 52 -80 72l-72 17q-141 36 -141 142q0 71 51.5 113t135.5 42q88 0 143 -43q14 -11 14.5 -29t-9.5 -27
q-21 -24 -54 -5q-51 30 -97 30q-105 0 -105 -78q0 -25 18 -41t60 -28z" />
    <glyph glyph-name="t" unicode="t" horiz-adv-x="408" 
d="M343 8q-45 -17 -103 -17q-75 0 -114.5 44.5t-39.5 120.5v435q0 17 11.5 29t28.5 12t29 -12t12 -29v-82h151q15 0 26.5 -11t11.5 -26t-11.5 -26t-26.5 -11h-151v-282q0 -41 19.5 -64t57.5 -23q18 0 80 18q23 6 37.5 -5t14.5 -32q0 -29 -33 -39z" />
    <glyph glyph-name="u" unicode="u" 
d="M84 195v289q0 17 11.5 29.5t28.5 12.5t29 -12.5t12 -29.5v-290q0 -59 35.5 -92.5t98.5 -33.5q83 0 138 37v379q0 17 11.5 29.5t28.5 12.5t29 -12.5t12 -29.5v-400q0 -22 -17 -33q-85 -60 -202 -60q-99 0 -157 54t-58 150z" />
    <glyph glyph-name="v" unicode="v" horiz-adv-x="513" 
d="M458 526q22 0 34 -18t4 -40l-153 -411q-24 -63 -78 -63q-52 0 -75 62l-155 413q-9 22 3.5 40t35.5 18q26 0 37 -29l150 -415q5 -8 10 0l147 411q12 32 40 32z" />
    <glyph glyph-name="w" unicode="w" horiz-adv-x="812" 
d="M517 50l-99 383q-1 4 -5 4q-5 0 -5 -4l-102 -382q-16 -63 -72 -63q-58 0 -75 62l-116 420q-6 23 5 40.5t32 17.5q29 0 37 -29l113 -422q1 -3 3 -4.5t4 0t3 4.5l101 392q7 27 27 43t45 16q26 0 45.5 -16t26.5 -44l101 -391q1 -3 3 -4.5t4 0t3 4.5l109 419q6 32 40 32
q21 0 32 -18t5 -40l-117 -420q-18 -62 -74 -62q-59 0 -74 62z" />
    <glyph glyph-name="x" unicode="x" horiz-adv-x="544" 
d="M494 35q0 -15 -11.5 -27t-28.5 -12q-20 0 -32 15l-150 192l-149 -192q-12 -15 -33 -15q-17 0 -28.5 12t-11.5 28t10 26l161 204l-153 193q-10 10 -10 27q0 15 12 27t28 12q20 0 32 -15l141 -181l141 180q12 16 35 16q17 0 28 -11.5t11 -27.5q0 -15 -10 -28l-152 -193
l160 -203q10 -10 10 -27z" />
    <glyph glyph-name="y" unicode="y" horiz-adv-x="512" 
d="M226 33l-190 434q-9 22 3 40t35 18q24 0 38 -29l155 -357q4 -7 8 0l141 354q12 32 40 32q23 0 35 -18.5t3 -39.5l-188 -456q-27 -65 -65.5 -117t-73.5 -73q-19 -12 -36 -12q-16 0 -28 10.5t-12 27.5q0 25 19 35q80 47 116 151z" />
    <glyph glyph-name="z" unicode="z" horiz-adv-x="509" 
d="M434 395l-291 -320h274q24 2 34.5 -17.5t0 -39t-34.5 -18.5h-290q-49 0 -65.5 37.5t14.5 76.5l297 326h-263q-16 0 -28 11t-12 26q0 16 12 27t28 11h278q30 0 49 -15.5t21 -42.5q3 -32 -24 -62z" />
    <glyph glyph-name="braceleft" unicode="{" horiz-adv-x="380" 
d="M329 711h-110q-13 0 -21.5 -8.5t-8.5 -21.5v-217q0 -104 -67 -149q67 -48 67 -149v-231q0 -13 8 -21.5t21 -8.5h111q17 0 29.5 -12t12.5 -29t-12.5 -28.5t-29.5 -11.5h-117q-43 0 -74 30.5t-31 73.5v237q0 39 -11.5 64.5t-41.5 49.5q-20 17 -20 36q0 18 20 35
q30 24 41.5 49.5t11.5 64.5v228q0 41 30 70.5t71 29.5h121q17 0 29.5 -11.5t12.5 -28.5t-12.5 -29t-29.5 -12z" />
    <glyph glyph-name="bar" unicode="|" horiz-adv-x="306" 
d="M191 793v-891q0 -18 -12 -30t-29 -12t-29 12.5t-12 29.5v891q0 17 12 29.5t29 12.5t29 -12.5t12 -29.5z" />
    <glyph glyph-name="braceright" unicode="}" horiz-adv-x="380" 
d="M272 165v-237q0 -43 -30.5 -73.5t-73.5 -30.5h-117q-17 0 -29.5 11.5t-12.5 28.5t12.5 29t29.5 12h110q13 0 21.5 8.5t8.5 21.5v231q0 101 67 149q-67 45 -67 149v217q0 13 -8.5 21.5t-21.5 8.5h-110q-17 0 -29.5 12t-12.5 29t12.5 28.5t29.5 11.5h121q41 0 70.5 -29.5
t29.5 -70.5v-228q0 -39 11.5 -64.5t41.5 -49.5q20 -17 20 -35q0 -19 -20 -36q-30 -24 -41.5 -49.5t-11.5 -64.5z" />
    <glyph glyph-name="asciitilde" unicode="~" horiz-adv-x="633" 
d="M499 395q27 12 45.5 0.5t18.5 -33.5q0 -30 -32 -42q-71 -31 -118 -31q-36 0 -99 26t-98 26q-33 0 -82 -25q-27 -13 -46 -1.5t-19 34.5q0 30 32 42q72 31 117 31q36 0 99 -26t98 -26t84 25z" />
    <glyph glyph-name="exclamdown" unicode="&#xa1;" horiz-adv-x="215" 
d="M67 41l5 396q0 14 10.5 25t24.5 11q15 0 25.5 -10.5t10.5 -25.5l5 -396q0 -17 -12 -29.5t-28 -12.5q-17 0 -29 12.5t-12 29.5zM66 616v53q0 16 12.5 28t29.5 12t29 -12t12 -28v-53q0 -16 -12 -28t-29 -12t-29.5 12t-12.5 28z" />
    <glyph glyph-name="cent" unicode="&#xa2;" horiz-adv-x="504" 
d="M324 670v-91q46 -8 81.5 -36t50.5 -66q5 -15 5 -20q0 -15 -11.5 -26t-26.5 -11q-25 0 -35 24q-13 30 -39 48.5t-59 18.5q-50 0 -80.5 -31t-35.5 -84q-4 -46 0 -93q5 -53 35.5 -83t80.5 -30q33 0 59 17.5t39 48.5q11 23 35 23q15 0 26 -10.5t11 -25.5q0 -5 -4 -16
q-40 -90 -132 -108v-89q1 -24 -17.5 -33.5t-37.5 0t-18 33.5v91q-66 12 -108.5 61t-46.5 118q-3 49 0 100q4 68 48 117q44 50 107 62v91q-1 24 18 33.5t37.5 0t17.5 -33.5z" />
    <glyph glyph-name="sterling" unicode="&#xa3;" horiz-adv-x="565" 
d="M115 288h-62q-17 0 -29 11.5t-12 29.5q0 16 12 27t29 11h52q-23 112 -23 137q0 88 56 147q57 59 159 59q114 0 193 -79q17 -17 17 -35q0 -28 -23.5 -37t-51.5 13q-35 32 -65 45.5t-72 13.5q-67 0 -100 -38q-32 -38 -32 -87q0 -17 3 -38q1 -2 4.5 -21.5t6.5 -31.5l10 -48
h148q17 0 29.5 -11t12.5 -27q0 -17 -12.5 -29t-29.5 -12h-138q11 -95 -51 -209h341q17 0 29.5 -11.5t12.5 -28.5t-12 -28t-30 -11h-370q-29 0 -45 15t-16 39q0 15 17 51q51 101 42 183z" />
    <glyph glyph-name="currency" unicode="&#xa4;" horiz-adv-x="621" 
d="M311 560q65 0 114 -40l79 79q12 13 28.5 13t28.5 -12q11 -11 11 -27.5t-12 -28.5l-85 -86q16 -33 17 -77q1 -31 0 -62q-1 -43 -17 -76l85 -85q12 -12 12 -29t-11 -28q-12 -11 -28 -10.5t-29 12.5l-78 77q-47 -40 -115 -40q-69 0 -116 40l-78 -77q-12 -12 -28 -12.5
t-29 10.5q-11 11 -10.5 28t11.5 29l86 85q-16 34 -18 76q-1 31 0 62q1 42 18 77l-85 86q-12 12 -12.5 28.5t10.5 27.5q13 12 29.5 12t27.5 -13l79 -79q49 40 115 40zM203 380q-1 -21 0 -60q2 -46 33 -77t75 -31t74 31t32 77q1 26 0 60q-2 45 -32 76t-74 31t-74.5 -31
t-33.5 -76z" />
    <glyph glyph-name="yen" unicode="&#xa5;" horiz-adv-x="647" 
d="M256 356l-229 280q-11 14 -9.5 31t14.5 28t31 9t28 -15l233 -292l234 292q11 14 28 15.5t31 -9.5q13 -11 14.5 -27.5t-9.5 -30.5l-230 -282l-10.5 -13.5t-9 -12.5t-5 -12t-2.5 -19v-4h120q24 1 33.5 -18.5t0 -39t-33.5 -18.5h-120v-180q0 -18 -11.5 -30t-29.5 -12
q-16 0 -28.5 12.5t-12.5 29.5v180h-119q-24 -1 -34.5 18.5t0 39t34.5 18.5h119v4q0 7 -6 28q0 3 -3.5 8t-5.5 6q0 2 -6 8t-6 8z" />
    <glyph glyph-name="brokenbar" unicode="&#xa6;" horiz-adv-x="306" 
d="M191 269v-367q0 -18 -12 -30t-29 -12t-29 12.5t-12 29.5v367q0 17 12 29.5t29 12.5t29 -12.5t12 -29.5zM191 793v-367q0 -18 -12 -30t-29 -12t-29 12.5t-12 29.5v367q0 17 12 29.5t29 12.5t29 -12.5t12 -29.5z" />
    <glyph glyph-name="section" unicode="&#xa7;" horiz-adv-x="580" 
d="M493 274q0 -48 -36 -88q41 -41 41 -109q0 -78 -58 -129t-148 -51q-59 0 -114.5 17t-83.5 41q-15 13 -15 34q0 16 11.5 27.5t26.5 11.5q10 0 29 -10q67 -41 144 -41q60 0 92.5 28.5t32.5 70.5q4 47 -37 74q-7 6 -30 14q-19 6 -76 22q-96 25 -136 58t-40 87q0 49 36 88
q-41 44 -41 110q0 79 58 128q59 51 149 51q57 0 106.5 -16t77.5 -41q17 -14 17 -35q0 -16 -11.5 -27.5t-27.5 -11.5q-12 0 -28 11q-67 41 -133 41q-60 0 -92.5 -29t-32.5 -71q0 -38 24 -64q9 -10 31 -19q26 -10 38 -14l50 -13q97 -24 136.5 -57.5t39.5 -87.5zM303 256
q61 -15 93 -30l2 2q19 20 19 43q0 26 -28 43t-102 35q-60 13 -93 30l-2 -2q-19 -20 -19 -44q0 -27 28 -43.5t102 -33.5z" />
    <glyph glyph-name="dieresis" unicode="&#xa8;" horiz-adv-x="360" 
d="M56 806q0 20 13 32.5t32 12.5t32 -13t13 -32q2 -27 -21.5 -38.5t-47 0t-21.5 38.5zM304 806q2 -27 -21.5 -38.5t-47 0t-21.5 38.5q0 19 13 32t32 13t32 -12.5t13 -32.5z" />
    <glyph glyph-name="copyright" unicode="&#xa9;" horiz-adv-x="806" 
d="M405 709q126 0 214 -85q87 -85 92 -217q2 -56 0 -112q-5 -132 -92 -217q-89 -84 -214 -84q-127 0 -215 84q-87 85 -91 217q-2 56 0 112q4 132 91 217q88 85 215 85zM161 412q-5 -60 0 -122q6 -108 74 -173q69 -63 170 -63t168 63q68 65 75 173q5 62 0 122q-8 110 -75 173
q-67 64 -168 64q-102 0 -170 -64q-68 -65 -74 -173zM406 201q33 0 59 16.5t38 44.5q9 19 26 19q13 0 22 -7.5t9 -21.5q0 -6 -5 -19q-18 -43 -57.5 -67.5t-91.5 -24.5q-68 0 -115 47t-53 117q-4 46 0 95q4 66 52 114q49 47 116 47q52 0 91.5 -24.5t57.5 -66.5q5 -13 5 -19
q0 -14 -9 -21.5t-22 -7.5q-15 0 -26 18q-12 28 -38 44.5t-59 16.5q-44 0 -72.5 -28.5t-33.5 -76.5q-2 -30 0 -89q4 -46 33 -76t73 -30z" />
    <glyph glyph-name="ordfeminine" unicode="&#xaa;" horiz-adv-x="480" 
d="M440 309q0 -16 -11 -26.5t-27 -10.5q-20 0 -32 16q-14 17 -23 37q-60 -54 -125 -54q-77 0 -122.5 44t-50.5 119q-3 56 0 111q5 76 51.5 120t121.5 44q47 0 91.5 -14t69.5 -32q14 -11 14 -29v-185q0 -40 7.5 -63t27.5 -53q8 -11 8 -24zM222 346q27 0 56.5 14t48.5 35
q-4 23 -4 66v147q-13 10 -43 18t-58 8q-94 0 -99 -96q-5 -50 0 -99q5 -93 99 -93z" />
    <glyph glyph-name="guillemotleft" unicode="&#xab;" horiz-adv-x="562" 
d="M48 351q0 40 44 75l121 96q13 11 29.5 9.5t26.5 -14.5t8.5 -29t-14.5 -27l-123 -96q-19 -14 0 -28l123 -97q13 -10 14.5 -26.5t-8.5 -29.5q-25 -28 -56 -4l-121 96q-44 38 -44 75zM253 351q0 40 44 75l120 96q14 11 30 9.5t26 -14.5q11 -13 9.5 -29t-14.5 -27l-123 -96
q-19 -14 0 -28l123 -97q13 -10 14.5 -26.5t-9.5 -29.5q-10 -13 -26 -14t-30 10l-120 96q-44 38 -44 75z" />
    <glyph glyph-name="logicalnot" unicode="&#xac;" horiz-adv-x="628" 
d="M568 324v-188q0 -17 -11.5 -29t-28.5 -12q-16 0 -28 12t-12 29v175h-387q-17 0 -29 11.5t-12 27.5q0 17 12 28.5t29 11.5h401q30 0 48 -19t18 -47z" />
    <glyph glyph-name="registered" unicode="&#xae;" horiz-adv-x="616" 
d="M258 540v-85h59q48 0 48 42q0 43 -46 43h-61zM488 404q3 41 0 80q-7 81 -56 130t-124 49t-124 -48t-56 -131q-3 -39 0 -80q7 -82 56 -130t124 -48t124 48.5t56 129.5zM380 317l-69 86q-6 9 -17 9h-36v-79q0 -24 -24 -24q-9 0 -15.5 7t-6.5 17v218q0 14 8.5 23t23.5 9h79
q39 0 64.5 -23t25.5 -62q0 -60 -56 -77l59 -74q11 -11 4 -25t-23 -14q-8 0 -17 9zM534 408q-5 -98 -69 -164q-65 -65 -157 -65q-94 0 -159 65q-63 65 -68 164q-1 36 0 73q5 100 68 163q65 65 159 65q92 0 157 -65q64 -64 69 -163q1 -37 0 -73z" />
    <glyph glyph-name="overscore" unicode="&#xaf;" horiz-adv-x="360" 
d="M100 836h164q14 0 24 -10t10 -24q0 -15 -10 -25t-24 -10h-164q-15 0 -25 10t-10 25q0 14 10 24t25 10z" />
    <glyph glyph-name="degree" unicode="&#xb0;" horiz-adv-x="349" 
d="M50 587q0 52 36 88q37 37 88 37t88 -37q37 -36 37 -88q0 -51 -37 -88q-38 -36 -88 -36t-88 36q-36 37 -36 88zM105 587q0 -28 20 -48t49 -20t49 20t20 48q0 29 -20 49t-49 20t-49 -20t-20 -49z" />
    <glyph glyph-name="plusminus" unicode="&#xb1;" horiz-adv-x="628" 
d="M527 0h-426q-17 0 -29 11.5t-12 27.5q0 17 12 28.5t29 11.5h426q17 0 29 -11.5t12 -28.5q0 -16 -12 -27.5t-29 -11.5zM275 144v176h-174q-17 0 -29 11.5t-12 27.5q0 17 12 28.5t29 11.5h174v174q0 17 12 29t28 12q17 0 28.5 -12t11.5 -29v-174h172q17 0 29 -11.5
t12 -28.5q0 -16 -12 -27.5t-29 -11.5h-172v-176q0 -17 -11.5 -29.5t-28.5 -12.5q-16 0 -28 13t-12 29z" />
    <glyph glyph-name="twosuperior" unicode="&#xb2;" horiz-adv-x="457" 
d="M71 298q0 77 100 147l28 19q18 11 35 24q68 49 63 88q0 25 -21 43t-56 18q-50 0 -81 -40q-15 -19 -32 -19q-16 0 -27 10t-11 27q0 12 9 24q21 31 58.5 50.5t83.5 19.5q70 0 110 -36.5t40 -94.5q0 -52 -30 -87q-28 -32 -111 -89q-72 -46 -80 -83h193q24 2 34 -17.5
t0 -38.5t-34 -17h-223q-21 0 -34.5 14.5t-13.5 37.5z" />
    <glyph glyph-name="threesuperior" unicode="&#xb3;" horiz-adv-x="432" 
d="M180 465q-15 0 -25 9t-10 23q0 15 12 26l89 96h-147q-23 -1 -32.5 18.5t0 39t32.5 17.5h197q21 0 35.5 -12.5t14.5 -32.5q0 -21 -21 -44l-68 -72q51 -7 82.5 -41.5t31.5 -85.5q0 -80 -64 -125.5t-176 -45.5q-25 0 -32 1q-23 0 -32.5 18.5t0 37t32.5 17.5q4 0 18.5 -0.5
t19.5 -0.5q73 0 116 26t43 71q0 30 -20 47t-53 17q-9 0 -25 -2t-18 -2z" />
    <glyph glyph-name="acute" unicode="&#xb4;" horiz-adv-x="360" 
d="M96 818l136 70q9 4 17 4q14 0 24 -10t10 -24q0 -20 -19 -30l-135 -70q-8 -5 -18 -5q-14 0 -23.5 10t-9.5 24q0 21 18 31z" />
    <glyph glyph-name="mu" unicode="&#xb5;" horiz-adv-x="616" 
d="M96 -140v621q0 17 11.5 29t28.5 12t29 -12t12 -29v-287q0 -60 32.5 -93.5t92.5 -33.5q79 0 138 38v376q0 17 11.5 29t28.5 12t29 -12t12 -29v-399q0 -20 -15 -31q-89 -60 -202 -60q-77 0 -127 37v-168q0 -17 -12 -29.5t-29 -12.5q-16 0 -28 12.5t-12 29.5z" />
    <glyph glyph-name="mu" unicode="&#x3bc;" horiz-adv-x="616" 
d="M96 -140v621q0 17 11.5 29t28.5 12t29 -12t12 -29v-287q0 -60 32.5 -93.5t92.5 -33.5q79 0 138 38v376q0 17 11.5 29t28.5 12t29 -12t12 -29v-399q0 -20 -15 -31q-89 -60 -202 -60q-77 0 -127 37v-168q0 -17 -12 -29.5t-29 -12.5q-16 0 -28 12.5t-12 29.5z" />
    <glyph glyph-name="paragraph" unicode="&#xb6;" horiz-adv-x="709" 
d="M368 -150v411h-37q-105 0 -170 58q-65 59 -65 162q0 101 65 160q66 60 162 60h218q67 0 67 -66v-785q0 -17 -12 -29.5t-28 -12.5q-17 0 -29 12.5t-12 29.5v772h-78v-772q0 -18 -11.5 -30t-28.5 -12t-29 12t-12 30zM333 340h35v282h-39q-72 0 -110.5 -37.5t-38.5 -104.5
t38.5 -103.5t114.5 -36.5z" />
    <glyph glyph-name="middot" unicode="&#xb7;" horiz-adv-x="265" 
d="M173 380v-54q0 -18 -11.5 -30t-29.5 -12q-17 0 -29 12.5t-12 29.5v54q0 17 12 29.5t29 12.5t29 -12.5t12 -29.5z" />
    <glyph glyph-name="cedilla" unicode="&#xb8;" horiz-adv-x="360" 
d="M119 -67l26 73q9 25 32 25q29 0 29 -28q0 -4 -2 -12l-14 -36q41 -5 64.5 -28.5t23.5 -60.5q0 -84 -124 -124q-17 -6 -31.5 2.5t-14.5 27.5q0 24 24 31q45 18 61 31t16 31q0 11 -8.5 19.5t-22.5 8.5q-5 0 -16.5 -1.5t-14.5 -1.5q-16 0 -25.5 14t-2.5 29z" />
    <glyph glyph-name="onesuperior" unicode="&#xb9;" horiz-adv-x="334" 
d="M162 281v316l-62 -33q-33 -16 -51 12q-8 13 -4 29t19 24l105 63q15 9 27 9q19 0 30.5 -12t11.5 -31v-377q0 -16 -10.5 -27t-26.5 -11t-27.5 11.5t-11.5 26.5z" />
    <glyph glyph-name="ordmasculine" unicode="&#xba;" horiz-adv-x="468" 
d="M418 440q-4 -73 -55 -122q-50 -47 -124 -47q-73 0 -123 48q-50 49 -56 121q-4 51 0 100q6 72 56 121q50 48 123 48q75 0 124 -48q51 -49 55 -121q4 -48 0 -100zM344 445q3 47 0 90q-5 44 -34 71.5t-71 27.5q-43 0 -71.5 -27.5t-32.5 -71.5q-5 -43 0 -90q5 -45 33.5 -72
t70.5 -27t71 27t34 72z" />
    <glyph glyph-name="guillemotright" unicode="&#xbb;" horiz-adv-x="562" 
d="M515 351q0 -37 -44 -75l-121 -96q-31 -24 -56 4q-10 13 -8.5 29.5t14.5 26.5l123 97q19 14 0 28l-123 96q-13 11 -14.5 27t8.5 29t26.5 14.5t29.5 -9.5l121 -96q44 -35 44 -75zM310 351q0 -37 -44 -75l-120 -96q-14 -11 -30 -10t-26 14q-11 13 -9.5 29.5t14.5 26.5
l123 97q19 14 0 28l-123 96q-13 11 -14.5 27t9.5 29q10 13 26 14.5t30 -9.5l120 -96q44 -35 44 -75z" />
    <glyph glyph-name="onequarter" unicode="&#xbc;" horiz-adv-x="965" 
d="M836 402v-231h39q15 0 25.5 -9.5t10.5 -24.5q0 -16 -10 -25.5t-26 -9.5h-39v-66q0 -15 -10 -25.5t-25 -10.5q-16 0 -25.5 10t-9.5 26v65h-203q-37 0 -51 31.5t19 68.5l202 229q24 27 49 27q24 0 39 -15.5t15 -39.5zM766 171v190l-169 -190h169zM248 19l274 688
q6 15 20.5 21t28.5 1t20 -20t0 -29l-272 -689q-6 -14 -20.5 -20t-28.5 -1t-20.5 19.5t-1.5 29.5zM163 281v316l-62 -33q-32 -17 -51 14q-7 12 -2 28t17 23l116 65q11 6 20 6q16 0 27 -11t11 -28v-380q0 -16 -10.5 -27t-26.5 -11t-27.5 11.5t-11.5 26.5z" />
    <glyph glyph-name="onehalf" unicode="&#xbd;" horiz-adv-x="948" 
d="M561 52q0 77 100 147l28 19q18 11 35 24q68 49 63 88q0 25 -21 43t-56 18q-50 0 -81 -40q-15 -19 -32 -19q-16 0 -27 10t-11 27q0 12 9 24q21 31 58.5 50.5t83.5 19.5q70 0 110 -36.5t40 -94.5q0 -52 -30 -87q-28 -32 -111 -89q-72 -46 -80 -83h193q24 2 34 -17.5
t0 -38.5t-34 -17h-223q-21 0 -34.5 14.5t-13.5 37.5zM162 281v316l-62 -33q-33 -16 -51 12q-8 13 -4 29t19 24l105 63q15 9 27 9q19 0 30.5 -12t11.5 -31v-377q0 -16 -10.5 -27t-26.5 -11t-27.5 11.5t-11.5 26.5zM241 19l274 688q6 15 20.5 21t28.5 1t20 -20t0 -29
l-272 -689q-6 -14 -20.5 -20t-28.5 -1t-20.5 19.5t-1.5 29.5z" />
    <glyph glyph-name="threequarters" unicode="&#xbe;" horiz-adv-x="1066" 
d="M944 402v-231h39q15 0 25.5 -9.5t10.5 -24.5q0 -16 -10 -25.5t-26 -9.5h-39v-66q0 -15 -10 -25.5t-25 -10.5q-16 0 -25.5 10t-9.5 26v65h-203q-37 0 -51 31.5t19 68.5l202 229q24 27 49 27q24 0 39 -15.5t15 -39.5zM874 171v190l-169 -190h169zM180 465q-15 0 -25 9
t-10 23q0 15 12 26l89 96h-147q-23 -1 -32.5 18.5t0 39t32.5 17.5h197q21 0 35.5 -12.5t14.5 -32.5q0 -21 -21 -44l-68 -72q51 -7 82.5 -41.5t31.5 -85.5q0 -80 -64 -125.5t-176 -45.5q-25 0 -32 1q-23 0 -32.5 18.5t0 37t32.5 17.5q4 0 18.5 -0.5t19.5 -0.5q73 0 116 26
t43 71q0 30 -20 47t-53 17q-9 0 -25 -2t-18 -2zM352 19l274 688q6 15 20.5 21t28.5 1t20 -20t0 -29l-272 -689q-6 -14 -20.5 -20t-28.5 -1t-20.5 19.5t-1.5 29.5z" />
    <glyph glyph-name="questiondown" unicode="&#xbf;" horiz-adv-x="558" 
d="M418 139q14 18 34 18q16 0 28 -12.5t12 -29.5q0 -13 -11 -29q-78 -95 -214 -95q-92 0 -151 53q-58 54 -58 138q0 92 48 145q51 54 164 107q13 7 30 7q15 0 26.5 -11t11.5 -27q0 -27 -28 -40q-97 -43 -134 -80q-36 -36 -36 -99q0 -52 34 -83t93 -31q95 0 151 69zM338 669
v-53q0 -16 -12 -28t-29 -12t-29 11.5t-12 28.5v53q0 17 12 28.5t29 11.5q16 0 28.5 -12t12.5 -28z" />
    <glyph glyph-name="Agrave" unicode="&#xc0;" horiz-adv-x="675" 
d="M650 41q0 -18 -11 -30t-29 -12q-28 0 -39 26l-74 209h-319l-74 -209q-11 -26 -39 -26q-18 0 -29 12t-11 30q0 8 2 14l208 580q28 76 103 76q77 0 102 -76l208 -580q2 -6 2 -14zM312 611l-106 -299h263l-105 299q-7 20 -26 20t-26 -20zM248 887l135 -70q19 -10 19 -31
q0 -14 -10 -24t-24 -10q-8 0 -20 6l-133 69q-18 11 -18 30q0 14 9.5 24t23.5 10q9 0 18 -4z" />
    <glyph glyph-name="Aacute" unicode="&#xc1;" horiz-adv-x="675" 
d="M650 41q0 -18 -11 -30t-29 -12q-28 0 -39 26l-74 209h-319l-74 -209q-11 -26 -39 -26q-18 0 -29 12t-11 30q0 8 2 14l208 580q28 76 103 76q77 0 102 -76l208 -580q2 -6 2 -14zM312 611l-106 -299h263l-105 299q-7 20 -26 20t-26 -20zM288 817l136 70q9 4 17 4
q14 0 24 -10t10 -24q0 -20 -19 -30l-135 -70q-8 -5 -18 -5q-14 0 -23.5 10t-9.5 24q0 20 18 31z" />
    <glyph glyph-name="Acircumflex" unicode="&#xc2;" horiz-adv-x="675" 
d="M650 41q0 -18 -11 -30t-29 -12q-28 0 -39 26l-74 209h-319l-74 -209q-11 -26 -39 -26q-18 0 -29 12t-11 30q0 8 2 14l208 580q28 76 103 76q77 0 102 -76l208 -580q2 -6 2 -14zM312 611l-106 -299h263l-105 299q-7 20 -26 20t-26 -20zM367 884l94 -70q15 -10 15 -28
q0 -14 -10 -24t-24 -10q-12 0 -23 8l-81 61l-81 -61q-11 -8 -22 -8q-15 0 -24.5 10t-9.5 24q0 17 14 28l93 70q16 12 30 12q10 0 29 -12z" />
    <glyph glyph-name="Atilde" unicode="&#xc3;" horiz-adv-x="675" 
d="M650 41q0 -18 -11 -30t-29 -12q-28 0 -39 26l-74 209h-319l-74 -209q-11 -26 -39 -26q-18 0 -29 12t-11 30q0 8 2 14l208 580q28 76 103 76q77 0 102 -76l208 -580q2 -6 2 -14zM312 611l-106 -299h263l-105 299q-7 20 -26 20t-26 -20zM450 849q15 0 24 -9.5t9 -24.5
t-14 -27q-38 -34 -74 -34q-25 0 -62 18q-38 18 -50 18q-14 0 -31 -14q-16 -13 -28 -13q-15 0 -24 9.5t-9 24.5q0 13 14 27q38 34 75 34q28 0 62 -18q35 -18 49 -18t30 13q17 14 29 14z" />
    <glyph glyph-name="Adieresis" unicode="&#xc4;" horiz-adv-x="675" 
d="M650 41q0 -18 -11 -30t-29 -12q-28 0 -39 26l-74 209h-319l-74 -209q-11 -26 -39 -26q-18 0 -29 12t-11 30q0 8 2 14l208 580q28 76 103 76q77 0 102 -76l208 -580q2 -6 2 -14zM312 611l-106 -299h263l-105 299q-7 20 -26 20t-26 -20zM214 806q0 20 13 32.5t32 12.5
t32 -13t13 -32q2 -27 -21.5 -38.5t-47 0t-21.5 38.5zM462 806q2 -27 -21.5 -38.5t-47 0t-21.5 38.5q0 19 13 32t32 13t32 -12.5t13 -32.5z" />
    <glyph glyph-name="Aring" unicode="&#xc5;" horiz-adv-x="675" 
d="M650 41q0 -18 -11 -30t-29 -12q-28 0 -39 26l-74 209h-319l-74 -209q-11 -26 -39 -26q-18 0 -29 12t-11 30q0 8 2 14l208 580q28 76 103 76q77 0 102 -76l208 -580q2 -6 2 -14zM312 611l-106 -299h263l-105 299q-7 20 -26 20t-26 -20zM242 849q0 39 28.5 67.5t67.5 28.5
q40 0 68 -28.5t28 -67.5q0 -40 -28 -68t-68 -28q-39 0 -67.5 28t-28.5 68zM294 849q0 -19 13 -32t31 -13q19 0 31.5 13t12.5 32q0 18 -12.5 31t-31.5 13q-18 0 -31 -13t-13 -31z" />
    <glyph glyph-name="AE" unicode="&#xc6;" horiz-adv-x="1043" 
d="M59 -4q-18 0 -29.5 12t-11.5 30q0 12 6 21l394 585q38 57 117 57h397q17 0 29.5 -11.5t12.5 -28.5q0 -16 -12.5 -27.5t-29.5 -11.5h-332v-230h324q17 0 28.5 -11t11.5 -28q0 -16 -12 -27.5t-28 -11.5h-324v-235h334q17 0 29.5 -11.5t12.5 -27.5q0 -17 -12.5 -28.5
t-29.5 -11.5h-346q-32 0 -51 19t-19 49v174h-271l-153 -228q-12 -18 -35 -18zM486 599l-187 -279h219v301q-19 0 -32 -22z" />
    <glyph glyph-name="Ccedilla" unicode="&#xc7;" horiz-adv-x="662" 
d="M580 214q15 0 27 -12t12 -27q0 -7 -3 -18q-27 -68 -86.5 -112t-135.5 -53l-14 -37q40 -3 64 -27.5t24 -61.5q0 -82 -123 -124q-18 -6 -32.5 2t-14.5 28q0 24 25 31q44 17 60 31t16 30q0 12 -8.5 21t-22.5 9q-5 0 -16 -2t-15 -2q-16 0 -25.5 14t-2.5 29l21 60
q-106 11 -177 87q-70 77 -77 189q-6 83 0 162q9 119 87 199q80 80 198 80q85 0 155 -46q70 -45 100 -120q3 -10 3 -19q0 -15 -12 -26.5t-27 -11.5q-27 0 -38 26q-23 54 -72 86t-109 32q-85 0 -140 -57t-63 -147q-5 -77 0 -154q8 -90 63 -147t140 -57q60 0 109 32.5t72 86.5
q11 26 38 26z" />
    <glyph glyph-name="Egrave" unicode="&#xc8;" horiz-adv-x="625" 
d="M170 701h345q17 0 29 -11.5t12 -28.5q0 -16 -12.5 -27.5t-28.5 -11.5h-333v-230h324q17 0 28.5 -11t11.5 -28q0 -16 -12 -27.5t-28 -11.5h-324v-235h335q16 0 28.5 -11.5t12.5 -27.5q0 -17 -12 -28.5t-29 -11.5h-347q-32 0 -51 19t-19 49v565q0 31 19 49.5t51 18.5z
M256 887l135 -70q19 -10 19 -31q0 -14 -10 -24t-24 -10q-8 0 -20 6l-133 69q-18 11 -18 30q0 14 9.5 24t23.5 10q9 0 18 -4z" />
    <glyph glyph-name="Eacute" unicode="&#xc9;" horiz-adv-x="625" 
d="M170 701h345q17 0 29 -11.5t12 -28.5q0 -16 -12.5 -27.5t-28.5 -11.5h-333v-230h324q17 0 28.5 -11t11.5 -28q0 -16 -12 -27.5t-28 -11.5h-324v-235h335q16 0 28.5 -11.5t12.5 -27.5q0 -17 -12 -28.5t-29 -11.5h-347q-32 0 -51 19t-19 49v565q0 31 19 49.5t51 18.5z
M234 817l136 70q9 4 17 4q14 0 24 -10t10 -24q0 -20 -19 -30l-135 -70q-8 -5 -18 -5q-14 0 -23.5 10t-9.5 24q0 20 18 31z" />
    <glyph glyph-name="Ecircumflex" unicode="&#xca;" horiz-adv-x="625" 
d="M170 701h345q17 0 29 -11.5t12 -28.5q0 -16 -12.5 -27.5t-28.5 -11.5h-333v-230h324q17 0 28.5 -11t11.5 -28q0 -16 -12 -27.5t-28 -11.5h-324v-235h335q16 0 28.5 -11.5t12.5 -27.5q0 -17 -12 -28.5t-29 -11.5h-347q-32 0 -51 19t-19 49v565q0 31 19 49.5t51 18.5z
M361 884l94 -70q15 -10 15 -28q0 -14 -10 -24t-24 -10q-12 0 -23 8l-81 61l-81 -61q-11 -8 -22 -8q-15 0 -24.5 10t-9.5 24q0 17 14 28l93 70q16 12 30 12q10 0 29 -12z" />
    <glyph glyph-name="Edieresis" unicode="&#xcb;" horiz-adv-x="625" 
d="M170 701h345q17 0 29 -11.5t12 -28.5q0 -16 -12.5 -27.5t-28.5 -11.5h-333v-230h324q17 0 28.5 -11t11.5 -28q0 -16 -12 -27.5t-28 -11.5h-324v-235h335q16 0 28.5 -11.5t12.5 -27.5q0 -17 -12 -28.5t-29 -11.5h-347q-32 0 -51 19t-19 49v565q0 31 19 49.5t51 18.5z
M256 850q27 2 38.5 -21.5t0 -47t-38.5 -21.5q-19 0 -32 13t-13 32t12.5 32t32.5 13zM414 850q20 0 32.5 -13t12.5 -32t-13 -32t-32 -13q-27 -2 -38.5 21.5t0 47t38.5 21.5z" />
    <glyph glyph-name="Igrave" unicode="&#xcc;" horiz-adv-x="282" 
d="M54 887l135 -70q19 -10 19 -31q0 -14 -10 -24t-24 -10q-8 0 -20 6l-133 69q-18 11 -18 30q0 14 9.5 24t23.5 10q9 0 18 -4zM99 38v625q0 17 12 29.5t29 12.5q18 0 29.5 -12t11.5 -30v-625q0 -18 -11.5 -30t-29.5 -12q-17 0 -29 12.5t-12 29.5z" />
    <glyph glyph-name="Iacute" unicode="&#xcd;" horiz-adv-x="282" 
d="M84 817l136 70q9 4 17 4q14 0 24 -10t10 -24q0 -20 -19 -30l-135 -70q-8 -5 -18 -5q-14 0 -23.5 10t-9.5 24q0 20 18 31zM99 38v625q0 17 12 29.5t29 12.5q18 0 29.5 -12t11.5 -30v-625q0 -18 -11.5 -30t-29.5 -12q-17 0 -29 12.5t-12 29.5z" />
    <glyph glyph-name="Icircumflex" unicode="&#xce;" horiz-adv-x="282" 
d="M99 38v625q0 17 12 29.5t29 12.5q18 0 29.5 -12t11.5 -30v-625q0 -18 -11.5 -30t-29.5 -12q-17 0 -29 12.5t-12 29.5zM169 884l94 -70q15 -10 15 -28q0 -14 -10 -24t-24 -10q-12 0 -23 8l-81 61l-81 -61q-11 -8 -22 -8q-15 0 -24.5 10t-9.5 24q0 17 14 28l93 70
q16 12 30 12q10 0 29 -12z" />
    <glyph glyph-name="Idieresis" unicode="&#xcf;" horiz-adv-x="282" 
d="M99 38v625q0 17 12 29.5t29 12.5q18 0 29.5 -12t11.5 -30v-625q0 -18 -11.5 -30t-29.5 -12q-17 0 -29 12.5t-12 29.5zM62 851q29 0 41 -28t-9 -49t-49 -9t-28 41q0 20 12.5 32.5t32.5 12.5zM220 851q20 0 32.5 -12.5t12.5 -32.5q0 -29 -28 -41t-49 9t-9 49t41 28z" />
    <glyph glyph-name="Eth" unicode="&#xd0;" horiz-adv-x="719" 
d="M336 0h-167q-32 0 -50.5 19t-18.5 49v241h-64q-17 0 -28 11t-11 28q0 16 11 27t28 11h64v247q0 30 18.5 49t50.5 19h167q147 0 226 -81q81 -82 88 -215q3 -57 0 -109q-7 -133 -88 -215q-79 -81 -226 -81zM568 298q3 55 0 104q-5 105 -63.5 162.5t-168.5 57.5h-154v-236
h158q24 1 33.5 -18.5t0 -39.5t-33.5 -19h-158v-230h154q109 0 167.5 57t64.5 162z" />
    <glyph glyph-name="Ntilde" unicode="&#xd1;" horiz-adv-x="769" 
d="M238 665l350 -568h2q0 11 -2 65t-2 84v417q0 17 12 29.5t29 12.5q18 0 29.5 -12t11.5 -30v-595q0 -30 -18.5 -50t-47.5 -20q-44 0 -66 37l-355 575h-2q3 -123 3 -155v-417q0 -18 -11.5 -30t-29.5 -12q-16 0 -28.5 12.5t-12.5 29.5v593q0 31 20 52t50 21q46 0 68 -39z
M499 851q15 0 24 -9.5t9 -24.5t-14 -27q-38 -34 -74 -34q-26 0 -62 18t-50 18t-31 -14q-16 -13 -28 -13q-15 0 -24 9.5t-9 24.5q0 13 14 27q38 34 75 34q27 0 62 -18t49 -18t30 13q17 14 29 14z" />
    <glyph glyph-name="Ograve" unicode="&#xd2;" horiz-adv-x="729" 
d="M369 -10q-119 0 -202 80t-91 199q-6 83 0 162q9 120 91 199q83 80 202 80q120 0 204 -81q85 -80 92 -198q6 -79 0 -162q-8 -119 -92 -199q-85 -80 -204 -80zM369 69q87 0 146 57q60 60 67 147q8 77 0 155q-7 87 -68 145q-58 58 -145 58q-85 0 -144 -57q-60 -58 -67 -146
q-6 -78 0 -155q8 -89 66 -147q58 -57 145 -57zM287 887l135 -70q19 -10 19 -31q0 -14 -10 -24t-24 -10q-8 0 -20 6l-133 69q-18 11 -18 30q0 14 9.5 24t23.5 10q9 0 18 -4z" />
    <glyph glyph-name="Oacute" unicode="&#xd3;" horiz-adv-x="729" 
d="M369 -10q-119 0 -202 80t-91 199q-6 83 0 162q9 120 91 199q83 80 202 80q120 0 204 -81q85 -80 92 -198q6 -79 0 -162q-8 -119 -92 -199q-85 -80 -204 -80zM369 69q87 0 146 57q60 60 67 147q8 77 0 155q-7 87 -68 145q-58 58 -145 58q-85 0 -144 -57q-60 -58 -67 -146
q-6 -78 0 -155q8 -89 66 -147q58 -57 145 -57zM304 817l136 70q9 4 17 4q14 0 24 -10t10 -24q0 -20 -19 -30l-135 -70q-8 -5 -18 -5q-14 0 -23.5 10t-9.5 24q0 20 18 31z" />
    <glyph glyph-name="Ocircumflex" unicode="&#xd4;" horiz-adv-x="729" 
d="M369 -10q-119 0 -202 80t-91 199q-6 83 0 162q9 120 91 199q83 80 202 80q120 0 204 -81q85 -80 92 -198q6 -79 0 -162q-8 -119 -92 -199q-85 -80 -204 -80zM369 69q87 0 146 57q60 60 67 147q8 77 0 155q-7 87 -68 145q-58 58 -145 58q-85 0 -144 -57q-60 -58 -67 -146
q-6 -78 0 -155q8 -89 66 -147q58 -57 145 -57zM400 884l94 -70q15 -10 15 -28q0 -14 -10 -24t-24 -10q-12 0 -23 8l-81 61l-81 -61q-11 -8 -22 -8q-15 0 -24.5 10t-9.5 24q0 17 14 28l93 70q17 12 30 12q9 0 29 -12z" />
    <glyph glyph-name="Otilde" unicode="&#xd5;" horiz-adv-x="729" 
d="M369 -10q-119 0 -202 80t-91 199q-6 83 0 162q9 120 91 199q83 80 202 80q120 0 204 -81q85 -80 92 -198q6 -79 0 -162q-8 -119 -92 -199q-85 -80 -204 -80zM369 69q87 0 146 57q60 60 67 147q8 77 0 155q-7 87 -68 145q-58 58 -145 58q-85 0 -144 -57q-60 -58 -67 -146
q-6 -78 0 -155q8 -89 66 -147q58 -57 145 -57zM482 847q15 0 24 -9.5t9 -24.5t-14 -27q-38 -34 -74 -34q-25 0 -62 18t-50 18q-14 0 -31 -14q-16 -13 -28 -13q-15 0 -24 9.5t-9 24.5q0 13 14 27q38 34 75 34q28 0 62 -18t49 -18q14 0 30 13q17 14 29 14z" />
    <glyph glyph-name="Odieresis" unicode="&#xd6;" horiz-adv-x="729" 
d="M369 -10q-119 0 -202 80t-91 199q-6 83 0 162q9 120 91 199q83 80 202 80q120 0 204 -81q85 -80 92 -198q6 -79 0 -162q-8 -119 -92 -199q-85 -80 -204 -80zM369 69q87 0 146 57q60 60 67 147q8 77 0 155q-7 87 -68 145q-58 58 -145 58q-85 0 -144 -57q-60 -58 -67 -146
q-6 -78 0 -155q8 -89 66 -147q58 -57 145 -57zM292 851q29 0 41 -28t-9 -49t-49 -9t-28 41q0 20 12.5 32.5t32.5 12.5zM450 851q20 0 32.5 -12.5t12.5 -32.5q0 -29 -28 -41t-49 9t-9 49t41 28z" />
    <glyph glyph-name="multiply" unicode="&#xd7;" horiz-adv-x="628" 
d="M530 509l-159 -158l159 -157q12 -11 12.5 -28t-10.5 -29q-12 -13 -29 -12.5t-30 12.5l-159 158l-161 -161q-13 -12 -29 -12.5t-29 11.5q-11 11 -11 28t12 29l161 161l-161 161q-12 12 -12 29t11 28q13 12 29 11.5t29 -12.5l161 -161l159 159q13 12 30 12.5t29 -12.5
q11 -12 10.5 -29t-12.5 -28z" />
    <glyph glyph-name="Oslash" unicode="&#xd8;" horiz-adv-x="730" 
d="M370 -10q-84 0 -151 40l-13 -22q-8 -13 -22.5 -16.5t-27.5 4.5q-13 7 -16 22.5t5 28.5l17 28q-78 79 -85 194q-6 83 0 162q9 120 91 199q83 80 202 80q81 0 149 -40l14 22q8 13 22.5 16.5t27.5 -4.5t15.5 -22.5t-5.5 -28.5l-16 -27q80 -79 89 -195q6 -79 0 -162
q-8 -119 -92 -199q-85 -80 -204 -80zM370 69q88 0 146 57q60 60 67 147q8 77 0 155q-6 71 -50 126l-272 -455q49 -30 109 -30zM159 273q6 -70 47 -125l273 454q-53 29 -109 29q-86 0 -144 -57q-60 -58 -67 -146q-6 -78 0 -155z" />
    <glyph glyph-name="Ugrave" unicode="&#xd9;" horiz-adv-x="748" 
d="M657 663v-379q0 -129 -80 -212q-79 -82 -203 -82t-203 82q-80 83 -80 212v379q0 17 12 29.5t29 12.5t29 -12.5t12 -29.5v-378q0 -98 56 -157q57 -59 145 -59t144 59q57 59 57 157v378q0 17 12 29.5t29 12.5t29 -12.5t12 -29.5zM316 887l135 -70q19 -10 19 -31
q0 -14 -10 -24t-24 -10q-8 0 -20 6l-133 69q-18 11 -18 30q0 14 9.5 24t23.5 10q9 0 18 -4z" />
    <glyph glyph-name="Uacute" unicode="&#xda;" horiz-adv-x="748" 
d="M657 663v-379q0 -129 -80 -212q-79 -82 -203 -82t-203 82q-80 83 -80 212v379q0 17 12 29.5t29 12.5t29 -12.5t12 -29.5v-378q0 -98 56 -157q57 -59 145 -59t144 59q57 59 57 157v378q0 17 12 29.5t29 12.5t29 -12.5t12 -29.5zM294 817l136 70q9 4 17 4q14 0 24 -10
t10 -24q0 -20 -19 -30l-135 -70q-8 -5 -18 -5q-14 0 -23.5 10t-9.5 24q0 20 18 31z" />
    <glyph glyph-name="Ucircumflex" unicode="&#xdb;" horiz-adv-x="748" 
d="M657 663v-379q0 -129 -80 -212q-79 -82 -203 -82t-203 82q-80 83 -80 212v379q0 17 12 29.5t29 12.5t29 -12.5t12 -29.5v-378q0 -98 56 -157q57 -59 145 -59t144 59q57 59 57 157v378q0 17 12 29.5t29 12.5t29 -12.5t12 -29.5zM403 884l94 -70q15 -10 15 -28
q0 -14 -10 -24t-24 -10q-12 0 -23 8l-81 61l-81 -61q-11 -8 -22 -8q-15 0 -24.5 10t-9.5 24q0 17 14 28l93 70q16 12 30 12q10 0 29 -12z" />
    <glyph glyph-name="Udieresis" unicode="&#xdc;" horiz-adv-x="748" 
d="M657 663v-379q0 -129 -80 -212q-79 -82 -203 -82t-203 82q-80 83 -80 212v379q0 17 12 29.5t29 12.5t29 -12.5t12 -29.5v-378q0 -98 56 -157q57 -59 145 -59t144 59q57 59 57 157v378q0 17 12 29.5t29 12.5t29 -12.5t12 -29.5zM250 806q0 20 13 32.5t32 12.5t32 -13
t13 -32q2 -27 -21.5 -38.5t-47 0t-21.5 38.5zM498 806q2 -27 -21.5 -38.5t-47 0t-21.5 38.5q0 19 13 32t32 13t32 -12.5t13 -32.5z" />
    <glyph glyph-name="Yacute" unicode="&#xdd;" horiz-adv-x="647" 
d="M589 705q17 0 29.5 -12t12.5 -29t-10 -27l-230 -282l-10.5 -13.5t-9 -12.5t-5 -12t-2.5 -19v-260q0 -18 -11.5 -30t-29.5 -12q-16 0 -28.5 12.5t-12.5 29.5v260q0 7 -6 28q0 3 -3.5 8t-5.5 6q-1 2 -6 8t-6 8l-229 280q-10 10 -10 28q0 16 12.5 28t29.5 12q20 0 32 -15
l233 -292l234 292q13 16 32 16zM238 817l136 70q9 4 17 4q14 0 24 -10t10 -24q0 -20 -19 -30l-135 -70q-8 -5 -18 -5q-14 0 -23.5 10t-9.5 24q0 20 18 31z" />
    <glyph glyph-name="Thorn" unicode="&#xde;" horiz-adv-x="644" 
d="M362 131h-180v-93q0 -18 -11.5 -30t-29.5 -12q-17 0 -29 12.5t-12 29.5v629q0 17 12 29.5t29 12.5t29 -12.5t12 -29.5v-97h188q96 0 161 -59q66 -59 66 -160q0 -103 -66 -162q-64 -58 -169 -58zM182 492v-282h179q76 0 114 36.5t38 104.5q0 66 -37.5 103.5t-109.5 37.5
h-184z" />
    <glyph glyph-name="germandbls" unicode="&#xdf;" horiz-adv-x="663" 
d="M495 563q0 -58 -42 -100q-41 -41 -41 -74q0 -24 17 -38t64 -33q134 -48 134 -159q0 -73 -55 -121q-56 -47 -143 -47q-85 0 -156 56q-12 10 -15 27t6 29q9 13 25 15.5t32 -8.5q43 -32 64 -38q20 -6 47 -6q53 0 83.5 25.5t30.5 71.5q0 34 -21 53.5t-73 37.5
q-67 24 -94.5 53t-27.5 79q0 29 13.5 53.5t29 39t29 34.5t13.5 41q0 37 -28 58.5t-78 21.5q-136 0 -136 -135v-461q0 -18 -11.5 -30t-29.5 -12q-17 0 -28.5 12t-11.5 30v466q0 98 56.5 151t160.5 53q82 0 134 -41q52 -40 52 -104z" />
    <glyph glyph-name="agrave" unicode="&#xe0;" horiz-adv-x="562" 
d="M481 346v-266q0 -22 -17 -33q-23 -17 -83 -38q-55 -18 -121 -18q-95 0 -147.5 46t-52.5 124q0 72 53.5 117t147.5 45q62 0 140 -21v41q0 60 -30.5 87.5t-94.5 27.5q-49 0 -119 -26q-24 -9 -41 0.5t-17 30.5q0 26 26 38q67 32 159 32q95 0 146 -46.5t51 -140.5zM269 64
q95 0 132 37v131q-84 22 -139 22q-54 0 -87.5 -24.5t-33.5 -66.5q0 -99 128 -99zM228 723l135 -70q19 -10 19 -31q0 -14 -10 -24t-24 -10q-8 0 -20 6l-133 69q-18 11 -18 30q0 14 9.5 24t23.5 10q9 0 18 -4z" />
    <glyph glyph-name="aacute" unicode="&#xe1;" horiz-adv-x="562" 
d="M481 346v-266q0 -22 -17 -33q-23 -17 -83 -38q-55 -18 -121 -18q-95 0 -147.5 46t-52.5 124q0 72 53.5 117t147.5 45q62 0 140 -21v41q0 60 -30.5 87.5t-94.5 27.5q-49 0 -119 -26q-24 -9 -41 0.5t-17 30.5q0 26 26 38q67 32 159 32q95 0 146 -46.5t51 -140.5zM269 64
q95 0 132 37v131q-84 22 -139 22q-54 0 -87.5 -24.5t-33.5 -66.5q0 -99 128 -99zM203 653l136 70q9 4 17 4q14 0 24 -10t10 -24q0 -20 -19 -30l-135 -70q-8 -5 -18 -5q-14 0 -23.5 10t-9.5 24q0 20 18 31z" />
    <glyph glyph-name="acircumflex" unicode="&#xe2;" horiz-adv-x="562" 
d="M481 346v-266q0 -22 -17 -33q-23 -17 -83 -38q-55 -18 -121 -18q-95 0 -147.5 46t-52.5 124q0 72 53.5 117t147.5 45q62 0 140 -21v41q0 60 -30.5 87.5t-94.5 27.5q-49 0 -119 -26q-24 -9 -41 0.5t-17 30.5q0 26 26 38q67 32 159 32q95 0 146 -46.5t51 -140.5zM269 64
q95 0 132 37v131q-84 22 -139 22q-54 0 -87.5 -24.5t-33.5 -66.5q0 -99 128 -99zM313 707l94 -70q15 -11 15 -28q0 -14 -10 -24t-24 -10q-12 0 -23 8l-81 61l-81 -61q-11 -8 -22 -8q-15 0 -24.5 10t-9.5 24q0 17 14 28l93 70q16 12 30 12q10 0 29 -12z" />
    <glyph glyph-name="atilde" unicode="&#xe3;" horiz-adv-x="562" 
d="M481 346v-266q0 -22 -17 -33q-23 -17 -83 -38q-55 -18 -121 -18q-95 0 -147.5 46t-52.5 124q0 72 53.5 117t147.5 45q62 0 140 -21v41q0 60 -30.5 87.5t-94.5 27.5q-49 0 -119 -26q-24 -9 -41 0.5t-17 30.5q0 26 26 38q67 32 159 32q95 0 146 -46.5t51 -140.5zM269 64
q95 0 132 37v131q-84 22 -139 22q-54 0 -87.5 -24.5t-33.5 -66.5q0 -99 128 -99zM396 687q15 0 24 -9.5t9 -24.5t-14 -27q-38 -34 -74 -34q-25 0 -62 18q-38 18 -50 18q-14 0 -31 -14q-16 -13 -28 -13q-15 0 -24 9.5t-9 24.5q0 13 14 27q38 34 75 34q27 0 62 -18
q34 -18 49 -18q14 0 30 13q17 14 29 14z" />
    <glyph glyph-name="adieresis" unicode="&#xe4;" horiz-adv-x="562" 
d="M481 346v-266q0 -22 -17 -33q-23 -17 -83 -38q-55 -18 -121 -18q-95 0 -147.5 46t-52.5 124q0 72 53.5 117t147.5 45q62 0 140 -21v41q0 60 -30.5 87.5t-94.5 27.5q-49 0 -119 -26q-24 -9 -41 0.5t-17 30.5q0 26 26 38q67 32 159 32q95 0 146 -46.5t51 -140.5zM269 64
q95 0 132 37v131q-84 22 -139 22q-54 0 -87.5 -24.5t-33.5 -66.5q0 -99 128 -99zM160 644q0 20 13 32.5t32 12.5t32 -13t13 -32q2 -27 -21.5 -38.5t-47 0t-21.5 38.5zM408 644q2 -27 -21.5 -38.5t-47 0t-21.5 38.5q0 19 13 32t32 13t32 -12.5t13 -32.5z" />
    <glyph glyph-name="aring" unicode="&#xe5;" horiz-adv-x="562" 
d="M481 346v-266q0 -22 -17 -33q-23 -17 -83 -38q-55 -18 -121 -18q-95 0 -147.5 46t-52.5 124q0 72 53.5 117t147.5 45q62 0 140 -21v41q0 60 -30.5 87.5t-94.5 27.5q-49 0 -119 -26q-24 -9 -41 0.5t-17 30.5q0 26 26 38q67 32 159 32q95 0 146 -46.5t51 -140.5zM269 64
q95 0 132 37v131q-84 22 -139 22q-54 0 -87.5 -24.5t-33.5 -66.5q0 -99 128 -99zM188 663q0 39 28.5 67.5t67.5 28.5q40 0 68 -28.5t28 -67.5q0 -40 -28 -68t-68 -28q-39 0 -67.5 28t-28.5 68zM240 663q0 -19 13 -32t31 -13q19 0 31.5 13t12.5 32q0 18 -12.5 31t-31.5 13
q-18 0 -31 -13t-13 -31z" />
    <glyph glyph-name="ae" unicode="&#xe6;" horiz-adv-x="901" 
d="M838 316v-30q0 -58 -59 -58h-299v-16q0 -69 39.5 -108t108.5 -39q51 0 123 26q24 9 41 -1.5t17 -30.5q0 -23 -22 -36q-55 -32 -159 -32q-102 0 -164 62q-33 -25 -89 -43.5t-115 -18.5q-95 0 -147.5 46t-52.5 125q0 71 53.5 116t147.5 45q61 0 139 -21v41q0 60 -30 87.5
t-94 27.5q-47 0 -119 -26q-24 -9 -41 0.5t-17 30.5q0 26 26 38q67 32 159 32q119 0 167 -77q62 77 172 77q98 0 156 -61q59 -61 59 -156zM269 64q76 0 152 53q-23 53 -21 115q-87 22 -138 22q-54 0 -87.5 -24.5t-33.5 -66.5q0 -99 128 -99zM480 296h266q12 0 13 12
q4 68 -33.5 110t-102.5 42q-71 0 -108 -43.5t-35 -120.5z" />
    <glyph glyph-name="ccedilla" unicode="&#xe7;" horiz-adv-x="557" 
d="M241 -67l22 61q-80 11 -130.5 65.5t-55.5 133.5q-5 71 0 142q4 87 67 143q62 55 157 55q93 0 148 -52q56 -51 56 -95q0 -18 -11 -29.5t-27 -11.5q-27 0 -39 27q-17 41 -50.5 63t-75.5 22q-62 0 -100.5 -34.5t-43.5 -92.5q-4 -57 0 -132q5 -59 43.5 -95t100.5 -36
q42 0 76.5 22t51.5 63q12 27 39 27q16 0 27 -11.5t11 -29.5q0 -40 -50 -90q-48 -48 -131 -56l-14 -37q40 -3 64 -27.5t24 -61.5q0 -82 -123 -124q-18 -6 -32.5 2t-14.5 28q0 24 25 31q44 17 60 31t16 30q0 12 -8.5 21t-22.5 9q-5 0 -16 -2t-15 -2q-16 0 -25.5 14t-2.5 29z
" />
    <glyph glyph-name="egrave" unicode="&#xe8;" horiz-adv-x="572" 
d="M514 316v-30q0 -58 -59 -58h-299v-16q0 -68 40.5 -107.5t108.5 -39.5q47 0 122 26q24 9 41 -1.5t17 -30.5q0 -23 -22 -36q-54 -32 -159 -32q-101 0 -161.5 58t-65.5 157q-4 64 1 120q8 96 68 151.5t153 55.5q98 0 156 -61q59 -61 59 -156zM156 296h266q12 0 13 12
q4 68 -33 110t-102 42q-71 0 -108.5 -43.5t-35.5 -120.5zM227 723l135 -70q19 -10 19 -31q0 -14 -10 -24t-24 -10q-8 0 -20 6l-133 69q-18 11 -18 30q0 14 9.5 24t23.5 10q9 0 18 -4z" />
    <glyph glyph-name="eacute" unicode="&#xe9;" horiz-adv-x="572" 
d="M514 316v-30q0 -58 -59 -58h-299v-16q0 -68 40.5 -107.5t108.5 -39.5q47 0 122 26q24 9 41 -1.5t17 -30.5q0 -23 -22 -36q-54 -32 -159 -32q-101 0 -161.5 58t-65.5 157q-4 64 1 120q8 96 68 151.5t153 55.5q98 0 156 -61q59 -61 59 -156zM156 296h266q12 0 13 12
q4 68 -33 110t-102 42q-71 0 -108.5 -43.5t-35.5 -120.5zM224 653l136 70q9 4 17 4q14 0 24 -10t10 -24q0 -20 -19 -30l-135 -70q-8 -5 -18 -5q-14 0 -23.5 10t-9.5 24q0 20 18 31z" />
    <glyph glyph-name="ecircumflex" unicode="&#xea;" horiz-adv-x="572" 
d="M514 316v-30q0 -58 -59 -58h-299v-16q0 -68 40.5 -107.5t108.5 -39.5q47 0 122 26q24 9 41 -1.5t17 -30.5q0 -23 -22 -36q-54 -32 -159 -32q-101 0 -161.5 58t-65.5 157q-4 64 1 120q8 96 68 151.5t153 55.5q98 0 156 -61q59 -61 59 -156zM156 296h266q12 0 13 12
q4 68 -33 110t-102 42q-71 0 -108.5 -43.5t-35.5 -120.5zM321 720l94 -70q15 -10 15 -28q0 -14 -10 -24t-24 -10q-12 0 -23 8l-81 61l-81 -61q-11 -8 -22 -8q-15 0 -24.5 10t-9.5 24q0 17 14 28l93 70q16 12 30 12q10 0 29 -12z" />
    <glyph glyph-name="edieresis" unicode="&#xeb;" horiz-adv-x="572" 
d="M514 316v-30q0 -58 -59 -58h-299v-16q0 -68 40.5 -107.5t108.5 -39.5q47 0 122 26q24 9 41 -1.5t17 -30.5q0 -23 -22 -36q-54 -32 -159 -32q-101 0 -161.5 58t-65.5 157q-4 64 1 120q8 96 68 151.5t153 55.5q98 0 156 -61q59 -61 59 -156zM156 296h266q12 0 13 12
q4 68 -33 110t-102 42q-71 0 -108.5 -43.5t-35.5 -120.5zM218 689q29 0 41 -28t-9 -49t-49 -9t-28 41q0 20 12.5 32.5t32.5 12.5zM376 689q20 0 32.5 -12.5t12.5 -32.5q0 -29 -28 -41t-49 9t-9 49t41 28z" />
    <glyph glyph-name="igrave" unicode="&#xec;" horiz-adv-x="273" 
d="M58 723l135 -70q19 -10 19 -31q0 -14 -10 -24t-24 -10q-8 0 -20 6l-133 69q-18 11 -18 30q0 14 9.5 24t23.5 10q9 0 18 -4zM177 484v-447q0 -17 -11.5 -29t-29.5 -12q-17 0 -28.5 12t-11.5 29v447q0 17 11.5 29.5t28.5 12.5t29 -12.5t12 -29.5z" />
    <glyph glyph-name="iacute" unicode="&#xed;" horiz-adv-x="273" 
d="M82 653l136 70q9 4 17 4q14 0 24 -10t10 -24q0 -20 -19 -30l-135 -70q-8 -5 -18 -5q-14 0 -23.5 10t-9.5 24q0 20 18 31zM177 484v-447q0 -17 -11.5 -29t-29.5 -12q-17 0 -28.5 12t-11.5 29v447q0 17 11.5 29.5t28.5 12.5t29 -12.5t12 -29.5z" />
    <glyph glyph-name="icircumflex" unicode="&#xee;" horiz-adv-x="273" 
d="M177 484v-447q0 -17 -11.5 -29t-29.5 -12q-17 0 -28.5 12t-11.5 29v447q0 17 11.5 29.5t28.5 12.5t29 -12.5t12 -29.5zM170 720l94 -70q15 -10 15 -28q0 -14 -10 -24t-24 -10q-12 0 -23 8l-81 61l-81 -61q-11 -8 -22 -8q-15 0 -24.5 10t-9.5 24q0 17 14 28l93 70
q17 12 30 12q9 0 29 -12z" />
    <glyph glyph-name="idieresis" unicode="&#xef;" horiz-adv-x="273" 
d="M62 689q29 0 41 -28t-9 -49t-49 -9t-28 41q0 20 12.5 32.5t32.5 12.5zM220 689q20 0 32.5 -12.5t12.5 -32.5q0 -29 -28 -41t-49 9t-9 49t41 28zM177 484v-447q0 -17 -11.5 -29t-29.5 -12q-17 0 -28.5 12t-11.5 29v447q0 17 11.5 29.5t28.5 12.5t29 -12.5t12 -29.5z" />
    <glyph glyph-name="eth" unicode="&#xf0;" horiz-adv-x="596" 
d="M287 615l39 18l-23 13q-17 9 -21.5 27t5.5 30q8 12 23 15.5t29 -3.5q44 -24 68 -46l57 26q13 7 27.5 1.5t20.5 -19.5t0.5 -27.5t-18.5 -19.5l-35 -16q53 -77 53 -208l-1 -203q0 -95 -63 -153q-62 -59 -155 -59q-88 0 -150 56q-61 55 -67 141q-3 59 0 119q6 87 66 139
q60 54 150 54q83 0 140 -54q0 83 -44 136l-71 -32q-14 -7 -29 -2t-20 18q-6 14 -0.5 28t19.5 21zM293 422q-57 0 -93.5 -33.5t-40.5 -87.5q-5 -66 0 -108q5 -55 41.5 -89.5t92.5 -34.5q57 0 93.5 34t41.5 90q4 42 0 108q-4 55 -40 88t-95 33z" />
    <glyph glyph-name="ntilde" unicode="&#xf1;" 
d="M525 329v-291q0 -18 -11 -30t-29 -12q-17 0 -29 12t-12 30v287q0 63 -37 97t-97 34q-82 0 -138 -33v-385q0 -18 -11.5 -30t-28.5 -12t-29 12t-12 30v405q0 23 18 36q30 22 84 38t119 16q104 0 158.5 -52.5t54.5 -151.5zM415 687q15 0 24 -9.5t9 -24.5t-14 -27
q-38 -34 -74 -34q-26 0 -62 18t-50 18t-31 -14q-16 -13 -28 -13q-15 0 -24 9.5t-9 24.5q0 13 14 27q38 34 75 34q27 0 62 -18q34 -18 49 -18q14 0 30 13q17 14 29 14z" />
    <glyph glyph-name="ograve" unicode="&#xf2;" horiz-adv-x="592" 
d="M523 335q4 -72 0 -142q-4 -88 -68 -145q-61 -57 -155 -57q-92 0 -155 57q-64 57 -68 145q-4 70 0 142q4 86 67 142q64 56 156 56q94 0 155 -55q64 -56 68 -143zM158 329q-5 -66 0 -131q5 -59 43.5 -95t98.5 -36t98.5 36t43.5 95q5 65 0 131q-4 58 -42 93t-100 35
t-100 -35t-42 -93zM240 723l135 -70q19 -10 19 -31q0 -14 -10 -24t-24 -10q-8 0 -20 6l-133 69q-18 11 -18 30q0 14 9.5 24t23.5 10q9 0 18 -4z" />
    <glyph glyph-name="oacute" unicode="&#xf3;" horiz-adv-x="592" 
d="M523 335q4 -72 0 -142q-4 -88 -68 -145q-61 -57 -155 -57q-92 0 -155 57q-64 57 -68 145q-4 70 0 142q4 86 67 142q64 56 156 56q94 0 155 -55q64 -56 68 -143zM158 329q-5 -66 0 -131q5 -59 43.5 -95t98.5 -36t98.5 36t43.5 95q5 65 0 131q-4 58 -42 93t-100 35
t-100 -35t-42 -93zM214 653l136 70q9 4 17 4q14 0 24 -10t10 -24q0 -20 -19 -30l-135 -70q-8 -5 -18 -5q-14 0 -23.5 10t-9.5 24q0 20 18 31z" />
    <glyph glyph-name="ocircumflex" unicode="&#xf4;" horiz-adv-x="592" 
d="M523 335q4 -72 0 -142q-4 -88 -68 -145q-61 -57 -155 -57q-92 0 -155 57q-64 57 -68 145q-4 70 0 142q4 86 67 142q64 56 156 56q94 0 155 -55q64 -56 68 -143zM158 329q-5 -66 0 -131q5 -59 43.5 -95t98.5 -36t98.5 36t43.5 95q5 65 0 131q-4 58 -42 93t-100 35
t-100 -35t-42 -93zM325 719l94 -70q15 -11 15 -28q0 -14 -10 -24t-24 -10q-12 0 -23 8l-81 61l-81 -61q-11 -8 -22 -8q-15 0 -24.5 10t-9.5 24q0 17 14 28l93 70q16 12 30 12q10 0 29 -12z" />
    <glyph glyph-name="otilde" unicode="&#xf5;" horiz-adv-x="592" 
d="M523 335q4 -72 0 -142q-4 -88 -68 -145q-61 -57 -155 -57q-92 0 -155 57q-64 57 -68 145q-4 70 0 142q4 86 67 142q64 56 156 56q94 0 155 -55q64 -56 68 -143zM158 329q-5 -66 0 -131q5 -59 43.5 -95t98.5 -36t98.5 36t43.5 95q5 65 0 131q-4 58 -42 93t-100 35
t-100 -35t-42 -93zM412 687q15 0 24 -9.5t9 -24.5t-14 -27q-38 -34 -74 -34q-25 0 -62 18q-38 18 -50 18q-14 0 -31 -14q-16 -13 -28 -13q-15 0 -24 9.5t-9 24.5q0 13 14 27q38 34 75 34q28 0 62 -18q35 -18 49 -18t30 13q17 14 29 14z" />
    <glyph glyph-name="odieresis" unicode="&#xf6;" horiz-adv-x="592" 
d="M523 335q4 -72 0 -142q-4 -88 -68 -145q-61 -57 -155 -57q-92 0 -155 57q-64 57 -68 145q-4 70 0 142q4 86 67 142q64 56 156 56q94 0 155 -55q64 -56 68 -143zM158 329q-5 -66 0 -131q5 -59 43.5 -95t98.5 -36t98.5 36t43.5 95q5 65 0 131q-4 58 -42 93t-100 35
t-100 -35t-42 -93zM172 644q0 20 13 32.5t32 12.5t32 -13t13 -32q2 -27 -21.5 -38.5t-47 0t-21.5 38.5zM420 644q2 -27 -21.5 -38.5t-47 0t-21.5 38.5q0 19 13 32t32 13t32 -12.5t13 -32.5z" />
    <glyph glyph-name="divide" unicode="&#xf7;" horiz-adv-x="628" 
d="M527 311h-426q-17 0 -29 11.5t-12 27.5q0 17 12 28.5t29 11.5h426q17 0 29 -11.5t12 -28.5q0 -16 -12 -27.5t-29 -11.5zM261 537q0 21 15.5 36.5t37.5 15.5q21 0 37 -15.5t16 -36.5q0 -22 -16 -37.5t-37 -15.5q-22 0 -37.5 15.5t-15.5 37.5zM261 164q0 22 15.5 37.5
t37.5 15.5q21 0 37 -15.5t16 -37.5q0 -21 -16 -36.5t-37 -15.5q-22 0 -37.5 15.5t-15.5 36.5z" />
    <glyph glyph-name="oslash" unicode="&#xf8;" horiz-adv-x="593" 
d="M296 533q85 0 144 -46l23 26q10 13 26 14t27 -9q12 -10 13 -26t-9 -28l-30 -34q26 -48 29 -95q4 -72 0 -142q-4 -88 -68 -145q-61 -57 -155 -57q-83 0 -144 47l-23 -27q-10 -12 -26 -13t-28 9q-11 10 -11.5 26t9.5 27l30 34q-27 44 -30 99q-4 70 0 142q4 86 67 142
q64 56 156 56zM296 457q-62 0 -100 -35t-42 -93q-5 -66 0 -131q1 -17 7 -36l228 265q-37 30 -93 30zM438 329q-2 17 -6 33l-229 -265q37 -30 93 -30q60 0 98.5 36t43.5 95q5 65 0 131z" />
    <glyph glyph-name="ugrave" unicode="&#xf9;" 
d="M84 195v289q0 17 11.5 29.5t28.5 12.5t29 -12.5t12 -29.5v-290q0 -59 35.5 -92.5t98.5 -33.5q83 0 138 37v379q0 17 11.5 29.5t28.5 12.5t29 -12.5t12 -29.5v-400q0 -22 -17 -33q-85 -60 -202 -60q-99 0 -157 54t-58 150zM250 723l135 -70q19 -10 19 -31q0 -14 -10 -24
t-24 -10q-8 0 -20 6l-133 69q-18 11 -18 30q0 14 9.5 24t23.5 10q9 0 18 -4z" />
    <glyph glyph-name="uacute" unicode="&#xfa;" 
d="M84 195v289q0 17 11.5 29.5t28.5 12.5t29 -12.5t12 -29.5v-290q0 -59 35.5 -92.5t98.5 -33.5q83 0 138 37v379q0 17 11.5 29.5t28.5 12.5t29 -12.5t12 -29.5v-400q0 -22 -17 -33q-85 -60 -202 -60q-99 0 -157 54t-58 150zM226 653l136 70q9 4 17 4q14 0 24 -10t10 -24
q0 -20 -19 -30l-135 -70q-8 -5 -18 -5q-14 0 -23.5 10t-9.5 24q0 20 18 31z" />
    <glyph glyph-name="ucircumflex" unicode="&#xfb;" 
d="M84 195v289q0 17 11.5 29.5t28.5 12.5t29 -12.5t12 -29.5v-290q0 -59 35.5 -92.5t98.5 -33.5q83 0 138 37v379q0 17 11.5 29.5t28.5 12.5t29 -12.5t12 -29.5v-400q0 -22 -17 -33q-85 -60 -202 -60q-99 0 -157 54t-58 150zM334 720l94 -70q15 -10 15 -28q0 -14 -10 -24
t-24 -10q-12 0 -23 8l-81 61l-81 -61q-11 -8 -22 -8q-15 0 -24.5 10t-9.5 24q0 17 14 28l93 70q17 12 30 12q9 0 29 -12z" />
    <glyph glyph-name="udieresis" unicode="&#xfc;" 
d="M84 195v289q0 17 11.5 29.5t28.5 12.5t29 -12.5t12 -29.5v-290q0 -59 35.5 -92.5t98.5 -33.5q83 0 138 37v379q0 17 11.5 29.5t28.5 12.5t29 -12.5t12 -29.5v-400q0 -22 -17 -33q-85 -60 -202 -60q-99 0 -157 54t-58 150zM182 644q0 20 13 32.5t32 12.5t32 -13t13 -32
q2 -27 -21.5 -38.5t-47 0t-21.5 38.5zM430 644q2 -27 -21.5 -38.5t-47 0t-21.5 38.5q0 19 13 32t32 13t32 -12.5t13 -32.5z" />
    <glyph glyph-name="yacute" unicode="&#xfd;" horiz-adv-x="512" 
d="M226 33l-190 434q-9 22 3 40t35 18q24 0 38 -29l155 -357q4 -7 8 0l141 354q12 32 40 32q23 0 35 -18.5t3 -39.5l-188 -456q-27 -65 -65.5 -117t-73.5 -73q-19 -12 -36 -12q-16 0 -28 10.5t-12 27.5q0 25 19 35q80 47 116 151zM222 654l136 70q9 4 17 4q14 0 24 -10
t10 -24q0 -20 -19 -30l-135 -70q-8 -5 -18 -5q-14 0 -23.5 10t-9.5 24q0 21 18 31z" />
    <glyph glyph-name="thorn" unicode="&#xfe;" horiz-adv-x="601" 
d="M527 190q-8 -96 -64.5 -147.5t-154.5 -51.5q-66 0 -135 32v-175q0 -18 -11.5 -30t-29.5 -12q-16 0 -28 12.5t-12 29.5v821q0 17 11.5 29t28.5 12t29 -12t12 -29v-167q71 31 141 31q95 0 150 -51.5t63 -147.5q6 -70 0 -144zM445 325q-11 132 -136 132q-34 0 -76 -14
q-41 -13 -60 -27v-312q58 -37 132 -37q133 0 140 127q5 75 0 131z" />
    <glyph glyph-name="ydieresis" unicode="&#xff;" horiz-adv-x="512" 
d="M226 33l-190 434q-9 22 3 40t35 18q24 0 38 -29l155 -357q4 -7 8 0l141 354q12 32 40 32q23 0 35 -18.5t3 -39.5l-188 -456q-27 -65 -65.5 -117t-73.5 -73q-19 -12 -36 -12q-16 0 -28 10.5t-12 27.5q0 25 19 35q80 47 116 151zM138 644q0 20 13 32.5t32 12.5t32 -13
t13 -32q2 -27 -21.5 -38.5t-47 0t-21.5 38.5zM386 644q2 -27 -21.5 -38.5t-47 0t-21.5 38.5q0 19 13 32t32 13t32 -12.5t13 -32.5z" />
    <glyph glyph-name="Amacron" unicode="&#x100;" horiz-adv-x="675" 
d="M650 41q0 -18 -11 -30t-29 -12q-28 0 -39 26l-74 209h-319l-74 -209q-11 -26 -39 -26q-18 0 -29 12t-11 30q0 8 2 14l208 580q28 76 103 76q77 0 102 -76l208 -580q2 -6 2 -14zM312 611l-106 -299h263l-105 299q-7 20 -26 20t-26 -20zM256 840h164q14 0 24 -10t10 -24
q0 -15 -10 -25t-24 -10h-164q-15 0 -25 10t-10 25q0 14 10 24t25 10z" />
    <glyph glyph-name="amacron" unicode="&#x101;" horiz-adv-x="562" 
d="M481 346v-266q0 -22 -17 -33q-23 -17 -83 -38q-55 -18 -121 -18q-95 0 -147.5 46t-52.5 124q0 72 53.5 117t147.5 45q62 0 140 -21v41q0 60 -30.5 87.5t-94.5 27.5q-49 0 -119 -26q-24 -9 -41 0.5t-17 30.5q0 26 26 38q67 32 159 32q95 0 146 -46.5t51 -140.5zM269 64
q95 0 132 37v131q-84 22 -139 22q-54 0 -87.5 -24.5t-33.5 -66.5q0 -99 128 -99zM202 677h164q14 0 24 -10t10 -24q0 -15 -10 -25t-24 -10h-164q-15 0 -25 10t-10 25q0 14 10 24t25 10z" />
    <glyph glyph-name="Abreve" unicode="&#x102;" horiz-adv-x="675" 
d="M650 41q0 -18 -11 -30t-29 -12q-28 0 -39 26l-74 209h-319l-74 -209q-11 -26 -39 -26q-18 0 -29 12t-11 30q0 8 2 14l208 580q28 76 103 76q77 0 102 -76l208 -580q2 -6 2 -14zM312 611l-106 -299h263l-105 299q-7 20 -26 20t-26 -20zM395 863q7 24 33 24q14 0 24 -10
t10 -24q0 -6 -3 -15q-12 -37 -45.5 -61.5t-75.5 -24.5t-75.5 24.5t-45.5 61.5q-3 9 -3 15q0 14 10 24t24 10q24 0 33 -24q5 -28 31 -39.5t52 0t31 39.5z" />
    <glyph glyph-name="abreve" unicode="&#x103;" horiz-adv-x="562" 
d="M481 346v-266q0 -22 -17 -33q-23 -17 -83 -38q-55 -18 -121 -18q-95 0 -147.5 46t-52.5 124q0 72 53.5 117t147.5 45q62 0 140 -21v41q0 60 -30.5 87.5t-94.5 27.5q-49 0 -119 -26q-24 -9 -41 0.5t-17 30.5q0 26 26 38q67 32 159 32q95 0 146 -46.5t51 -140.5zM269 64
q95 0 132 37v131q-84 22 -139 22q-54 0 -87.5 -24.5t-33.5 -66.5q0 -99 128 -99zM340 699q8 24 33 24q14 0 24 -10t10 -24q0 -6 -3 -15q-12 -37 -45.5 -61.5t-75.5 -24.5t-75.5 24.5t-45.5 61.5q-3 9 -3 15q0 14 10 24t24 10q24 0 33 -24q5 -28 31 -39.5t52 0t31 39.5z" />
    <glyph glyph-name="Aogonek" unicode="&#x104;" horiz-adv-x="701" 
d="M646 -122q12 0 21.5 -9t9.5 -21q0 -17 -14 -28q-35 -26 -82 -26t-79 31t-32 79q0 78 97 133l-70 197h-319l-74 -209q-11 -26 -39 -26q-18 0 -29 12t-11 30q0 8 2 14l208 580q28 76 103 76q77 0 102 -76l206 -575q15 -38 -23 -58q-86 -44 -86 -95q0 -23 14 -35.5t36 -12.5
q23 0 38 12q10 7 21 7zM312 611l-106 -299h263l-105 299q-7 20 -26 20t-26 -20z" />
    <glyph glyph-name="aogonek" unicode="&#x105;" horiz-adv-x="562" 
d="M454 34q-103 -48 -103 -124q0 -24 14.5 -38t36.5 -14q20 0 40 14q25 18 43 -6q8 -11 5.5 -24.5t-13.5 -21.5q-34 -26 -82 -26q-47 0 -79 31t-32 79q0 46 29 90q-25 -3 -53 -3q-95 0 -147.5 46t-52.5 124q0 72 53.5 117t147.5 45q61 0 139 -21v41q0 60 -30 87.5t-94 27.5
q-49 0 -119 -26q-24 -9 -41 0.5t-17 30.5q0 26 26 38q26 13 72.5 22.5t86.5 9.5q95 0 146 -46.5t51 -140.5v-276q0 -24 -27 -36zM141 163q0 -99 128 -99q84 0 131 29v139q-84 22 -138 22t-87.5 -24.5t-33.5 -66.5z" />
    <glyph glyph-name="Cacute" unicode="&#x106;" horiz-adv-x="662" 
d="M361 69q60 0 109 32.5t72 86.5q11 26 38 26q15 0 27 -12t12 -27q0 -7 -3 -18q-30 -75 -100 -121t-155 -46q-119 0 -198 79t-87 200q-6 83 0 162q9 119 87 199q80 80 198 80q85 0 155 -46q70 -45 100 -120q3 -10 3 -19q0 -15 -12 -26.5t-27 -11.5q-27 0 -38 26
q-23 54 -72 86t-109 32q-85 0 -140 -57t-63 -147q-5 -77 0 -154q8 -90 63 -147t140 -57zM296 817l136 70q9 4 17 4q14 0 24 -10t10 -24q0 -20 -19 -30l-135 -70q-8 -5 -18 -5q-14 0 -23.5 10t-9.5 24q0 20 18 31z" />
    <glyph glyph-name="cacute" unicode="&#x107;" horiz-adv-x="557" 
d="M302 67q42 0 76.5 22t51.5 63q12 27 39 27q16 0 27 -11.5t11 -29.5q0 -45 -57 -96q-56 -51 -149 -51q-96 0 -157 57q-63 60 -67 145q-5 71 0 142q4 87 67 143q62 55 157 55q93 0 148 -52q56 -51 56 -95q0 -18 -11 -29.5t-27 -11.5q-27 0 -39 27q-17 41 -50.5 63t-75.5 22
q-62 0 -100.5 -34.5t-43.5 -92.5q-4 -57 0 -132q5 -59 43.5 -95t100.5 -36zM229 653l136 70q9 4 17 4q14 0 24 -10t10 -24q0 -20 -19 -30l-135 -70q-8 -5 -18 -5q-14 0 -23.5 10t-9.5 24q0 20 18 31z" />
    <glyph glyph-name="Cdotaccent" unicode="&#x10a;" horiz-adv-x="662" 
d="M361 69q60 0 109 32.5t72 86.5q11 26 38 26q15 0 27 -12t12 -27q0 -7 -3 -18q-30 -75 -100 -121t-155 -46q-119 0 -198 79t-87 200q-6 83 0 162q9 119 87 199q80 80 198 80q85 0 155 -46q70 -45 100 -120q3 -10 3 -19q0 -15 -12 -26.5t-27 -11.5q-27 0 -38 26
q-23 54 -72 86t-109 32q-85 0 -140 -57t-63 -147q-5 -77 0 -154q8 -90 63 -147t140 -57zM321 838q13 13 32 13t32 -13t13 -32t-13 -32t-32 -13t-32 13t-13 32t13 32z" />
    <glyph glyph-name="cdotaccent" unicode="&#x10b;" horiz-adv-x="557" 
d="M302 67q42 0 76.5 22t51.5 63q12 27 39 27q16 0 27 -11.5t11 -29.5q0 -45 -57 -96q-56 -51 -149 -51q-96 0 -157 57q-63 60 -67 145q-5 71 0 142q4 87 67 143q62 55 157 55q93 0 148 -52q56 -51 56 -95q0 -18 -11 -29.5t-27 -11.5q-27 0 -39 27q-17 41 -50.5 63t-75.5 22
q-62 0 -100.5 -34.5t-43.5 -92.5q-4 -57 0 -132q5 -59 43.5 -95t100.5 -36zM262 676q13 13 32 13t32 -13t13 -32t-13 -32t-32 -13t-32 13t-13 32t13 32z" />
    <glyph glyph-name="Ccaron" unicode="&#x10c;" horiz-adv-x="662" 
d="M361 69q60 0 109 32.5t72 86.5q11 26 38 26q15 0 27 -12t12 -27q0 -7 -3 -18q-30 -75 -100 -121t-155 -46q-119 0 -198 79t-87 200q-6 83 0 162q9 119 87 199q80 80 198 80q85 0 155 -46q70 -45 100 -120q3 -10 3 -19q0 -15 -12 -26.5t-27 -11.5q-27 0 -38 26
q-23 54 -72 86t-109 32q-85 0 -140 -57t-63 -147q-5 -77 0 -154q8 -90 63 -147t140 -57zM470 834l-94 -70q-19 -12 -29 -12q-13 0 -30 12l-93 70q-14 11 -14 28q0 14 9.5 24t24.5 10q11 0 22 -8l81 -61l81 61q11 8 23 8q14 0 24 -10t10 -24q0 -18 -15 -28z" />
    <glyph glyph-name="ccaron" unicode="&#x10d;" horiz-adv-x="557" 
d="M302 67q42 0 76.5 22t51.5 63q12 27 39 27q16 0 27 -11.5t11 -29.5q0 -45 -57 -96q-56 -51 -149 -51q-96 0 -157 57q-63 60 -67 145q-5 71 0 142q4 87 67 143q62 55 157 55q93 0 148 -52q56 -51 56 -95q0 -18 -11 -29.5t-27 -11.5q-27 0 -39 27q-17 41 -50.5 63t-75.5 22
q-62 0 -100.5 -34.5t-43.5 -92.5q-4 -57 0 -132q5 -59 43.5 -95t100.5 -36zM414 670l-94 -70q-19 -12 -29 -12q-13 0 -30 12l-93 70q-14 11 -14 28q0 14 9.5 24t24.5 10q11 0 22 -8l81 -61l81 61q11 8 23 8q14 0 24 -10t10 -24q0 -18 -15 -28z" />
    <glyph glyph-name="Dcaron" unicode="&#x10e;" horiz-adv-x="719" 
d="M568 298q3 55 0 104q-5 105 -63.5 162.5t-168.5 57.5h-154v-543h154q109 0 167.5 57t64.5 162zM336 0h-167q-32 0 -50.5 19t-18.5 49v565q0 30 18.5 49t50.5 19h167q147 0 226 -81q81 -82 88 -215q3 -57 0 -109q-7 -133 -88 -215q-79 -81 -226 -81zM471 834l-94 -70
q-19 -12 -29 -12q-14 0 -30 12l-93 70q-14 11 -14 28q0 14 9.5 24t24.5 10q11 0 22 -8l81 -61l81 61q11 8 23 8q14 0 24 -10t10 -24q0 -18 -15 -28z" />
    <glyph glyph-name="dcaron" unicode="&#x10f;" horiz-adv-x="631" 
d="M80 334q8 96 62.5 147.5t147.5 51.5q71 0 144 -32v168q0 17 12 29.5t28 12.5q18 0 29.5 -12t11.5 -30v-585q0 -21 -17 -33q-26 -19 -82 -40q-57 -20 -115 -20q-97 0 -155 53.5t-66 148.5q-6 71 0 141zM161 199q12 -132 141 -132q35 0 74 13q37 12 58 28v314
q-61 35 -141 35q-123 0 -132 -127q-4 -61 0 -131zM642 575q-15 -25 -38 -25q-16 0 -27 10.5t-11 24.5q0 10 13 35q14 26 14 54v22q0 17 11 28.5t27 11.5q17 0 28 -11.5t11 -28.5v-20q0 -52 -28 -101z" />
    <glyph glyph-name="Dcroat" unicode="&#x110;" horiz-adv-x="718" 
d="M335 0h-166q-32 0 -50.5 19t-18.5 49v241h-65q-17 0 -27.5 11t-10.5 28q0 16 10.5 27t27.5 11h65v247q0 31 18.5 49.5t50.5 18.5h166q148 0 227 -81t87 -215q3 -55 0 -109q-8 -134 -87 -215t-227 -81zM182 309v-230h153q110 0 169 57t64 162q3 52 0 105q-5 105 -64 162
t-169 57h-153v-236h157q17 0 28 -11t11 -27q0 -17 -11 -28t-28 -11h-157z" />
    <glyph glyph-name="dslash" unicode="&#x111;" horiz-adv-x="602" 
d="M80 334q8 96 62.5 147.5t147.5 51.5q71 0 144 -32v77h-97q-24 -1 -34 18.5t0 39t34 17.5h97v18q0 15 11.5 27t28.5 12q18 0 29.5 -11.5t11.5 -27.5v-18h22q16 0 27.5 -10.5t11.5 -26.5q0 -17 -11.5 -27.5t-27.5 -10.5h-22v-494q0 -21 -17 -33q-33 -22 -83 -40
q-55 -20 -114 -20q-97 0 -155 53.5t-66 148.5q-6 71 0 141zM161 199q12 -132 141 -132q35 0 74 13q37 12 58 28v314q-61 35 -141 35q-123 0 -132 -128q-4 -60 0 -130z" />
    <glyph glyph-name="Emacron" unicode="&#x112;" horiz-adv-x="625" 
d="M170 701h345q17 0 29 -11.5t12 -28.5q0 -16 -12.5 -27.5t-28.5 -11.5h-333v-230h324q17 0 28.5 -11t11.5 -28q0 -16 -12 -27.5t-28 -11.5h-324v-235h335q16 0 28.5 -11.5t12.5 -27.5q0 -17 -12 -28.5t-29 -11.5h-347q-32 0 -51 19t-19 49v565q0 31 19 49.5t51 18.5z
M252 840h164q14 0 24 -10t10 -24q0 -15 -10 -25t-24 -10h-164q-15 0 -25 10t-10 25q0 14 10 24t25 10z" />
    <glyph glyph-name="emacron" unicode="&#x113;" horiz-adv-x="572" 
d="M514 316v-30q0 -58 -59 -58h-299v-16q0 -68 40.5 -107.5t108.5 -39.5q47 0 122 26q24 9 41 -1.5t17 -30.5q0 -23 -22 -36q-54 -32 -159 -32q-101 0 -161.5 58t-65.5 157q-4 64 1 120q8 96 68 151.5t153 55.5q98 0 156 -61q59 -61 59 -156zM156 296h266q12 0 13 12
q4 68 -33 110t-102 42q-71 0 -108.5 -43.5t-35.5 -120.5zM205 678h164q14 0 24 -10t10 -24q0 -15 -10 -25t-24 -10h-164q-15 0 -25 10t-10 25q0 14 10 24t25 10z" />
    <glyph glyph-name="Edotaccent" unicode="&#x116;" horiz-adv-x="625" 
d="M170 701h345q17 0 29 -11.5t12 -28.5q0 -16 -12.5 -27.5t-28.5 -11.5h-333v-230h324q17 0 28.5 -11t11.5 -28q0 -16 -12 -27.5t-28 -11.5h-324v-235h335q16 0 28.5 -11.5t12.5 -27.5q0 -17 -12 -28.5t-29 -11.5h-347q-32 0 -51 19t-19 49v565q0 31 19 49.5t51 18.5z
M310 838q13 13 32 13t32 -13t13 -32t-13 -32t-32 -13t-32 13t-13 32t13 32z" />
    <glyph glyph-name="edotaccent" unicode="&#x117;" horiz-adv-x="572" 
d="M514 316v-30q0 -58 -59 -58h-299v-16q0 -68 40.5 -107.5t108.5 -39.5q47 0 122 26q24 9 41 -1.5t17 -30.5q0 -23 -22 -36q-54 -32 -159 -32q-101 0 -161.5 58t-65.5 157q-4 64 1 120q8 96 68 151.5t153 55.5q98 0 156 -61q59 -61 59 -156zM156 296h266q12 0 13 12
q4 68 -33 110t-102 42q-71 0 -108.5 -43.5t-35.5 -120.5zM255 675q13 13 32 13t32 -13t13 -32t-13 -32t-32 -13t-32 13t-13 32t13 32z" />
    <glyph glyph-name="Eogonek" unicode="&#x118;" horiz-adv-x="632" 
d="M420 0h-250q-32 0 -51 19t-19 49v565q0 31 19 49.5t51 18.5h345q17 0 29 -11.5t12 -28.5q0 -16 -12.5 -27.5t-28.5 -11.5h-333v-230h324q17 0 28.5 -11t11.5 -28q0 -16 -12 -27t-28 -11h-324v-236h335q16 0 28.5 -11.5t12.5 -27.5q0 -28 -28 -37q-45 -15 -74 -42t-29 -56
q0 -22 13 -34t34 -12q24 0 41 13q26 19 44 -6q7 -11 5 -24.5t-13 -21.5q-35 -26 -83 -26q-46 0 -76.5 29.5t-30.5 75.5q0 63 59 101z" />
    <glyph glyph-name="eogonek" unicode="&#x119;" horiz-adv-x="573" 
d="M514 317v-31q0 -58 -59 -58h-299v-16q0 -69 40 -108t109 -39q50 0 122 26q24 9 41 -1.5t17 -30.5q0 -26 -26 -38q-112 -54 -112 -115q0 -22 13.5 -34.5t34.5 -12.5q20 0 39 13q25 18 43 -6q19 -26 -12 -48q-30 -24 -78 -24q-46 0 -77.5 30t-31.5 75q0 49 44 93
q-107 -7 -174 52q-66 59 -71 163q-4 62 1 120q7 94 68 150q62 56 154 56q96 0 155 -60q59 -61 59 -156zM156 296h266q12 0 13 12q5 68 -33 110t-102 42q-71 0 -108.5 -43.5t-35.5 -120.5z" />
    <glyph glyph-name="Ecaron" unicode="&#x11a;" horiz-adv-x="625" 
d="M170 701h345q17 0 29 -11.5t12 -28.5q0 -16 -12.5 -27.5t-28.5 -11.5h-333v-230h324q17 0 28.5 -11t11.5 -28q0 -16 -12 -27.5t-28 -11.5h-324v-235h335q16 0 28.5 -11.5t12.5 -27.5q0 -17 -12 -28.5t-29 -11.5h-347q-32 0 -51 19t-19 49v565q0 31 19 49.5t51 18.5z
M465 834l-94 -70q-20 -12 -29 -12q-14 0 -30 12l-93 70q-14 11 -14 28q0 14 9.5 24t24.5 10q11 0 22 -8l81 -61l81 61q11 8 23 8q14 0 24 -10t10 -24q0 -18 -15 -28z" />
    <glyph glyph-name="ecaron" unicode="&#x11b;" horiz-adv-x="572" 
d="M514 316v-30q0 -58 -59 -58h-299v-16q0 -68 40.5 -107.5t108.5 -39.5q47 0 122 26q24 9 41 -1.5t17 -30.5q0 -23 -22 -36q-54 -32 -159 -32q-101 0 -161.5 58t-65.5 157q-4 64 1 120q8 96 68 151.5t153 55.5q98 0 156 -61q59 -61 59 -156zM156 296h266q12 0 13 12
q4 68 -33 110t-102 42q-71 0 -108.5 -43.5t-35.5 -120.5zM415 669l-94 -70q-20 -12 -29 -12q-14 0 -30 12l-93 70q-14 11 -14 28q0 14 9.5 24t24.5 10q11 0 22 -8l81 -61l81 61q11 8 23 8q14 0 24 -10t10 -24q0 -17 -15 -28z" />
    <glyph glyph-name="Gbreve" unicode="&#x11e;" horiz-adv-x="701" 
d="M639 306v-66q0 -104 -76 -177t-195 -73q-120 0 -202 79t-90 200q-6 83 0 162q9 120 91 199q83 80 201 80q84 0 151 -41t102 -113q4 -7 4 -20q0 -16 -12 -28t-29 -12q-23 0 -36 22q-26 54 -72.5 83.5t-106.5 29.5q-87 0 -145 -57t-66 -147q-6 -79 0 -154q8 -89 66 -147
q58 -57 145 -57q83 0 136 45q53 47 53 117v62h-143q-17 0 -29.5 12t-12.5 28q0 17 12.5 28.5t29.5 11.5h155q32 0 50.5 -18.5t18.5 -48.5zM417 863q7 24 33 24q14 0 24 -10t10 -24q0 -6 -3 -15q-12 -37 -45.5 -61.5t-75.5 -24.5t-75.5 24.5t-45.5 61.5q-3 9 -3 15
q0 14 10 24t24 10q24 0 33 -24q5 -28 31 -39.5t52 0t31 39.5z" />
    <glyph glyph-name="gbreve" unicode="&#x11f;" horiz-adv-x="600" 
d="M512 436v-390q0 -109 -61 -170.5t-164 -61.5q-91 0 -158 42q-35 23 -35 43q0 15 10 26.5t28 11.5q17 0 43 -16q56 -32 112 -32q62 0 103 38t41 102v10q-71 -34 -147 -34q-92 0 -146.5 53t-60.5 146q-5 63 0 126q6 94 63.5 148.5t154.5 54.5q59 0 117 -20q59 -20 83 -37
q17 -14 17 -40zM298 456q-128 0 -140 -131q-5 -51 0 -116q9 -129 134 -129q43 0 82.5 12.5t56.5 28.5v299q0 2 -17.5 10t-50.5 17t-65 9zM356 699q8 24 33 24q14 0 24 -10t10 -24q0 -6 -3 -15q-12 -37 -45.5 -61.5t-75.5 -24.5t-75.5 24.5t-45.5 61.5q-3 9 -3 15q0 14 10 24
t24 10q24 0 33 -24q5 -28 31 -39.5t52 0t31 39.5z" />
    <glyph glyph-name="Gdotaccent" unicode="&#x120;" horiz-adv-x="701" 
d="M639 306v-66q0 -104 -76 -177t-195 -73q-120 0 -202 79t-90 200q-6 83 0 162q9 120 91 199q83 80 201 80q84 0 151 -41t102 -113q4 -7 4 -20q0 -16 -12 -28t-29 -12q-23 0 -36 22q-26 54 -72.5 83.5t-106.5 29.5q-87 0 -145 -57t-66 -147q-6 -79 0 -154q8 -89 66 -147
q58 -57 145 -57q83 0 136 45q53 47 53 117v62h-143q-17 0 -29.5 12t-12.5 28q0 17 12.5 28.5t29.5 11.5h155q32 0 50.5 -18.5t18.5 -48.5zM328 837q13 13 32 13t32 -13t13 -32t-13 -32t-32 -13t-32 13t-13 32t13 32z" />
    <glyph glyph-name="gdotaccent" unicode="&#x121;" horiz-adv-x="600" 
d="M512 436v-390q0 -109 -61 -170.5t-164 -61.5q-91 0 -158 42q-35 23 -35 43q0 15 10 26.5t28 11.5q17 0 43 -16q56 -32 112 -32q62 0 103 38t41 102v10q-71 -34 -147 -34q-92 0 -146.5 53t-60.5 146q-5 63 0 126q6 94 63.5 148.5t154.5 54.5q59 0 117 -20q59 -20 83 -37
q17 -14 17 -40zM298 456q-128 0 -140 -131q-5 -51 0 -116q9 -129 134 -129q43 0 82.5 12.5t56.5 28.5v299q0 2 -17.5 10t-50.5 17t-65 9zM267 676q13 13 32 13t32 -13t13 -32t-13 -32t-32 -13t-32 13t-13 32t13 32z" />
    <glyph glyph-name="Gcommaaccent" unicode="&#x122;" horiz-adv-x="701" 
d="M639 306v-66q0 -104 -76 -177t-195 -73q-120 0 -202 79t-90 200q-6 83 0 162q9 120 91 199q83 80 201 80q84 0 151 -41t102 -113q4 -7 4 -20q0 -16 -12 -28t-29 -12q-23 0 -36 22q-26 54 -72.5 83.5t-106.5 29.5q-87 0 -145 -57t-66 -147q-6 -79 0 -154q8 -89 66 -147
q58 -57 145 -57q83 0 136 45q53 47 53 117v62h-143q-17 0 -29.5 12t-12.5 28q0 17 12.5 28.5t29.5 11.5h155q32 0 50.5 -18.5t18.5 -48.5zM400 -70v-29q0 -50 -25 -96q-16 -28 -43 -28q-15 0 -26 11t-11 26q0 2 11.5 33t11.5 57v26q0 17 12 28.5t29 11.5t29 -12t12 -28z" />
    <glyph glyph-name="gcommaaccent" unicode="&#x123;" horiz-adv-x="600" 
d="M512 436v-390q0 -109 -61 -170.5t-164 -61.5q-91 0 -158 42q-35 23 -35 43q0 15 10 26.5t28 11.5q17 0 43 -16q56 -32 112 -32q62 0 103 38t41 102v10q-71 -34 -147 -34q-92 0 -146.5 53t-60.5 146q-5 63 0 126q6 94 63.5 148.5t154.5 54.5q59 0 117 -20q59 -20 83 -37
q17 -14 17 -40zM298 456q-128 0 -140 -131q-5 -51 0 -116q9 -129 134 -129q43 0 82.5 12.5t56.5 28.5v299q0 2 -17.5 10t-50.5 17t-65 9zM360 735v-29q0 -50 -25 -96q-16 -28 -43 -28q-15 0 -26 11t-11 26q0 3 11.5 33t11.5 57v26q0 17 12 28.5t29 11.5t29 -12t12 -28z" />
    <glyph glyph-name="Imacron" unicode="&#x12a;" horiz-adv-x="282" 
d="M99 38v625q0 17 12 29.5t29 12.5q18 0 29.5 -12t11.5 -30v-625q0 -18 -11.5 -30t-29.5 -12q-17 0 -29 12.5t-12 29.5zM59 840h164q14 0 24 -10t10 -24q0 -15 -10 -25t-24 -10h-164q-15 0 -25 10t-10 25q0 14 10 24t25 10z" />
    <glyph glyph-name="imacron" unicode="&#x12b;" horiz-adv-x="273" 
d="M56 678h164q14 0 24 -10t10 -24q0 -15 -10 -25t-24 -10h-164q-15 0 -25 10t-10 25q0 14 10 24t25 10zM177 484v-447q0 -17 -11.5 -29t-29.5 -12q-17 0 -28.5 12t-11.5 29v447q0 17 11.5 29.5t28.5 12.5t29 -12.5t12 -29.5z" />
    <glyph glyph-name="Iogonek" unicode="&#x12e;" horiz-adv-x="283" 
d="M100 33v630q0 17 12 29.5t29 12.5q18 0 29.5 -12t11.5 -30v-621q0 -31 -22 -41q-80 -39 -80 -94q0 -23 14 -35.5t36 -12.5q19 0 38 13q10 8 22.5 6.5t20.5 -12.5q19 -26 -12 -48q-30 -24 -76 -24t-78 31t-32 79q0 80 87 129z" />
    <glyph glyph-name="iogonek" unicode="&#x12f;" horiz-adv-x="273" 
d="M96 34v450q0 18 11.5 30t28.5 12q16 0 28.5 -12t12.5 -29v-444q0 -29 -21 -40q-76 -39 -76 -94q0 -34 30.5 -45t56.5 10q26 19 44 -6q18 -26 -13 -48q-30 -24 -76 -24t-77.5 31t-31.5 79q0 77 83 130zM171 692q15 -14 15 -35t-15 -36q-14 -15 -35 -15t-35 15t-14 36
t14 35q14 15 35 15t35 -15z" />
    <glyph glyph-name="Idot" unicode="&#x130;" horiz-adv-x="282" 
d="M99 38v625q0 17 12 29.5t29 12.5q18 0 29.5 -12t11.5 -30v-625q0 -18 -11.5 -30t-29.5 -12q-17 0 -29 12.5t-12 29.5zM109 838q13 13 32 13t32 -13t13 -32t-13 -32t-32 -13t-32 13t-13 32t13 32z" />
    <glyph glyph-name="dotlessi" unicode="&#x131;" horiz-adv-x="273" 
d="M177 484v-447q0 -17 -11.5 -29t-29.5 -12q-17 0 -28.5 12t-11.5 29v447q0 17 11.5 29.5t28.5 12.5t29 -12.5t12 -29.5z" />
    <glyph glyph-name="Kcommaaccent" unicode="&#x136;" horiz-adv-x="629" 
d="M605 38q0 -27 -24.5 -37.5t-43.5 8.5l-292 282q-15 15 -27 19t-36 4v-276q0 -18 -11.5 -30t-29.5 -12q-16 0 -28.5 12.5t-12.5 29.5v625q0 17 12 29.5t29 12.5q18 0 29.5 -12t11.5 -30v-269q38 0 63 24l285 273q12 13 30 13q25 0 35 -25t-8 -43l-294 -279l300 -290
q12 -14 12 -29zM370 -132v-29q0 -50 -25 -96q-16 -28 -43 -28q-15 0 -26 11t-11 26q0 2 11.5 33t11.5 57v26q0 17 12 28.5t29 11.5t29 -12t12 -28z" />
    <glyph glyph-name="kcommaaccent" unicode="&#x137;" horiz-adv-x="531" 
d="M463 528q16 0 27.5 -12t11.5 -28q0 -17 -12 -29l-197 -189l200 -203q28 -30 2 -59q-11 -12 -29 -11.5t-29 12.5l-191 196q-24 24 -55 24h-18v-191q0 -18 -11.5 -30t-29.5 -12q-16 0 -28 12.5t-12 29.5v631q0 17 11.5 29t28.5 12t29 -12t12 -29v-361h17q33 0 56 23
l187 184q12 13 30 13zM326 -70v-29q0 -50 -25 -96q-16 -28 -43 -28q-15 0 -26 11t-11 26q0 2 11.5 33t11.5 57v26q0 17 12 28.5t29 11.5t29 -12t12 -28z" />
    <glyph glyph-name="Lacute" unicode="&#x139;" horiz-adv-x="566" 
d="M101 65v598q0 17 12 29.5t29 12.5q18 0 29.5 -12t11.5 -30v-584h327q17 0 29.5 -11.5t12.5 -27.5q0 -18 -12 -29t-30 -11h-342q-30 0 -48.5 18.5t-18.5 46.5zM128 819l136 70q9 4 17 4q14 0 24 -10t10 -24q0 -20 -19 -30l-135 -70q-8 -5 -18 -5q-14 0 -23.5 10t-9.5 24
q0 20 18 31z" />
    <glyph glyph-name="lacute" unicode="&#x13a;" horiz-adv-x="273" 
d="M54 818l136 70q9 4 17 4q14 0 24 -10t10 -24q0 -20 -19 -30l-135 -70q-8 -5 -18 -5q-14 0 -23.5 10t-9.5 24q0 21 18 31zM177 669v-631q0 -18 -11.5 -30t-29.5 -12q-17 0 -28.5 12t-11.5 30v631q0 17 11.5 29t28.5 12t29 -12t12 -29z" />
    <glyph glyph-name="Lcommaaccent" unicode="&#x13b;" horiz-adv-x="565" 
d="M100 65v598q0 17 12 29.5t29 12.5q18 0 29.5 -12t11.5 -30v-584h327q17 0 29.5 -11.5t12.5 -27.5q0 -18 -12 -29t-30 -11h-342q-30 0 -48.5 18.5t-18.5 46.5zM367 -132v-29q0 -50 -25 -96q-16 -28 -43 -28q-15 0 -26 11t-11 26q0 2 11.5 33t11.5 57v26q0 17 12 28.5
t29 11.5t29 -12t12 -28z" />
    <glyph glyph-name="lcommaaccent" unicode="&#x13c;" horiz-adv-x="296" 
d="M198 -70v-29q0 -50 -25 -96q-16 -28 -43 -28q-15 0 -26 11t-11 26q0 2 11.5 33t11.5 57v26q0 17 12 28.5t29 11.5t29 -12t12 -28zM200 669v-631q0 -18 -11.5 -30t-29.5 -12q-17 0 -28.5 12t-11.5 30v631q0 17 11.5 29t28.5 12t29 -12t12 -29z" />
    <glyph glyph-name="Lcaron" unicode="&#x13d;" horiz-adv-x="565" 
d="M100 65v598q0 17 12 29.5t29 12.5q18 0 29.5 -12t11.5 -30v-584h327q17 0 29.5 -11.5t12.5 -27.5q0 -18 -12 -29t-30 -11h-342q-30 0 -48.5 18.5t-18.5 46.5zM368 574q-15 -25 -38 -25q-16 0 -27 10.5t-11 24.5q0 10 13 35q14 26 14 54v22q0 17 11 28.5t27 11.5
q17 0 28 -11.5t11 -28.5v-20q0 -52 -28 -101z" />
    <glyph glyph-name="lcaron" unicode="&#x13e;" horiz-adv-x="308" 
d="M319 575q-15 -25 -38 -25q-16 0 -27 10.5t-11 24.5q0 10 13 35q14 26 14 54v22q0 17 11 28.5t27 11.5q17 0 28 -11.5t11 -28.5v-20q0 -52 -28 -101zM173 669v-631q0 -18 -11.5 -30t-29.5 -12q-17 0 -28.5 12t-11.5 30v631q0 17 11.5 29t28.5 12t29 -12t12 -29z" />
    <glyph glyph-name="Lslash" unicode="&#x141;" horiz-adv-x="565" 
d="M104 65v203l-43 -26q-14 -9 -30 -5.5t-24 17.5t-4.5 29.5t17.5 24.5l84 52v303q0 17 12 29.5t29 12.5t29 -12.5t12 -29.5v-253l95 59q14 9 29.5 5t24.5 -18q8 -14 4.5 -29.5t-17.5 -23.5l-136 -85v-239h327q17 0 29.5 -11.5t12.5 -27.5q0 -18 -12 -29t-30 -11h-343
q-30 0 -48 18.5t-18 46.5z" />
    <glyph glyph-name="lslash" unicode="&#x142;" horiz-adv-x="322" 
d="M206 669v-232l44 28q13 8 28.5 5.5t23.5 -15.5t4 -28.5t-16 -23.5l-84 -55v-310q0 -18 -11.5 -30t-29.5 -12q-17 0 -28.5 12t-11.5 30v258l-44 -28q-13 -8 -28 -4.5t-23 15.5q-8 14 -4.5 28.5t17.5 23.5l82 53v285q0 17 11.5 29t28.5 12t29 -12t12 -29z" />
    <glyph glyph-name="Nacute" unicode="&#x143;" horiz-adv-x="769" 
d="M238 665l350 -568h2q0 11 -2 65t-2 84v417q0 17 12 29.5t29 12.5q18 0 29.5 -12t11.5 -30v-595q0 -30 -18.5 -50t-47.5 -20q-44 0 -66 37l-355 575h-2q3 -123 3 -155v-417q0 -18 -11.5 -30t-29.5 -12q-16 0 -28.5 12.5t-12.5 29.5v593q0 31 20 52t50 21q46 0 68 -39z
M333 817l136 70q9 4 17 4q14 0 24 -10t10 -24q0 -20 -19 -30l-135 -70q-8 -5 -18 -5q-14 0 -23.5 10t-9.5 24q0 20 18 31z" />
    <glyph glyph-name="nacute" unicode="&#x144;" 
d="M525 329v-291q0 -18 -11 -30t-29 -12q-17 0 -29 12t-12 30v287q0 63 -37 97t-97 34q-82 0 -138 -33v-385q0 -18 -11.5 -30t-28.5 -12t-29 12t-12 30v405q0 23 18 36q30 22 84 38t119 16q104 0 158.5 -52.5t54.5 -151.5zM224 653l136 70q9 4 17 4q14 0 24 -10t10 -24
q0 -20 -19 -30l-135 -70q-8 -5 -18 -5q-14 0 -23.5 10t-9.5 24q0 20 18 31z" />
    <glyph glyph-name="Ncommaaccent" unicode="&#x145;" horiz-adv-x="769" 
d="M238 665l350 -568h2q0 11 -2 65t-2 84v417q0 17 12 29.5t29 12.5q18 0 29.5 -12t11.5 -30v-595q0 -30 -18.5 -50t-47.5 -20q-44 0 -66 37l-355 575h-2q3 -123 3 -155v-417q0 -18 -11.5 -30t-29.5 -12q-16 0 -28.5 12.5t-12.5 29.5v593q0 31 20 52t50 21q46 0 68 -39z
M428 -132v-29q0 -50 -25 -96q-16 -28 -43 -28q-15 0 -26 11t-11 26q0 2 11.5 33t11.5 57v26q0 17 12 28.5t29 11.5t29 -12t12 -28z" />
    <glyph glyph-name="ncommaaccent" unicode="&#x146;" 
d="M525 329v-291q0 -18 -11 -30t-29 -12q-17 0 -29 12t-12 30v287q0 63 -37 97t-97 34q-82 0 -138 -33v-385q0 -18 -11.5 -30t-28.5 -12t-29 12t-12 30v405q0 23 18 36q30 22 84 38t119 16q104 0 158.5 -52.5t54.5 -151.5zM347 -70v-29q0 -50 -25 -96q-16 -28 -43 -28
q-15 0 -26 11t-11 26q0 2 11.5 33t11.5 57v26q0 17 12 28.5t29 11.5t29 -12t12 -28z" />
    <glyph glyph-name="Ncaron" unicode="&#x147;" horiz-adv-x="769" 
d="M238 665l350 -568h2q0 11 -2 65t-2 84v417q0 17 12 29.5t29 12.5q18 0 29.5 -12t11.5 -30v-595q0 -30 -18.5 -50t-47.5 -20q-44 0 -66 37l-355 575h-2q3 -123 3 -155v-417q0 -18 -11.5 -30t-29.5 -12q-16 0 -28.5 12.5t-12.5 29.5v593q0 31 20 52t50 21q46 0 68 -39z
M509 834l-94 -70q-19 -12 -29 -12q-14 0 -30 12l-93 70q-14 11 -14 28q0 14 9.5 24t24.5 10q11 0 22 -8l81 -61l81 61q11 8 23 8q14 0 24 -10t10 -24q0 -18 -15 -28z" />
    <glyph glyph-name="ncaron" unicode="&#x148;" 
d="M525 329v-291q0 -18 -11 -30t-29 -12q-17 0 -29 12t-12 30v287q0 63 -37 97t-97 34q-82 0 -138 -33v-385q0 -18 -11.5 -30t-28.5 -12t-29 12t-12 30v405q0 23 18 36q30 22 84 38t119 16q104 0 158.5 -52.5t54.5 -151.5zM426 670l-94 -70q-20 -12 -29 -12q-13 0 -30 12
l-93 70q-14 11 -14 28q0 14 9.5 24t24.5 10q11 0 22 -8l81 -61l81 61q11 8 23 8q14 0 24 -10t10 -24q0 -18 -15 -28z" />
    <glyph glyph-name="Omacron" unicode="&#x14c;" horiz-adv-x="729" 
d="M369 -10q-119 0 -202 80t-91 199q-6 83 0 162q9 120 91 199q83 80 202 80q120 0 204 -81q85 -80 92 -198q6 -79 0 -162q-8 -119 -92 -199q-85 -80 -204 -80zM369 69q87 0 146 57q60 60 67 147q8 77 0 155q-7 87 -68 145q-58 58 -145 58q-85 0 -144 -57q-60 -58 -67 -146
q-6 -78 0 -155q8 -89 66 -147q58 -57 145 -57zM283 840h164q14 0 24 -10t10 -24q0 -15 -10 -25t-24 -10h-164q-15 0 -25 10t-10 25q0 14 10 24t25 10z" />
    <glyph glyph-name="omacron" unicode="&#x14d;" horiz-adv-x="592" 
d="M523 335q4 -72 0 -142q-4 -88 -68 -145q-61 -57 -155 -57q-92 0 -155 57q-64 57 -68 145q-4 70 0 142q4 86 67 142q64 56 156 56q94 0 155 -55q64 -56 68 -143zM158 329q-5 -66 0 -131q5 -59 43.5 -95t98.5 -36t98.5 36t43.5 95q5 65 0 131q-4 58 -42 93t-100 35
t-100 -35t-42 -93zM214 678h164q14 0 24 -10t10 -24q0 -15 -10 -25t-24 -10h-164q-15 0 -25 10t-10 25q0 14 10 24t25 10z" />
    <glyph glyph-name="Ohungarumlaut" unicode="&#x150;" horiz-adv-x="729" 
d="M369 -10q-119 0 -202 80t-91 199q-6 83 0 162q9 120 91 199q83 80 202 80q120 0 204 -81q85 -80 92 -198q6 -79 0 -162q-8 -119 -92 -199q-85 -80 -204 -80zM369 69q87 0 146 57q60 60 67 147q8 77 0 155q-7 87 -68 145q-58 58 -145 58q-85 0 -144 -57q-60 -58 -67 -146
q-6 -78 0 -155q8 -89 66 -147q58 -57 145 -57zM405 852l-99 -91q-10 -9 -23 -9q-14 0 -24 10t-10 24q0 16 10 25l100 92q11 9 22 9q22 0 31.5 -22t-7.5 -38zM554 852l-99 -91q-11 -9 -23 -9q-14 0 -24.5 10t-10.5 24q0 16 11 25l100 92q9 9 22 9q22 0 31.5 -22t-7.5 -38z
" />
    <glyph glyph-name="ohungarumlaut" unicode="&#x151;" horiz-adv-x="596" 
d="M523 335q4 -72 0 -142q-4 -88 -68 -145q-61 -57 -155 -57q-92 0 -155 57q-64 57 -68 145q-4 70 0 142q4 86 67 142q64 56 156 56q94 0 155 -55q64 -56 68 -143zM158 329q-5 -66 0 -131q5 -59 43.5 -95t98.5 -36t98.5 36t43.5 95q5 65 0 131q-4 58 -42 93t-100 35
t-100 -35t-42 -93zM320 688l-99 -91q-10 -9 -23 -9q-14 0 -24 10t-10 24q0 16 10 25l100 92q10 9 22 9q22 0 31.5 -22t-7.5 -38zM469 688l-99 -91q-10 -9 -23 -9q-14 0 -24.5 10t-10.5 24q0 16 11 25l100 92q9 9 22 9q22 0 31.5 -22t-7.5 -38z" />
    <glyph glyph-name="OE" unicode="&#x152;" horiz-adv-x="1069" 
d="M963 0h-378q-5 0 -77 -5t-119 -5q-146 0 -228 82q-81 81 -89 215q-3 60 0 120q7 132 90 218q84 85 228 85q43 0 120 -5q63 -4 99 -4h352q17 0 29.5 -11.5t12.5 -28.5q0 -16 -12.5 -27.5t-29.5 -11.5h-337v-230h329q17 0 28.5 -11t11.5 -28q0 -16 -12 -27t-28 -11h-329
v-236h339q17 0 29.5 -11.5t12.5 -27.5q0 -17 -12.5 -28.5t-29.5 -11.5zM543 78v212v333q-82 8 -153 8q-109 0 -170 -61t-66 -166q-3 -56 0 -114q5 -103 66 -162t170 -59q88 0 153 9z" />
    <glyph glyph-name="oe" unicode="&#x153;" horiz-adv-x="940" 
d="M879 316v-30q0 -58 -58 -58h-300v-16q0 -69 41 -108t109 -39q48 0 120 26q24 9 41.5 -1.5t17.5 -30.5q0 -23 -22 -36q-24 -14 -69 -23t-88 -9q-130 0 -188 91q-63 -91 -183 -91q-92 0 -155 57q-64 59 -68 145q-4 70 0 142q4 86 67 142q64 56 156 56q122 0 185 -91
q60 91 182 91q96 0 154 -61q58 -59 58 -156zM665 460q-71 0 -108.5 -43.5t-35.5 -120.5h266q11 0 13 12q4 68 -33 110t-102 42zM158 329q-5 -66 0 -131q5 -59 43.5 -95t98.5 -36t98.5 36t43.5 95q5 65 0 131q-4 58 -42 93t-100 35t-100 -35t-42 -93z" />
    <glyph glyph-name="Racute" unicode="&#x154;" horiz-adv-x="678" 
d="M619 39q0 -17 -12.5 -30t-29.5 -13q-18 0 -30 14l-188 232q-26 32 -56 32h-121v-236q0 -17 -12.5 -29.5t-28.5 -12.5t-28.5 12.5t-12.5 29.5v596q0 30 18 48.5t50 18.5h204q96 0 161 -57t65 -158q0 -84 -44.5 -134t-125.5 -63l182 -225q9 -11 9 -25zM182 622v-270h180
q153 0 153 134q0 65 -37.5 100.5t-110.5 35.5h-185zM277 817l136 70q9 4 17 4q14 0 24 -10t10 -24q0 -20 -19 -30l-135 -70q-8 -5 -18 -5q-14 0 -23.5 10t-9.5 24q0 20 18 31z" />
    <glyph glyph-name="racute" unicode="&#x155;" horiz-adv-x="377" 
d="M335 522q32 -8 32 -38q0 -15 -11 -26t-29 -11q-11 0 -34 4t-45 4q-81 -1 -81 -90v-328q0 -17 -12 -29t-29 -12t-29 12t-12 29v337q0 75 42.5 117t120.5 42q51 0 87 -11zM146 652l136 70q9 4 17 4q14 0 24 -10t10 -24q0 -20 -19 -30l-135 -70q-8 -5 -18 -5q-14 0 -23.5 10
t-9.5 24q0 21 18 31z" />
    <glyph glyph-name="Rcommaaccent" unicode="&#x156;" horiz-adv-x="678" 
d="M619 39q0 -17 -12.5 -30t-29.5 -13q-18 0 -30 14l-188 232q-26 32 -56 32h-121v-236q0 -17 -12.5 -29.5t-28.5 -12.5t-28.5 12.5t-12.5 29.5v596q0 30 18 48.5t50 18.5h204q96 0 161 -57t65 -158q0 -84 -44.5 -134t-125.5 -63l182 -225q9 -11 9 -25zM182 622v-270h180
q153 0 153 134q0 65 -37.5 100.5t-110.5 35.5h-185zM379 -132v-29q0 -50 -25 -96q-16 -28 -43 -28q-15 0 -26 11t-11 26q0 2 11.5 33t11.5 57v26q0 17 12 28.5t29 11.5t29 -12t12 -28z" />
    <glyph glyph-name="rcommaaccent" unicode="&#x157;" horiz-adv-x="377" 
d="M335 522q32 -8 32 -38q0 -15 -11 -26t-29 -11q-11 0 -34 4t-45 4q-81 -1 -81 -90v-328q0 -17 -12 -29t-29 -12t-29 12t-12 29v337q0 75 42.5 117t120.5 42q51 0 87 -11zM168 -70v-29q0 -50 -25 -96q-16 -28 -43 -28q-15 0 -26 11t-11 26q0 2 11.5 33t11.5 57v26
q0 17 12 28.5t29 11.5t29 -12t12 -28z" />
    <glyph glyph-name="Rcaron" unicode="&#x158;" horiz-adv-x="678" 
d="M619 39q0 -17 -12.5 -30t-29.5 -13q-18 0 -30 14l-188 232q-26 32 -56 32h-121v-236q0 -17 -12.5 -29.5t-28.5 -12.5t-28.5 12.5t-12.5 29.5v596q0 30 18 48.5t50 18.5h204q96 0 161 -57t65 -158q0 -84 -44.5 -134t-125.5 -63l182 -225q9 -11 9 -25zM182 622v-270h180
q153 0 153 134q0 65 -37.5 100.5t-110.5 35.5h-185zM462 834l-94 -70q-20 -12 -29 -12q-13 0 -30 12l-93 70q-14 11 -14 28q0 14 9.5 24t24.5 10q11 0 22 -8l81 -61l81 61q11 8 23 8q14 0 24 -10t10 -24q0 -18 -15 -28z" />
    <glyph glyph-name="rcaron" unicode="&#x159;" horiz-adv-x="377" 
d="M335 522q32 -8 32 -38q0 -15 -11 -26t-29 -11q-11 0 -34 4t-45 4q-81 -1 -81 -90v-328q0 -17 -12 -29t-29 -12t-29 12t-12 29v337q0 75 42.5 117t120.5 42q51 0 87 -11zM346 669l-94 -70q-19 -12 -29 -12q-13 0 -30 12l-93 70q-14 11 -14 28q0 14 9.5 24t24.5 10
q11 0 22 -8l81 -61l81 61q11 8 23 8q14 0 24 -10t10 -24q0 -17 -15 -28z" />
    <glyph glyph-name="Sacute" unicode="&#x15a;" horiz-adv-x="619" 
d="M331 394q132 -25 188 -69t56 -128q0 -91 -68 -150q-67 -57 -185 -57q-136 0 -242 73q-21 13 -21 36q0 18 12 30t30 12q13 0 30 -12q86 -59 192 -59q80 0 124.5 33.5t44.5 93.5q0 47 -39 73q-37 25 -142 45q-124 24 -180.5 70t-56.5 125q0 92 66 146q68 54 175 54
q60 0 113.5 -15.5t83.5 -40.5q16 -13 16 -34q0 -16 -11.5 -27.5t-26.5 -11.5t-32 10q-73 40 -143 40q-79 0 -118.5 -32t-39.5 -87q0 -48 37 -73q38 -26 137 -45zM250 817l136 70q9 4 17 4q14 0 24 -10t10 -24q0 -20 -19 -30l-135 -70q-8 -5 -18 -5q-14 0 -23.5 10t-9.5 24
q0 20 18 31z" />
    <glyph glyph-name="sacute" unicode="&#x15b;" horiz-adv-x="489" 
d="M283 300l32 -8q133 -34 133 -141q0 -73 -53 -116.5t-141 -43.5q-110 0 -178 56q-12 10 -14 26t6 28q23 31 56 8q33 -25 61.5 -35t75.5 -10q49 0 78 23t29 60q0 52 -80 72l-72 17q-141 36 -141 142q0 71 51.5 113t135.5 42q88 0 143 -43q14 -11 14.5 -29t-9.5 -27
q-21 -24 -54 -5q-51 30 -97 30q-105 0 -105 -78q0 -25 18 -41t60 -28zM170 653l136 70q9 4 17 4q14 0 24 -10t10 -24q0 -20 -19 -30l-135 -70q-8 -5 -18 -5q-14 0 -23.5 10t-9.5 24q0 20 18 31z" />
    <glyph glyph-name="Scedilla" unicode="&#x15e;" horiz-adv-x="619" 
d="M240 -67l22 60q-100 13 -182 70q-21 13 -21 36q0 18 12.5 30t29.5 12q13 0 30 -12q85 -60 192 -60q79 0 124 34t45 94q0 47 -39 73q-37 25 -142 45q-124 24 -180.5 70t-56.5 125q0 92 66 146q68 54 175 54q131 0 198 -58q22 -20 12 -45.5t-35 -25.5q-15 0 -32 10
q-67 40 -143 40q-79 0 -118.5 -32t-39.5 -87q0 -48 37 -73q38 -26 137 -45q132 -25 188 -69t56 -128q0 -91 -67 -148q-65 -56 -182 -58l-15 -36q40 -3 64 -27.5t24 -61.5q0 -84 -123 -124q-18 -6 -32.5 2t-14.5 28q0 24 25 31q44 17 60 31t16 30q0 12 -8.5 21t-22.5 9
q-5 0 -15.5 -2t-14.5 -2q-17 0 -26.5 13.5t-2.5 29.5z" />
    <glyph glyph-name="scedilla" unicode="&#x15f;" horiz-adv-x="489" 
d="M203 -67l21 59q-91 7 -148 55q-11 10 -13.5 26t5.5 28q23 31 56 8q22 -17 36 -24q44 -21 101 -21q49 0 78 23t29 60q0 52 -80 72q-3 1 -29 6.5t-43 10.5q-141 36 -141 142q0 70 52 112q52 43 135 43q88 0 145 -45q12 -9 13 -27t-9 -27q-21 -24 -55 -5q-52 30 -97 30
q-105 0 -105 -78q0 -25 18 -41.5t60 -27.5l51 -13q29 -7 33 -7q132 -33 132 -141q0 -66 -42.5 -108t-117.5 -50l-15 -38q40 -3 64.5 -27.5t24.5 -61.5q0 -84 -123 -124q-18 -6 -32.5 2t-14.5 28q0 24 25 31q45 18 60.5 30.5t15.5 30.5q0 11 -9 20t-22 9q-5 0 -15.5 -1.5
t-14.5 -1.5q-17 0 -26 13.5t-3 29.5z" />
    <glyph glyph-name="Scaron" unicode="&#x160;" horiz-adv-x="619" 
d="M331 394q132 -25 188 -69t56 -128q0 -91 -68 -150q-67 -57 -185 -57q-136 0 -242 73q-21 13 -21 36q0 18 12 30t30 12q13 0 30 -12q86 -59 192 -59q80 0 124.5 33.5t44.5 93.5q0 47 -39 73q-37 25 -142 45q-124 24 -180.5 70t-56.5 125q0 92 66 146q68 54 175 54
q60 0 113.5 -15.5t83.5 -40.5q16 -13 16 -34q0 -16 -11.5 -27.5t-26.5 -11.5t-32 10q-73 40 -143 40q-79 0 -118.5 -32t-39.5 -87q0 -48 37 -73q38 -26 137 -45zM434 832l-94 -70q-20 -12 -29 -12q-13 0 -30 12l-93 70q-14 11 -14 28q0 14 9.5 24t24.5 10q11 0 22 -8l81 -61
l81 61q11 8 23 8q14 0 24 -10t10 -24q0 -18 -15 -28z" />
    <glyph glyph-name="scaron" unicode="&#x161;" horiz-adv-x="489" 
d="M283 300l32 -8q133 -34 133 -141q0 -73 -53 -116.5t-141 -43.5q-110 0 -178 56q-12 10 -14 26t6 28q23 31 56 8q33 -25 61.5 -35t75.5 -10q49 0 78 23t29 60q0 52 -80 72l-72 17q-141 36 -141 142q0 71 51.5 113t135.5 42q88 0 143 -43q14 -11 14.5 -29t-9.5 -27
q-21 -24 -54 -5q-51 30 -97 30q-105 0 -105 -78q0 -25 18 -41t60 -28zM367 658l-94 -70q-20 -12 -29 -12q-14 0 -30 12l-93 70q-14 11 -14 28q0 14 9.5 24t24.5 10q11 0 22 -8l81 -61l81 61q11 8 23 8q14 0 24 -10t10 -24q0 -18 -15 -28z" />
    <glyph glyph-name="Tcommaaccent" unicode="&#x162;" horiz-adv-x="600" 
d="M260 38v584h-200q-17 0 -29.5 11.5t-12.5 27.5q0 18 12 29t30 11h480q18 0 29.5 -11t11.5 -29q0 -16 -12 -27.5t-29 -11.5h-198v-584q0 -17 -12 -29.5t-29 -12.5t-29 12.5t-12 29.5zM342 -132v-29q0 -50 -25 -96q-16 -28 -43 -28q-15 0 -26 11t-11 26q0 2 11.5 33
t11.5 57v26q0 17 12 28.5t29 11.5t29 -12t12 -28z" />
    <glyph glyph-name="tcommaaccent" unicode="&#x163;" horiz-adv-x="409" 
d="M342 8q-45 -17 -103 -17q-75 0 -114.5 44.5t-39.5 120.5v435q0 17 11.5 29t28.5 12t29 -12t12 -29v-82h151q15 0 26.5 -11t11.5 -26t-11.5 -26t-26.5 -11h-151v-282q0 -41 19.5 -64t57.5 -23q19 0 80 18q23 6 37.5 -5t14.5 -32q0 -29 -33 -39zM268 -70v-29q0 -50 -25 -96
q-16 -28 -43 -28q-15 0 -26 11t-11 26q0 2 11.5 33t11.5 57v26q0 17 12 28.5t29 11.5t29 -12t12 -28z" />
    <glyph glyph-name="Tcaron" unicode="&#x164;" horiz-adv-x="600" 
d="M260 38v584h-200q-17 0 -29.5 11.5t-12.5 27.5q0 18 12 29t30 11h480q18 0 29.5 -11t11.5 -29q0 -16 -12 -27.5t-29 -11.5h-198v-584q0 -17 -12 -29.5t-29 -12.5t-29 12.5t-12 29.5zM423 834l-94 -70q-19 -12 -29 -12q-14 0 -30 12l-93 70q-14 11 -14 28q0 14 9.5 24
t24.5 10q11 0 22 -8l81 -61l81 61q11 8 23 8q14 0 24 -10t10 -24q0 -18 -15 -28z" />
    <glyph glyph-name="tcaron" unicode="&#x165;" horiz-adv-x="407" 
d="M342 8q-45 -17 -103 -17q-75 0 -114.5 44.5t-39.5 120.5v435q0 17 11.5 29t28.5 12t29 -12t12 -29v-82h151q15 0 26.5 -11t11.5 -26t-11.5 -26t-26.5 -11h-151v-282q0 -41 19.5 -64t57.5 -23q19 0 80 18q23 6 37.5 -5t14.5 -32q0 -29 -33 -39zM290 575q-15 -25 -38 -25
q-16 0 -27 10.5t-11 24.5q0 10 13 35q14 26 14 54v22q0 17 11 28.5t27 11.5q17 0 28 -11.5t11 -28.5v-20q0 -52 -28 -101z" />
    <glyph glyph-name="Umacron" unicode="&#x16a;" horiz-adv-x="748" 
d="M657 663v-379q0 -129 -80 -212q-79 -82 -203 -82t-203 82q-80 83 -80 212v379q0 17 12 29.5t29 12.5t29 -12.5t12 -29.5v-378q0 -98 56 -157q57 -59 145 -59t144 59q57 59 57 157v378q0 17 12 29.5t29 12.5t29 -12.5t12 -29.5zM292 839h164q14 0 24 -10t10 -24
q0 -15 -10 -25t-24 -10h-164q-15 0 -25 10t-10 25q0 14 10 24t25 10z" />
    <glyph glyph-name="umacron" unicode="&#x16b;" 
d="M84 195v289q0 17 11.5 29.5t28.5 12.5t29 -12.5t12 -29.5v-290q0 -59 35.5 -92.5t98.5 -33.5q83 0 138 37v379q0 17 11.5 29.5t28.5 12.5t29 -12.5t12 -29.5v-400q0 -22 -17 -33q-85 -60 -202 -60q-99 0 -157 54t-58 150zM223 678h164q14 0 24 -10t10 -24q0 -15 -10 -25
t-24 -10h-164q-15 0 -25 10t-10 25q0 14 10 24t25 10z" />
    <glyph glyph-name="Uring" unicode="&#x16e;" horiz-adv-x="748" 
d="M657 663v-379q0 -129 -80 -212q-79 -82 -203 -82t-203 82q-80 83 -80 212v379q0 17 12 29.5t29 12.5t29 -12.5t12 -29.5v-378q0 -98 56 -157q57 -59 145 -59t144 59q57 59 57 157v378q0 17 12 29.5t29 12.5t29 -12.5t12 -29.5zM278 849q0 39 28.5 67.5t67.5 28.5
q40 0 68 -28.5t28 -67.5q0 -40 -28 -68t-68 -28q-39 0 -67.5 28t-28.5 68zM330 849q0 -19 13 -32t31 -13q19 0 31.5 13t12.5 32q0 18 -12.5 31t-31.5 13q-18 0 -31 -13t-13 -31z" />
    <glyph glyph-name="uring" unicode="&#x16f;" 
d="M84 195v289q0 17 11.5 29.5t28.5 12.5t29 -12.5t12 -29.5v-290q0 -59 35.5 -92.5t98.5 -33.5q83 0 138 37v379q0 17 11.5 29.5t28.5 12.5t29 -12.5t12 -29.5v-400q0 -22 -17 -33q-85 -60 -202 -60q-99 0 -157 54t-58 150zM209 685q0 39 28.5 67.5t67.5 28.5
q40 0 68 -28.5t28 -67.5q0 -40 -28 -68t-68 -28q-39 0 -67.5 28t-28.5 68zM261 685q0 -19 13 -32t31 -13q19 0 31.5 13t12.5 32q0 18 -12.5 31t-31.5 13q-18 0 -31 -13t-13 -31z" />
    <glyph glyph-name="Uhungarumlaut" unicode="&#x170;" horiz-adv-x="748" 
d="M417 852l-99 -91q-10 -9 -23 -9q-14 0 -24 10t-10 24q0 16 10 25l100 92q11 9 22 9q22 0 31.5 -22t-7.5 -38zM566 852l-99 -91q-11 -9 -23 -9q-14 0 -24.5 10t-10.5 24q0 16 11 25l100 92q9 9 22 9q22 0 31.5 -22t-7.5 -38zM657 663v-379q0 -129 -80 -212
q-79 -82 -203 -82t-203 82q-80 83 -80 212v379q0 17 12 29.5t29 12.5t29 -12.5t12 -29.5v-378q0 -98 56 -157q57 -59 145 -59t144 59q57 59 57 157v378q0 17 12 29.5t29 12.5t29 -12.5t12 -29.5z" />
    <glyph glyph-name="uhungarumlaut" unicode="&#x171;" 
d="M342 689l-99 -91q-11 -9 -23 -9q-14 0 -24 10t-10 24q0 16 10 25l100 92q10 9 22 9q22 0 31.5 -21.5t-7.5 -38.5zM491 689l-99 -91q-10 -9 -23 -9q-14 0 -24.5 10t-10.5 24q0 16 11 25l100 92q9 9 22 9q22 0 31.5 -21.5t-7.5 -38.5zM84 195v289q0 17 11.5 29.5t28.5 12.5
t29 -12.5t12 -29.5v-290q0 -59 35.5 -92.5t98.5 -33.5q83 0 138 37v379q0 17 11.5 29.5t28.5 12.5t29 -12.5t12 -29.5v-400q0 -22 -17 -33q-85 -60 -202 -60q-99 0 -157 54t-58 150z" />
    <glyph glyph-name="Uogonek" unicode="&#x172;" horiz-adv-x="748" 
d="M476 7q-47 -17 -72 -44t-25 -56q0 -34 30 -44.5t60 9.5q19 18 39 -2q19 -20 7 -40q-4 -6 -10 -10q-35 -26 -83 -26q-47 0 -79 31t-32 79q0 47 38 88q-113 7 -186 88q-72 81 -72 204v375q0 17 12 29.5t29 12.5t29 -12.5t12 -29.5v-374q0 -98 56 -157q57 -59 145 -59
t144 59q57 59 57 157v374q0 17 12 29.5t29 12.5t29 -12.5t12 -29.5v-375q0 -99 -48.5 -172.5t-132.5 -104.5z" />
    <glyph glyph-name="uogonek" unicode="&#x173;" horiz-adv-x="620" 
d="M518 480v-410q0 -22 -26 -36q-104 -47 -104 -123q0 -24 14.5 -38t36.5 -14q23 0 40 14q10 8 22.5 5.5t21.5 -12.5q8 -11 5.5 -24t-13.5 -21q-37 -27 -82 -27q-47 0 -79 31t-32 79t30 90q-26 -3 -53 -3q-99 0 -157 54t-58 150v285q0 18 11.5 30t28.5 12t29 -12t12 -30
v-286q0 -58 36.5 -92t97.5 -34q91 0 138 28v384q0 18 11.5 30t29.5 12q17 0 28.5 -12t11.5 -30z" />
    <glyph glyph-name="Wcircumflex" unicode="&#x174;" horiz-adv-x="946" 
d="M37 664q0 16 11 28t29 12q15 0 26.5 -8.5t13.5 -21.5l126 -606q1 -2 3 -2t3 2l149 574q7 28 27 44.5t46 16.5q24 0 44 -16.5t27 -44.5l148 -574q1 -3 3 -3t3 3l129 606q7 30 40 30q18 0 29 -12t11 -29q0 -8 -1 -10l-140 -601q-8 -39 -39.5 -53.5t-63 0.5t-41.5 52
l-148 570q-1 2 -2.5 2t-2.5 -2l-150 -570q-8 -29 -27.5 -45t-43.5 -16q-26 0 -46.5 17t-26.5 46l-135 600q-1 3 -1 11zM502 884l94 -70q15 -10 15 -28q0 -14 -10 -24t-24 -10q-12 0 -23 8l-81 61l-81 -61q-11 -8 -22 -8q-15 0 -24.5 10t-9.5 24q0 17 14 28l93 70
q17 12 30 12q9 0 29 -12z" />
    <glyph glyph-name="wcircumflex" unicode="&#x175;" horiz-adv-x="812" 
d="M517 50l-99 383q-1 4 -5 4q-5 0 -5 -4l-102 -382q-16 -63 -72 -63q-58 0 -75 62l-116 420q-6 23 5 40.5t32 17.5q29 0 37 -29l113 -422q1 -3 3 -4.5t4 0t3 4.5l101 392q7 27 27 43t45 16q26 0 45.5 -16t26.5 -44l101 -391q1 -3 3 -4.5t4 0t3 4.5l109 419q6 32 40 32
q21 0 32 -18t5 -40l-117 -420q-18 -62 -74 -62q-59 0 -74 62zM435 719l94 -70q15 -11 15 -28q0 -14 -10 -24t-24 -10q-12 0 -23 8l-81 61l-81 -61q-11 -8 -22 -8q-15 0 -24.5 10t-9.5 24q0 17 14 28l93 70q16 12 30 12q10 0 29 -12z" />
    <glyph glyph-name="Ycircumflex" unicode="&#x176;" horiz-adv-x="647" 
d="M589 705q17 0 29.5 -12t12.5 -29t-10 -27l-230 -282l-10.5 -13.5t-9 -12.5t-5 -12t-2.5 -19v-260q0 -18 -11.5 -30t-29.5 -12q-16 0 -28.5 12.5t-12.5 29.5v260q0 7 -6 28q0 3 -3.5 8t-5.5 6q-1 2 -6 8t-6 8l-229 280q-10 10 -10 28q0 16 12.5 28t29.5 12q20 0 32 -15
l233 -292l234 292q13 16 32 16zM353 884l94 -70q15 -10 15 -28q0 -14 -10 -24t-24 -10q-12 0 -23 8l-81 61l-81 -61q-11 -8 -22 -8q-15 0 -24.5 10t-9.5 24q0 17 14 28l93 70q16 12 30 12q10 0 29 -12z" />
    <glyph glyph-name="ycircumflex" unicode="&#x177;" horiz-adv-x="512" 
d="M226 33l-190 434q-9 22 3 40t35 18q24 0 38 -29l155 -357q4 -7 8 0l141 354q12 32 40 32q23 0 35 -18.5t3 -39.5l-188 -456q-27 -65 -65.5 -117t-73.5 -73q-19 -12 -36 -12q-16 0 -28 10.5t-12 27.5q0 25 19 35q80 47 116 151zM300 720l94 -70q15 -10 15 -28
q0 -14 -10 -24t-24 -10q-12 0 -23 8l-81 61l-81 -61q-11 -8 -22 -8q-15 0 -24.5 10t-9.5 24q0 17 14 28l93 70q17 12 30 12q9 0 29 -12z" />
    <glyph glyph-name="Ydieresis" unicode="&#x178;" horiz-adv-x="647" 
d="M589 705q17 0 29.5 -12t12.5 -29t-10 -27l-230 -282l-10.5 -13.5t-9 -12.5t-5 -12t-2.5 -19v-260q0 -18 -11.5 -30t-29.5 -12q-16 0 -28.5 12.5t-12.5 29.5v260q0 7 -6 28q0 3 -3.5 8t-5.5 6q-1 2 -6 8t-6 8l-229 280q-10 10 -10 28q0 16 12.5 28t29.5 12q20 0 32 -15
l233 -292l234 292q13 16 32 16zM244 800q27 2 38.5 -21.5t0 -47t-38.5 -21.5q-19 0 -32 13t-13 32t12.5 32t32.5 13zM402 800q20 0 32.5 -13t12.5 -32t-13 -32t-32 -13q-27 -2 -38.5 21.5t0 47t38.5 21.5z" />
    <glyph glyph-name="Zacute" unicode="&#x179;" horiz-adv-x="586" 
d="M506 0h-381q-34 0 -54 18.5t-20 47.5q0 24 20 50l365 506h-339q-17 0 -29 11t-12 27q0 18 12 29.5t29 11.5h357q33 0 53 -18.5t20 -46.5q0 -21 -23 -56l-362 -501h364q17 0 29.5 -11.5t12.5 -27.5q0 -18 -12 -29t-30 -11zM228 817l136 70q9 4 17 4q14 0 24 -10t10 -24
q0 -20 -19 -30l-135 -70q-8 -5 -18 -5q-14 0 -23.5 10t-9.5 24q0 20 18 31z" />
    <glyph glyph-name="zacute" unicode="&#x17a;" horiz-adv-x="491" 
d="M422 395l-291 -320h274q24 2 34.5 -17.5t0 -39t-34.5 -18.5h-290q-49 0 -65.5 37.5t14.5 76.5l297 326h-263q-16 0 -28 11t-12 26q0 16 12 27t28 11h278q30 0 49 -15.5t21 -42.5q3 -32 -24 -62zM184 653l136 70q9 4 17 4q14 0 24 -10t10 -24q0 -20 -19 -30l-135 -70
q-8 -5 -18 -5q-14 0 -23.5 10t-9.5 24q0 20 18 31z" />
    <glyph glyph-name="Zdotaccent" unicode="&#x17b;" horiz-adv-x="586" 
d="M506 0h-381q-34 0 -54 18.5t-20 47.5q0 24 20 50l365 506h-339q-17 0 -29 11t-12 27q0 18 12 29.5t29 11.5h357q33 0 53 -18.5t20 -46.5q0 -21 -23 -56l-362 -501h364q17 0 29.5 -11.5t12.5 -27.5q0 -18 -12 -29t-30 -11zM260 838q13 13 32 13t32 -13t13 -32t-13 -32
t-32 -13t-32 13t-13 32t13 32z" />
    <glyph glyph-name="zdotaccent" unicode="&#x17c;" horiz-adv-x="491" 
d="M422 395l-291 -320h274q24 2 34.5 -17.5t0 -39t-34.5 -18.5h-290q-49 0 -65.5 37.5t14.5 76.5l297 326h-263q-16 0 -28 11t-12 26q0 16 12 27t28 11h278q30 0 49 -15.5t21 -42.5q3 -32 -24 -62zM209 675q13 13 32 13t32 -13t13 -32t-13 -32t-32 -13t-32 13t-13 32t13 32z
" />
    <glyph glyph-name="Zcaron" unicode="&#x17d;" horiz-adv-x="586" 
d="M506 0h-381q-34 0 -54 18.5t-20 47.5q0 24 20 50l365 506h-339q-17 0 -29 11t-12 27q0 18 12 29.5t29 11.5h357q33 0 53 -18.5t20 -46.5q0 -21 -23 -56l-362 -501h364q17 0 29.5 -11.5t12.5 -27.5q0 -18 -12 -29t-30 -11zM424 834l-94 -70q-20 -12 -29 -12q-13 0 -30 12
l-93 70q-14 11 -14 28q0 14 9.5 24t24.5 10q11 0 22 -8l81 -61l81 61q11 8 23 8q14 0 24 -10t10 -24q0 -18 -15 -28z" />
    <glyph glyph-name="zcaron" unicode="&#x17e;" horiz-adv-x="491" 
d="M422 395l-291 -320h274q24 2 34.5 -17.5t0 -39t-34.5 -18.5h-290q-49 0 -65.5 37.5t14.5 76.5l297 326h-263q-16 0 -28 11t-12 26q0 16 12 27t28 11h278q30 0 49 -15.5t21 -42.5q3 -32 -24 -62zM362 670l-94 -70q-19 -12 -29 -12q-13 0 -30 12l-93 70q-14 11 -14 28
q0 14 9.5 24t24.5 10q11 0 22 -8l81 -61l81 61q11 8 23 8q14 0 24 -10t10 -24q0 -18 -15 -28z" />
    <glyph glyph-name="florin" unicode="&#x192;" horiz-adv-x="574" 
d="M321 562l-53 -173h148q17 0 28.5 -10.5t11.5 -27.5q0 -16 -11.5 -27t-28.5 -11h-171l-148 -486q-6 -25 -29 -29.5t-40.5 12.5t-8.5 44l141 459h-45q-16 0 -28 11t-12 27q0 17 11.5 27.5t28.5 10.5h69l63 202q17 57 59.5 87.5t100.5 30.5q98 0 155 -59q11 -11 11 -28
t-11 -28q-27 -26 -56 3q-38 35 -93 35q-39 0 -59.5 -16.5t-32.5 -53.5z" />
    <glyph glyph-name="Scommaaccent" unicode="&#x218;" horiz-adv-x="619" 
d="M331 394q132 -25 188 -69t56 -128q0 -91 -68 -150q-67 -57 -185 -57q-136 0 -242 73q-21 13 -21 36q0 18 12 30t30 12q13 0 30 -12q86 -59 192 -59q80 0 124.5 33.5t44.5 93.5q0 47 -39 73q-37 25 -142 45q-124 24 -180.5 70t-56.5 125q0 92 66 146q68 54 175 54
q60 0 113.5 -15.5t83.5 -40.5q16 -13 16 -34q0 -16 -11.5 -27.5t-26.5 -11.5t-32 10q-73 40 -143 40q-79 0 -118.5 -32t-39.5 -87q0 -48 37 -73q38 -26 137 -45zM361 -70v-29q0 -50 -25 -96q-16 -28 -43 -28q-15 0 -26 11t-11 26q0 2 11.5 33t11.5 57v26q0 17 12 28.5
t29 11.5t29 -12t12 -28z" />
    <glyph glyph-name="scommaaccent" unicode="&#x219;" horiz-adv-x="489" 
d="M283 300l32 -8q133 -34 133 -141q0 -73 -53 -116.5t-141 -43.5q-110 0 -178 56q-12 10 -14 26t6 28q23 31 56 8q33 -25 61.5 -35t75.5 -10q49 0 78 23t29 60q0 52 -80 72l-72 17q-141 36 -141 142q0 71 51.5 113t135.5 42q88 0 143 -43q14 -11 14.5 -29t-9.5 -27
q-21 -24 -54 -5q-51 30 -97 30q-105 0 -105 -78q0 -25 18 -41t60 -28zM300 -70v-29q0 -50 -25 -96q-16 -28 -43 -28q-15 0 -26 11t-11 26q0 2 11.5 33t11.5 57v26q0 17 12 28.5t29 11.5t29 -12t12 -28z" />
    <glyph glyph-name="circumflex" unicode="&#x2c6;" horiz-adv-x="360" 
d="M208 882l94 -70q15 -10 15 -28q0 -14 -10 -24t-24 -10q-12 0 -23 8l-81 61l-81 -61q-11 -8 -22 -8q-15 0 -24.5 10t-9.5 24q0 17 14 28l93 70q17 12 30 12q9 0 29 -12z" />
    <glyph glyph-name="caron" unicode="&#x2c7;" horiz-adv-x="360" 
d="M302 832l-94 -70q-20 -12 -29 -12q-13 0 -30 12l-93 70q-14 11 -14 28q0 14 9.5 24t24.5 10q11 0 22 -8l81 -61l81 61q11 8 23 8q14 0 24 -10t10 -24q0 -18 -15 -28z" />
    <glyph glyph-name="breve" unicode="&#x2d8;" horiz-adv-x="360" 
d="M237 868q7 24 33 24q14 0 24 -10t10 -24q0 -6 -3 -15q-12 -37 -45.5 -61.5t-75.5 -24.5t-75.5 24.5t-45.5 61.5q-3 9 -3 15q0 14 10 24t24 10q24 0 33 -24q5 -28 31 -39.5t52 0t31 39.5z" />
    <glyph glyph-name="dotaccent" unicode="&#x2d9;" horiz-adv-x="360" 
d="M148 838q13 13 32 13t32 -13t13 -32t-13 -32t-32 -13t-32 13t-13 32t13 32z" />
    <glyph glyph-name="ring" unicode="&#x2da;" horiz-adv-x="362" 
d="M91 844q0 39 28.5 67.5t67.5 28.5q40 0 68 -28.5t28 -67.5q0 -40 -28 -68t-68 -28q-39 0 -67.5 28t-28.5 68zM143 844q0 -19 13 -32t31 -13q19 0 31.5 13t12.5 32q0 18 -12.5 31t-31.5 13q-18 0 -31 -13t-13 -31z" />
    <glyph glyph-name="ogonek" unicode="&#x2db;" horiz-adv-x="360" 
d="M238 -2q-84 -37 -84 -91q0 -23 14.5 -35.5t36.5 -12.5t39 13q26 19 44 -6q8 -11 5.5 -24.5t-13.5 -21.5q-35 -26 -82 -26t-79 31t-32 79q0 84 123 149q7 4 18 4q12 0 21 -9t9 -21q0 -20 -20 -29z" />
    <glyph glyph-name="tilde" unicode="&#x2dc;" horiz-adv-x="360" 
d="M295 845q15 0 24 -9.5t9 -24.5t-14 -27q-38 -34 -74 -34q-26 0 -62 18t-50 18t-31 -14q-16 -13 -28 -13q-15 0 -24 9.5t-9 24.5q0 13 14 27q38 34 75 34q27 0 62 -18q34 -18 49 -18q14 0 30 13q17 14 29 14z" />
    <glyph glyph-name="hungarumlaut" unicode="&#x2dd;" horiz-adv-x="360" 
d="M181 852l-99 -91q-11 -9 -23 -9q-14 0 -24 10t-10 24q0 16 10 25l100 92q11 9 22 9q22 0 31.5 -22t-7.5 -38zM330 852l-99 -91q-11 -9 -23 -9q-14 0 -24.5 10t-10.5 24q0 16 11 25l100 92q9 9 22 9q22 0 31.5 -22t-7.5 -38z" />
    <glyph glyph-name="Wgrave" unicode="&#x1e80;" horiz-adv-x="946" 
d="M37 664q0 16 11 28t29 12q15 0 26.5 -8.5t13.5 -21.5l126 -606q1 -2 3 -2t3 2l149 574q7 28 27 44.5t46 16.5q24 0 44 -16.5t27 -44.5l148 -574q1 -3 3 -3t3 3l129 606q7 30 40 30q18 0 29 -12t11 -29q0 -8 -1 -10l-140 -601q-8 -39 -39.5 -53.5t-63 0.5t-41.5 52
l-148 570q-1 2 -2.5 2t-2.5 -2l-150 -570q-8 -29 -27.5 -45t-43.5 -16q-26 0 -46.5 17t-26.5 46l-135 600q-1 3 -1 11zM394 887l135 -70q19 -10 19 -31q0 -14 -10 -24t-24 -10q-8 0 -20 6l-133 69q-18 11 -18 30q0 14 9.5 24t23.5 10q9 0 18 -4z" />
    <glyph glyph-name="wgrave" unicode="&#x1e81;" horiz-adv-x="812" 
d="M517 50l-99 383q-1 4 -5 4q-5 0 -5 -4l-102 -382q-16 -63 -72 -63q-58 0 -75 62l-116 420q-6 23 5 40.5t32 17.5q29 0 37 -29l113 -422q1 -3 3 -4.5t4 0t3 4.5l101 392q7 27 27 43t45 16q26 0 45.5 -16t26.5 -44l101 -391q1 -3 3 -4.5t4 0t3 4.5l109 419q6 32 40 32
q21 0 32 -18t5 -40l-117 -420q-18 -62 -74 -62q-59 0 -74 62zM331 723l135 -70q19 -10 19 -31q0 -14 -10 -24t-24 -10q-8 0 -20 6l-133 69q-18 11 -18 30q0 14 9.5 24t23.5 10q9 0 18 -4z" />
    <glyph glyph-name="Wacute" unicode="&#x1e82;" horiz-adv-x="946" 
d="M37 664q0 16 11 28t29 12q15 0 26.5 -8.5t13.5 -21.5l126 -606q1 -2 3 -2t3 2l149 574q7 28 27 44.5t46 16.5q24 0 44 -16.5t27 -44.5l148 -574q1 -3 3 -3t3 3l129 606q7 30 40 30q18 0 29 -12t11 -29q0 -8 -1 -10l-140 -601q-8 -39 -39.5 -53.5t-63 0.5t-41.5 52
l-148 570q-1 2 -2.5 2t-2.5 -2l-150 -570q-8 -29 -27.5 -45t-43.5 -16q-26 0 -46.5 17t-26.5 46l-135 600q-1 3 -1 11zM411 817l136 70q9 4 17 4q14 0 24 -10t10 -24q0 -20 -19 -30l-135 -70q-8 -5 -18 -5q-14 0 -23.5 10t-9.5 24q0 20 18 31z" />
    <glyph glyph-name="wacute" unicode="&#x1e83;" horiz-adv-x="812" 
d="M517 50l-99 383q-1 4 -5 4q-5 0 -5 -4l-102 -382q-16 -63 -72 -63q-58 0 -75 62l-116 420q-6 23 5 40.5t32 17.5q29 0 37 -29l113 -422q1 -3 3 -4.5t4 0t3 4.5l101 392q7 27 27 43t45 16q26 0 45.5 -16t26.5 -44l101 -391q1 -3 3 -4.5t4 0t3 4.5l109 419q6 32 40 32
q21 0 32 -18t5 -40l-117 -420q-18 -62 -74 -62q-59 0 -74 62zM325 653l136 70q9 4 17 4q14 0 24 -10t10 -24q0 -20 -19 -30l-135 -70q-8 -5 -18 -5q-14 0 -23.5 10t-9.5 24q0 20 18 31z" />
    <glyph glyph-name="Wdieresis" unicode="&#x1e84;" horiz-adv-x="946" 
d="M37 664q0 16 11 28t29 12q15 0 26.5 -8.5t13.5 -21.5l126 -606q1 -2 3 -2t3 2l149 574q7 28 27 44.5t46 16.5q24 0 44 -16.5t27 -44.5l148 -574q1 -3 3 -3t3 3l129 606q7 30 40 30q18 0 29 -12t11 -29q0 -8 -1 -10l-140 -601q-8 -39 -39.5 -53.5t-63 0.5t-41.5 52
l-148 570q-1 2 -2.5 2t-2.5 -2l-150 -570q-8 -29 -27.5 -45t-43.5 -16q-26 0 -46.5 17t-26.5 46l-135 600q-1 3 -1 11zM394 850q27 2 38.5 -21.5t0 -47t-38.5 -21.5q-19 0 -32 13t-13 32t12.5 32t32.5 13zM552 850q20 0 32.5 -13t12.5 -32t-13 -32t-32 -13
q-27 -2 -38.5 21.5t0 47t38.5 21.5z" />
    <glyph glyph-name="wdieresis" unicode="&#x1e85;" horiz-adv-x="812" 
d="M517 50l-99 383q-1 4 -5 4q-5 0 -5 -4l-102 -382q-16 -63 -72 -63q-58 0 -75 62l-116 420q-6 23 5 40.5t32 17.5q29 0 37 -29l113 -422q1 -3 3 -4.5t4 0t3 4.5l101 392q7 27 27 43t45 16q26 0 45.5 -16t26.5 -44l101 -391q1 -3 3 -4.5t4 0t3 4.5l109 419q6 32 40 32
q21 0 32 -18t5 -40l-117 -420q-18 -62 -74 -62q-59 0 -74 62zM282 644q0 20 13 32.5t32 12.5t32 -13t13 -32q2 -27 -21.5 -38.5t-47 0t-21.5 38.5zM530 644q2 -27 -21.5 -38.5t-47 0t-21.5 38.5q0 19 13 32t32 13t32 -12.5t13 -32.5z" />
    <glyph glyph-name="Ygrave" unicode="&#x1ef2;" horiz-adv-x="647" 
d="M589 705q17 0 29.5 -12t12.5 -29t-10 -27l-230 -282l-10.5 -13.5t-9 -12.5t-5 -12t-2.5 -19v-260q0 -18 -11.5 -30t-29.5 -12q-16 0 -28.5 12.5t-12.5 29.5v260q0 7 -6 28q0 3 -3.5 8t-5.5 6q-1 2 -6 8t-6 8l-229 280q-10 10 -10 28q0 16 12.5 28t29.5 12q20 0 32 -15
l233 -292l234 292q13 16 32 16zM229 887l135 -70q19 -10 19 -31q0 -14 -10 -24t-24 -10q-8 0 -20 6l-133 69q-18 11 -18 30q0 14 9.5 24t23.5 10q9 0 18 -4z" />
    <glyph glyph-name="ygrave" unicode="&#x1ef3;" horiz-adv-x="512" 
d="M226 33l-190 434q-9 22 3 40t35 18q24 0 38 -29l155 -357q4 -7 8 0l141 354q12 32 40 32q23 0 35 -18.5t3 -39.5l-188 -456q-27 -65 -65.5 -117t-73.5 -73q-19 -12 -36 -12q-16 0 -28 10.5t-12 27.5q0 25 19 35q80 47 116 151zM177 723l135 -70q19 -10 19 -31
q0 -14 -10 -24t-24 -10q-8 0 -20 6l-133 69q-18 11 -18 30q0 14 9.5 24t23.5 10q9 0 18 -4z" />
    <glyph glyph-name="endash" unicode="&#x2013;" horiz-adv-x="597" 
d="M53 286q0 17 12.5 29t29.5 12h407q17 0 29 -12t12 -29t-12 -28.5t-29 -11.5h-407q-17 0 -29.5 12t-12.5 28z" />
    <glyph glyph-name="emdash" unicode="&#x2014;" horiz-adv-x="961" 
d="M53 286q0 17 12.5 29t29.5 12h771q17 0 29 -12t12 -29q0 -16 -12 -28t-29 -12h-771q-17 0 -29.5 12t-12.5 28z" />
    <glyph glyph-name="quoteleft" unicode="&#x2018;" horiz-adv-x="214" 
d="M138 569v-44q0 -16 -11.5 -27.5t-28.5 -11.5q-16 0 -27.5 11t-11.5 28v42q0 63 27 109q13 25 39 25q16 0 27.5 -10.5t11.5 -25.5q0 -9 -13 -35t-13 -61z" />
    <glyph glyph-name="quoteright" unicode="&#x2019;" horiz-adv-x="214" 
d="M161 666v-42q0 -62 -27 -109q-13 -25 -39 -25q-16 0 -27.5 10.5t-11.5 25.5q0 9 13 35t13 61v44q0 16 11.5 27.5t28.5 11.5q16 0 27.5 -11.5t11.5 -27.5z" />
    <glyph glyph-name="quotesinglbase" unicode="&#x201a;" horiz-adv-x="214" 
d="M148 79v-41q0 -63 -28 -109q-13 -25 -39 -25q-16 0 -27 10.5t-11 25.5q0 9 13 35t13 61v43q0 17 11.5 28.5t27.5 11.5q17 0 28.5 -11.5t11.5 -28.5z" />
    <glyph glyph-name="quotedblleft" unicode="&#x201c;" horiz-adv-x="356" 
d="M61 525v42q0 63 28 109q13 25 38 25q16 0 27.5 -10.5t11.5 -25.5q0 -9 -13 -35t-13 -61v-44q0 -16 -11.5 -27.5t-28.5 -11.5q-16 0 -27.5 11t-11.5 28zM199 525v42q0 63 27 109q13 25 39 25q16 0 27.5 -10.5t11.5 -25.5q0 -9 -13 -35t-13 -61v-44q0 -16 -11.5 -27.5
t-28.5 -11.5q-16 0 -27.5 11t-11.5 28z" />
    <glyph glyph-name="quotedblright" unicode="&#x201d;" horiz-adv-x="356" 
d="M163 666v-42q0 -62 -27 -109q-13 -25 -39 -25q-16 0 -27.5 10.5t-11.5 25.5q0 9 13 35t13 61v44q0 16 11.5 27.5t28.5 11.5q16 0 27.5 -11.5t11.5 -27.5zM301 666v-42q0 -62 -27 -109q-13 -25 -39 -25q-16 0 -27.5 10.5t-11.5 25.5q0 9 13 35t13 61v44q0 16 11.5 27.5
t28.5 11.5q16 0 27.5 -11.5t11.5 -27.5z" />
    <glyph glyph-name="quotedblbase" unicode="&#x201e;" horiz-adv-x="356" 
d="M301 79v-41q0 -62 -27 -109q-13 -25 -39 -25q-16 0 -27.5 10.5t-11.5 25.5q0 9 13 35t13 61v43q-1 24 19.5 34.5t41 0t18.5 -34.5zM163 79v-41q0 -62 -27 -109q-13 -25 -39 -25q-16 0 -27.5 10.5t-11.5 25.5q0 9 13 35t13 61v43q-1 24 19.5 34.5t41 0t18.5 -34.5z" />
    <glyph glyph-name="dagger" unicode="&#x2020;" horiz-adv-x="497" 
d="M289 667v-176h145q17 0 29 -12t12 -29t-12 -28.5t-29 -11.5h-145v-508q0 -18 -11.5 -30t-28.5 -12t-29 12.5t-12 29.5v508h-144q-18 0 -30 11.5t-12 28.5t12 29t30 12h144v176q0 17 12 29.5t29 12.5t28.5 -12.5t11.5 -29.5z" />
    <glyph glyph-name="daggerdbl" unicode="&#x2021;" horiz-adv-x="497" 
d="M289 667v-176h145q17 0 29 -12t12 -29t-12 -28.5t-29 -11.5h-145v-251h145q17 0 29 -11.5t12 -28.5q0 -18 -12 -29.5t-29 -11.5h-145v-176q0 -18 -11.5 -30t-28.5 -12t-29 12t-12 30v176h-144q-18 0 -30 11.5t-12 29.5q0 17 12 28.5t30 11.5h144v251h-144q-18 0 -30 11.5
t-12 28.5t12 29t30 12h144v176q0 17 12 29.5t29 12.5t28.5 -12.5t11.5 -29.5z" />
    <glyph glyph-name="bullet" unicode="&#x2022;" horiz-adv-x="472" 
d="M147 261q-37 37 -37 89t37 89t89 37t89 -37t37 -89t-37 -89t-89 -37t-89 37z" />
    <glyph glyph-name="ellipsis" unicode="&#x2026;" horiz-adv-x="642" 
d="M576 87v-54q0 -18 -11.5 -30t-29.5 -12q-17 0 -29 12.5t-12 29.5v54q0 17 12 29.5t29 12.5t29 -12.5t12 -29.5zM363 87v-54q0 -18 -11.5 -30t-29.5 -12q-17 0 -29 12.5t-12 29.5v54q0 17 12 29.5t29 12.5t29 -12.5t12 -29.5zM148 87v-54q0 -18 -11.5 -30t-29.5 -12
q-17 0 -29 12.5t-12 29.5v54q0 17 12 29.5t29 12.5t29 -12.5t12 -29.5z" />
    <glyph glyph-name="perthousand" unicode="&#x2030;" horiz-adv-x="1095" 
d="M340 561q1 -25 0 -50q-5 -62 -46 -105q-42 -43 -103 -43t-104 43t-46 105q-2 26 0 50q1 61 45 105q43 43 105 43q61 0 103 -43q43 -43 46 -105zM115 558q-1 -22 0 -44q2 -34 23 -55.5t53 -21.5t53 22t23 56q1 19 0 43q-2 34 -23 56t-53 22t-52.5 -22t-23.5 -56zM562 336
q59 0 103 -44q43 -43 46 -104q1 -25 0 -50q-5 -63 -47 -105q-42 -43 -102 -43q-61 0 -104 43q-42 42 -47 105q-2 26 0 50q3 61 46 104q44 44 105 44zM561 263q-30 0 -51 -22t-24 -56q-1 -22 0 -44q2 -33 23 -55t52 -22q32 0 53 21.5t23 55.5q2 20 0 44q-2 34 -23 56t-53 22z
M1056 188q1 -25 0 -50q-5 -62 -46 -105q-42 -43 -103 -43t-104 43t-46 105q-2 26 0 50q1 60 45 104t105 44t103 -43q43 -43 46 -105zM906 263q-30 0 -51 -22t-24 -56q-1 -22 0 -44q2 -33 23 -55t52 -22q32 0 53.5 22t23.5 55q2 20 0 44q-2 33 -23.5 55.5t-53.5 22.5z
M156 152l391 452q10 12 26.5 13t27.5 -9q12 -10 12.5 -26t-9.5 -28l-392 -452q-11 -11 -26.5 -12t-27.5 9q-11 10 -11.5 26t9.5 27z" />
    <glyph glyph-name="guilsinglleft" unicode="&#x2039;" horiz-adv-x="357" 
d="M48 351q0 40 44 75l121 96q13 11 29.5 9.5t26.5 -14.5t8.5 -29t-14.5 -27l-123 -96q-19 -14 0 -28l123 -97q13 -10 14.5 -26.5t-8.5 -29.5q-25 -28 -56 -4l-121 96q-44 38 -44 75z" />
    <glyph glyph-name="guilsinglright" unicode="&#x203a;" horiz-adv-x="357" 
d="M310 351q0 -40 -44 -75l-120 -96q-31 -24 -56 4q-11 13 -9.5 29.5t14.5 26.5l123 97q19 14 0 28l-123 96q-13 10 -14.5 26.5t9.5 29.5q10 13 26 14.5t30 -9.5l120 -96q44 -35 44 -75z" />
    <glyph glyph-name="fraction" unicode="&#x2044;" horiz-adv-x="300" 
d="M-18 19l274 688q6 15 20.5 21t28.5 1t20 -20t0 -29l-272 -689q-6 -14 -20.5 -20t-28.5 -1t-20.5 19.5t-1.5 29.5z" />
    <glyph glyph-name="Euro" unicode="&#x20ac;" horiz-adv-x="650" 
d="M87 448h48q11 117 78 189t182 72q131 0 204 -78q12 -12 12 -28q0 -17 -11.5 -28t-27.5 -11q-17 0 -34 17q-31 29 -61.5 40t-81.5 11q-77 0 -123 -49t-54 -135h183q16 0 27.5 -10.5t11.5 -26.5q0 -15 -11.5 -25.5t-27.5 -10.5h-187v-49h187q16 0 27.5 -10.5t11.5 -26.5
q0 -15 -11.5 -25.5t-27.5 -10.5h-183q8 -88 53 -136.5t124 -48.5q48 0 80 11.5t63 39.5q26 24 49.5 15t23.5 -36q0 -17 -12 -29q-73 -78 -204 -78q-115 0 -182 72q-68 72 -78 190h-48q-23 -2 -32.5 17t0 38.5t32.5 17.5h46v49h-46q-23 -2 -32.5 17t0 38.5t32.5 17.5z" />
    <glyph glyph-name="trademark" unicode="&#x2122;" horiz-adv-x="635" 
d="M249 647h-64v-186q0 -9 -6.5 -15t-15.5 -6q-21 0 -21 21v186h-65q-9 0 -15.5 6t-6.5 15q0 10 6.5 16t15.5 6h172q8 0 14 -6t6 -16q0 -9 -6 -15t-14 -6zM339 693q28 0 36 -29l44 -173l45 173q8 29 36 29q30 0 36 -34l34 -192q5 -23 -16 -28q-23 -5 -27 19l-29 182
l-45 -170q-7 -30 -34 -30q-25 0 -33 30l-45 169l-29 -181q-4 -24 -27 -19q-20 3 -16 28l33 192q6 34 37 34z" />
    <glyph glyph-name="minus" unicode="&#x2212;" horiz-adv-x="628" 
d="M527 311h-426q-17 0 -29 11.5t-12 27.5q0 17 12 28.5t29 11.5h426q17 0 29 -11.5t12 -28.5q0 -16 -12 -27.5t-29 -11.5z" />
    <glyph glyph-name="lessequal" unicode="&#x2264;" horiz-adv-x="628" 
d="M473 -10h-318q-17 0 -29 11.5t-12 28.5t12 28t29 11h318q17 0 29 -11t12 -28q0 -16 -12 -28t-29 -12zM505 590q9 -15 5 -31.5t-18 -24.5l-277 -157q-12 -7 -12 -15t12 -15l277 -157q14 -8 18 -25t-5 -31q-8 -14 -24 -18t-30 4l-285 164q-51 32 -51 78t51 77l285 164
q14 9 30 5t24 -18z" />
    <glyph glyph-name="greaterequal" unicode="&#x2265;" horiz-adv-x="628" 
d="M473 -10h-318q-17 0 -29 12t-12 28q0 17 12 28t29 11h318q17 0 29 -11t12 -28t-12 -28.5t-29 -11.5zM122 590q9 14 25 18t30 -5l285 -164q50 -30 50 -77q0 -48 -50 -78l-285 -164q-14 -8 -30 -4t-25 18q-8 14 -4 31t18 25l277 157q12 7 12 15t-12 15l-277 157
q-14 8 -18 24.5t4 31.5z" />
    <glyph glyph-name="fl" unicode="&#xfb02;" horiz-adv-x="662" 
d="M76 509h35v46q0 76 41 119.5t116 43.5q52 0 88 -11q32 -9 32 -38q0 -15 -10.5 -25.5t-28.5 -10.5q-5 0 -35.5 4.5t-43.5 4.5q-78 0 -78 -93v-40h140q24 2 33.5 -17.5t0 -39t-33.5 -17.5h-140v-397q0 -18 -11.5 -30t-28.5 -12t-29 12t-12 30v397h-35q-24 -2 -33.5 17.5
t0 39t33.5 17.5zM570 669v-631q0 -18 -11.5 -30t-29.5 -12q-17 0 -28.5 12t-11.5 30v631q0 17 11.5 29t28.5 12t29 -12t12 -29z" />
    <glyph glyph-name="NULL" horiz-adv-x="0" 
 />
    <glyph glyph-name="CR" horiz-adv-x="333" 
 />
    <glyph glyph-name="Q.alt" horiz-adv-x="730" 
d="M333 -124v117q-106 14 -176 90q-71 77 -78 186q-7 83 0 162q8 120 90 199q83 80 203 80t203 -81q85 -80 92 -198q6 -79 0 -162q-7 -108 -79 -186q-70 -77 -177 -90v-117q0 -17 -11.5 -28.5t-27.5 -11.5t-27.5 12t-11.5 28zM411 197v-125q72 13 119.5 67.5t54.5 133.5
q8 77 0 155q-7 87 -68 145q-58 58 -145 58q-86 0 -145 -57q-58 -57 -66 -146q-8 -77 0 -155q7 -79 53.5 -133.5t118.5 -67.5v125q0 17 11.5 28.5t27.5 11.5q17 0 28 -11.5t11 -28.5z" />
    <glyph glyph-name="r.alt" horiz-adv-x="377" 
d="M256 532q42 0 78 -9q32 -8 32 -39q0 -15 -11 -26t-29 -11q-6 0 -30 4t-34 4q-60 0 -95 -30v-384q0 -17 -12 -29.5t-29 -12.5t-29 12.5t-12 29.5v403q0 20 17 34q58 54 154 54z" />
    <glyph glyph-name="zero.onum" horiz-adv-x="629" 
d="M321 534q102 0 169 -58q69 -58 82 -157q8 -62 -1 -124q-12 -95 -81 -153q-69 -57 -169 -57t-170 58q-69 58 -81 158q-7 55 1 124q12 95 81 152t169 57zM148 304q-4 -46 0 -89q8 -72 54.5 -113t118.5 -41q73 0 119.5 41t53.5 114q4 46 0 89q-8 72 -54.5 113t-118.5 41
q-73 0 -119 -40.5t-54 -114.5z" />
    <glyph glyph-name="one.onum" horiz-adv-x="460" 
d="M288 527q18 0 29.5 -12t11.5 -30v-447q0 -18 -12 -30t-29 -12t-29 12.5t-12 29.5v389l-136 -59q-16 -7 -32 -1.5t-23 20.5t-0.5 31t22.5 23l187 80q12 6 23 6z" />
    <glyph glyph-name="two.onum" horiz-adv-x="588" 
d="M59 65q-1 71 46 115.5t146 75.5q103 32 138 55q36 25 36 58q0 41 -34 64.5t-102 23.5q-48 0 -89 -18.5t-64 -47.5q-18 -22 -37 -22q-18 0 -27.5 10t-9.5 26q0 20 19 42q30 37 86.5 61t121.5 24q105 0 161 -44.5t56 -118.5q0 -59 -45 -100t-146 -70q-97 -27 -139 -55
q-38 -26 -38 -65h341q16 0 28.5 -12t12.5 -28q0 -17 -12 -28t-29 -11h-360q-28 0 -44 16.5t-16 48.5z" />
    <glyph glyph-name="three.onum" horiz-adv-x="591" 
d="M454 420l-154 -165q90 2 149 -51t59 -136q0 -129 -114 -198q-113 -69 -308 -58q-18 1 -29.5 11.5t-12.5 26.5q-1 19 12.5 30.5t34.5 10.5q151 -13 243 35q92 47 92 140q0 56 -37 88.5t-98 32.5q-17 0 -44.5 -4t-28.5 -4q-16 0 -27.5 11t-11.5 27q0 17 12 29l176 190h-282
q-18 0 -30 11t-12 28q0 18 12 29t30 11h322q26 0 43.5 -16t17.5 -41q0 -21 -14 -38z" />
    <glyph glyph-name="four.onum" horiz-adv-x="665" 
d="M576 0h-74v-131q0 -17 -12 -29t-29 -12t-28.5 12t-11.5 29v131h-291q-31 0 -51 18.5t-18 47.5q0 23 18 47l266 347q21 28 28 36q30 32 62 32q67 0 67 -84v-365h74q17 0 28.5 -11t11.5 -29q0 -16 -12 -27.5t-28 -11.5zM421 433l-272 -354h272v354z" />
    <glyph glyph-name="five.onum" horiz-adv-x="606" 
d="M543 84q0 -133 -115 -203q-114 -72 -311 -72q-19 0 -31 11t-12 29t11.5 29t29.5 11q167 0 256.5 49t89.5 144q0 52 -38 85t-99 33q-76 0 -162 -44q-29 -12 -48.5 0.5t-19.5 39.5v252q0 67 69 67h297q18 0 30 -11.5t12 -28.5t-12 -28t-30 -11h-290v-197q78 39 159 39
q97 0 155 -55q59 -56 59 -139z" />
    <glyph glyph-name="six.onum" horiz-adv-x="668" 
d="M514 623q-2 0 -17 2t-37.5 4t-41.5 2q-102 0 -166 -60t-74 -167q93 43 182 43q111 0 176 -59t65 -161t-66 -170q-64 -67 -185 -67q-143 1 -207 102t-52 272q10 166 95.5 256t231.5 90q61 0 102 -10q33 -8 33 -39q0 -16 -10.5 -27t-28.5 -11zM353 370q-87 0 -181 -51
q-7 -122 39 -186t139 -64q80 0 124.5 43.5t44.5 114.5q0 69 -42.5 106t-123.5 37z" />
    <glyph glyph-name="seven.onum" horiz-adv-x="527" 
d="M76 515h367q26 0 43 -15t17 -40q0 -19 -13 -39q-141 -233 -198 -347q-56 -111 -84 -232q-6 -21 -24.5 -29t-33.5 1q-29 14 -17 55q31 112 91 236q55 115 185 331h-333q-17 0 -29.5 11.5t-12.5 27.5q0 18 12 29t30 11z" />
    <glyph glyph-name="eight.onum" horiz-adv-x="681" 
d="M341 631q-82 0 -123.5 -29t-41.5 -81q0 -55 44 -86t120 -31q77 0 120 32t43 87q0 108 -162 108zM336 324q-85 0 -130 -34.5t-45 -94.5q0 -59 45 -92.5t133 -33.5t135 34.5t47 90.5q0 60 -49.5 95t-135.5 35zM78 192q0 65 33.5 111t90.5 64q-49 19 -78 58.5t-29 94.5
q0 90 64 140t180 50t181 -49.5t65 -136.5q0 -112 -105 -156q57 -18 90 -63.5t33 -111.5q0 -94 -68.5 -148.5t-193.5 -54.5t-194 54t-69 148z" />
    <glyph glyph-name="nine.onum" horiz-adv-x="663" 
d="M156 -78l53 3l49 4q35 3 48 7l42 12q7 2 13 4.5t10 4t10 5t8 5l8 6t7.5 5.5t9 7.5t8.5 7.5q48 38 67 142q-90 -41 -178 -41q-109 0 -174 60q-64 61 -64 165q0 103 65 170q66 67 184 67q268 0 257 -348q-7 -199 -108 -280q-101 -82 -312 -87q-25 -1 -36.5 18.5t-2 40.5
t35.5 22zM323 171q37 0 66 7q25 6 52 16l56 26q4 135 -36.5 196t-138.5 61q-82 0 -124.5 -41.5t-42.5 -115.5q0 -149 168 -149z" />
    <glyph glyph-name="sterling.alt" horiz-adv-x="587" 
d="M98 368h68l22 103q25 125 77.5 182t142.5 57q61 0 108 -32q28 -20 12 -51q-17 -32 -55 -12q-36 16 -73 16q-52 0 -82 -38t-50 -131l-21 -94h163q18 0 30 -10.5t12 -28.5q0 -17 -11.5 -26t-30.5 -9h-181q-36 -132 -65 -192q-5 -12 -5 -15q0 -8 11 -8h329q16 0 28.5 -11.5
t12.5 -28.5t-12 -28t-30 -11h-326q-43 0 -68.5 20.5t-25.5 56.5q0 18 10 42l23 56q16 39 38 119h-51q-18 0 -29.5 9.5t-11.5 25.5q0 18 11.5 28.5t29.5 10.5z" />
    <glyph glyph-name="commaaccent" horiz-adv-x="360" 
d="M232 -70v-29q0 -50 -25 -96q-16 -28 -43 -28q-15 0 -26 11t-11 26q0 2 11.5 33t11.5 57v26q0 17 12 28.5t29 11.5t29 -12t12 -28z" />
    <glyph glyph-name="caronSlovak" horiz-adv-x="360" 
d="M204 575q-15 -25 -38 -25q-16 0 -27 10.5t-11 24.5q0 10 13 35q14 26 14 54v22q0 17 11 28.5t27 11.5q17 0 28 -11.5t11 -28.5v-20q0 -52 -28 -101z" />
    <glyph glyph-name="g.alt" horiz-adv-x="548" 
d="M63 -16q22 0 38 -22q60 -82 165 -82q62 0 99.5 21t37.5 57q0 56 -94 56h-96q-63 0 -97 26.5t-34 69.5q0 56 51 82q-41 24 -65 65.5t-24 90.5q0 77 56 131t149 54q51 0 107 -24h129q16 0 27.5 -11t11.5 -27q0 -15 -11.5 -25.5t-27.5 -10.5h-58q28 -38 28 -88
q0 -75 -54 -127q-51 -51 -141 -53h-17q-82 0 -82 -40q0 -33 51 -33h103q83 0 127.5 -35.5t44.5 -99.5q0 -68 -59 -112.5t-162 -44.5q-75 0 -134.5 29.5t-90.5 74.5q-15 22 -15 43q0 14 10.5 24.5t26.5 10.5zM249 235q58 0 92.5 31.5t34.5 82.5q0 49 -34 79.5t-91 30.5
q-59 0 -94 -30.5t-35 -80.5q0 -51 35 -82t92 -31z" />
    <glyph glyph-name="gbreve.alt" horiz-adv-x="548" 
d="M63 -16q22 0 38 -22q60 -82 165 -82q62 0 99.5 21t37.5 57q0 56 -94 56h-96q-63 0 -97 26.5t-34 69.5q0 56 51 82q-41 24 -65 65.5t-24 90.5q0 77 56 131t149 54q51 0 107 -24h129q16 0 27.5 -11t11.5 -27q0 -15 -11.5 -25.5t-27.5 -10.5h-58q28 -38 28 -88
q0 -75 -54 -127q-51 -51 -141 -53h-17q-82 0 -82 -40q0 -33 51 -33h103q83 0 127.5 -35.5t44.5 -99.5q0 -68 -59 -112.5t-162 -44.5q-75 0 -134.5 29.5t-90.5 74.5q-15 22 -15 43q0 14 10.5 24.5t26.5 10.5zM249 235q58 0 92.5 31.5t34.5 82.5q0 49 -34 79.5t-91 30.5
q-59 0 -94 -30.5t-35 -80.5q0 -51 35 -82t92 -31zM304 694q8 24 33 24q14 0 24 -10t10 -24q0 -6 -3 -15q-12 -37 -45.5 -61.5t-75.5 -24.5t-75.5 24.5t-45.5 61.5q-3 9 -3 15q0 14 10 24t24 10q24 0 33 -24q5 -28 31 -39.5t52 0t31 39.5z" />
    <glyph glyph-name="gdotaccent.alt" horiz-adv-x="548" 
d="M63 -16q22 0 38 -22q60 -82 165 -82q62 0 99.5 21t37.5 57q0 56 -94 56h-96q-63 0 -97 26.5t-34 69.5q0 56 51 82q-41 24 -65 65.5t-24 90.5q0 77 56 131t149 54q51 0 107 -24h129q16 0 27.5 -11t11.5 -27q0 -15 -11.5 -25.5t-27.5 -10.5h-58q28 -38 28 -88
q0 -75 -54 -127q-51 -51 -141 -53h-17q-82 0 -82 -40q0 -33 51 -33h103q83 0 127.5 -35.5t44.5 -99.5q0 -68 -59 -112.5t-162 -44.5q-75 0 -134.5 29.5t-90.5 74.5q-15 22 -15 43q0 14 10.5 24.5t26.5 10.5zM249 235q58 0 92.5 31.5t34.5 82.5q0 49 -34 79.5t-91 30.5
q-59 0 -94 -30.5t-35 -80.5q0 -51 35 -82t92 -31zM219 680q13 13 32 13t32 -13t13 -32t-13 -32t-32 -13t-32 13t-13 32t13 32z" />
    <glyph glyph-name="gcommaaccent.alt" horiz-adv-x="548" 
d="M63 -16q22 0 38 -22q60 -82 165 -82q62 0 99.5 21t37.5 57q0 56 -94 56h-96q-63 0 -97 26.5t-34 69.5q0 56 51 82q-41 24 -65 65.5t-24 90.5q0 77 56 131t149 54q51 0 107 -24h129q16 0 27.5 -11t11.5 -27q0 -15 -11.5 -25.5t-27.5 -10.5h-58q28 -38 28 -88
q0 -75 -54 -127q-51 -51 -141 -53h-17q-82 0 -82 -40q0 -33 51 -33h103q83 0 127.5 -35.5t44.5 -99.5q0 -68 -59 -112.5t-162 -44.5q-75 0 -134.5 29.5t-90.5 74.5q-15 22 -15 43q0 14 10.5 24.5t26.5 10.5zM249 235q58 0 92.5 31.5t34.5 82.5q0 49 -34 79.5t-91 30.5
q-59 0 -94 -30.5t-35 -80.5q0 -51 35 -82t92 -31zM286 739v-29q0 -50 -25 -96q-16 -28 -43 -28q-15 0 -26 11t-11 26q0 3 11.5 33t11.5 57v26q0 17 12 28.5t29 11.5t29 -12t12 -28z" />
    <glyph glyph-name="ampersand.alt" horiz-adv-x="694" 
d="M503 238q3 70 64 70h78q17 0 29.5 -11.5t12.5 -28.5t-12 -29t-29 -12h-67q-8 -110 -82 -173q-73 -63 -186 -63q-124 0 -193 54q-69 55 -69 141q0 126 132 175q-89 66 -89 157q0 80 60 133q61 52 156 52q100 0 159 -51q60 -51 60 -129q0 -82 -52 -128t-172 -73
q-97 -21 -134 -52q-36 -30 -36 -82q0 -55 46.5 -87t129.5 -32q87 0 139 46.5t55 122.5zM175 515q0 -32 16 -57q23 -34 80 -65q101 20 137 45q36 26 36 80q0 46 -35.5 76.5t-99.5 30.5t-99 -30.5t-35 -79.5z" />
    <glyph glyph-name="racute.alt" horiz-adv-x="377" 
d="M256 532q42 0 78 -9q32 -8 32 -39q0 -15 -11 -26t-29 -11q-6 0 -30 4t-34 4q-60 0 -95 -30v-384q0 -17 -12 -29.5t-29 -12.5t-29 12.5t-12 29.5v403q0 20 17 34q58 54 154 54zM131 625l136 70q9 4 17 4q14 0 24 -10t10 -24q0 -20 -19 -30l-135 -70q-8 -5 -18 -5
q-14 0 -23.5 10t-9.5 24q0 20 18 31z" />
    <glyph glyph-name="rcaron.alt" horiz-adv-x="377" 
d="M256 532q42 0 78 -9q32 -8 32 -39q0 -15 -11 -26t-29 -11q-6 0 -30 4t-34 4q-60 0 -95 -30v-384q0 -17 -12 -29.5t-29 -12.5t-29 12.5t-12 29.5v403q0 20 17 34q58 54 154 54zM343 638l-94 -70q-19 -12 -29 -12q-14 0 -30 12l-93 70q-14 11 -14 28q0 14 9.5 24t24.5 10
q11 0 22 -8l81 -61l81 61q11 8 23 8q14 0 24 -10t10 -24q0 -18 -15 -28z" />
    <glyph glyph-name="rcommaaccent.alt" horiz-adv-x="377" 
d="M256 532q42 0 78 -9q32 -8 32 -39q0 -15 -11 -26t-29 -11q-6 0 -30 4t-34 4q-60 0 -95 -30v-384q0 -17 -12 -29.5t-29 -12.5t-29 12.5t-12 29.5v403q0 20 17 34q58 54 154 54zM173 -70v-29q0 -50 -25 -96q-16 -28 -43 -28q-15 0 -26 11t-11 26q0 2 11.5 33t11.5 57v26
q0 17 12 28.5t29 11.5t29 -12t12 -28z" />
    </font>
</defs>
</svg>
