<svg xmlns="http://www.w3.org/2000/svg" viewBox="0 0 100 100"><path d="M30.7 15.9C19.8 20.3 12.4 30.3 11 41.6c-1.8-6.9-1.4-13.8.8-19.8C8.7 24 6 27 4 30.6-1.2 40-.4 51.3 5.1 60.3c.6-5.4 2.6-10.6 6-15.1.6-3 1.7-6 3.3-8.8 5.9-10.5 16.8-16.5 28-16.5 1.4 0 2.7.1 4.1.3-5.1-2.9-10.5-4.3-15.8-4.3z"/><path d="M25 34.3c-5.8 2.5-10.5 6.3-13.9 10.9-3.3 4.5-5.4 9.7-6 15.1-.5 4.7.1 9.5 2.1 14 4.2 9.9 13.6 16.2 24.2 17.3-3.9-3.7-6.8-8.6-8.3-14-2-2.4-3.7-5.1-4.9-8C12.8 57.2 16 43.3 25 34.3z"/><path d="M23 60.1c-1.6 6.1-1.4 12.2.1 17.7 1.5 5.4 4.4 10.2 8.3 14 3.4 3.3 7.6 5.7 12.4 6.9 2.3.6 4.7.9 7 .9 8 0 15.8-3.5 21.5-9.4a31.269 31.269 0 01-16.1-2h-1.3c-2.7 0-5.3-.3-8-1C33.6 83.7 24.6 72.7 23 60.1z"/><path d="M95.9 56.7c-2.6 4.7-6.6 8.7-11.4 11.5-1.8 2.5-4 4.8-6.5 6.8-5.8 4.5-12.7 6.7-19.6 6.7-5.7 0-11.3-1.5-16.3-4.4 3.8 4.9 8.7 8.5 14 10.7 3.8 1.5 7.8 2.3 11.7 2.3 1.5 0 2.9-.1 4.4-.3 4.7-.7 9.1-2.5 13-5.6 8.6-6.5 12.2-17.2 10.7-27.7z"/><path d="M84.1 17.6c2.1 5 2.9 10.6 2.1 16.1.9 3 1.4 6.1 1.4 9.3 0 13.5-8.3 25.1-20.2 29.8 6.2 0 12.1-1.7 17-4.6 4.8-2.8 8.8-6.8 11.4-11.5 2.3-4.1 3.6-8.8 3.6-13.7.1-10.8-6.1-20.2-15.3-25.4z"/><path d="M58.1.5c-4.1 0-8.3.8-12.2 2.5 5.2 1.4 10.1 4.2 14 8.2 2.9 1.1 5.7 2.6 8.2 4.6C78.8 24 82.9 37.7 79.4 50c3.8-5 6.1-10.6 6.8-16.3.7-5.6 0-11.1-2.1-16.1-1.8-4.3-4.7-8.2-8.7-11.2C70.3 2.4 64.2.5 58.1.5z"/><path d="M38.8 2.1c-2.3 0-4.7.3-7 .9-9.5 2.5-16.7 9.7-19.9 18.7-2.2 6.1-2.6 13-.8 19.8 1.4-11.3 8.8-21.3 19.6-25.7 1.3-.5 2.6-1 4-1.3 2.7-.7 5.4-1 8.1-1 10.2 0 19.8 4.9 25.8 13.1-1.6-6.1-4.7-11.3-8.7-15.3-3.9-4-8.8-6.8-14-8.2-2.3-.7-4.7-1-7.1-1z"/></svg>