<?xml version="1.0" standalone="no"?>
<!DOCTYPE svg PUBLIC "-//W3C//DTD SVG 1.1//EN" "http://www.w3.org/Graphics/SVG/1.1/DTD/svg11.dtd" >
<svg xmlns="http://www.w3.org/2000/svg" xmlns:xlink="http://www.w3.org/1999/xlink" version="1.1">
<metadata></metadata>
<defs>
<font id="gobold_bold_italicitalic" horiz-adv-x="1053" >
<font-face units-per-em="2048" ascent="1638" descent="-410" />
<missing-glyph horiz-adv-x="508" />
<glyph horiz-adv-x="0" />
<glyph unicode="&#xd;" horiz-adv-x="508" />
<glyph unicode=" "  horiz-adv-x="508" />
<glyph unicode="&#x09;" horiz-adv-x="508" />
<glyph unicode="&#xa0;" horiz-adv-x="508" />
<glyph unicode="!" horiz-adv-x="616" d="M116 -20l71 365h375l-71 -365h-375zM240 510l265 1472h375l-307 -1472h-333z" />
<glyph unicode="&#x22;" horiz-adv-x="1020" d="M407 1291l99 692h348l-171 -692h-276zM839 1291l99 692h348l-171 -692h-276z" />
<glyph unicode="#" horiz-adv-x="1399" d="M100 -20l287 730h-169l37 193h208l86 217h-209l37 193h248l263 670h287l-263 -670h195l263 670h287l-263 -670h180l-37 -193h-219l-86 -217h220l-37 -193h-259l-287 -730h-287l287 730h-195l-287 -730h-287zM750 903h195l86 217h-195z" />
<glyph unicode="$" horiz-adv-x="1103" d="M186 273q0 63 15 140l55 283h333l-55 -283q-22 -113 76 -113t120 113l43 223q26 134 -193 317q-236 196 -182 476l36 184q73 374 372 420l35 180h282l-35 -180q224 -37 224 -280q0 -63 -15 -140l-55 -284h-334l55 284q22 112 -75 113h-2q-97 0 -119 -113l-35 -178 q-24 -123 196 -305q237 -196 184 -469l-48 -248q-73 -375 -373 -420l-47 -243h-282l47 243q-223 37 -223 280z" />
<glyph unicode="%" horiz-adv-x="1747" d="M327 1001q0 36 8 78l137 704q51 262 315 262q263 0 212 -262l-137 -704q-51 -262 -314 -262q-221 0 -221 184zM371 -20l1127 2003h227l-1126 -2003h-228zM551 1079q-11 -58 37 -58q47 0 58 58l137 704q11 58 -36 58h-2q-46 0 -57 -58zM1142 243l137 704q51 262 314 262 q221 0 221 -184q0 -36 -8 -78l-137 -704q-51 -262 -315 -262h-2q-261 0 -210 262zM1358 243q-11 -58 36 -58q48 0 59 58l137 704q12 58 -35 58h-2q-46 0 -58 -58z" />
<glyph unicode="&#x26;" horiz-adv-x="1233" d="M186 274q0 63 15 139l63 327q40 204 187 273q-120 69 -81 273l58 295q78 401 423 430q45 3 91 3q39 0 79 -2q349 -24 270 -431l-21 -104h-333l21 104q20 104 -29 111q-20 4 -45 4q-21 0 -46 -3q-57 -6 -77 -112l-58 -295q-16 -82 43 -107q13 -6 34 -7h98l26 134h333 l-26 -134h180l-62 -319h-180l-85 -440q-81 -415 -453 -431q-35 -1 -66 -1q-63 0 -108 5q-251 31 -251 288zM534 413q-18 -93 10 -105q16 -9 63 -9q11 0 25 1q77 3 99 113l85 440h-98q-21 -1 -37 -7q-68 -24 -84 -106z" />
<glyph unicode="'" horiz-adv-x="588" d="M407 1291l99 692h348l-171 -692h-276z" />
<glyph unicode="(" horiz-adv-x="594" d="M139 42q0 56 13 124l317 1632q83 427 528 432l-52 -271q-112 -3 -134 -115l-335 -1725q-22 -111 89 -114l-53 -272q-373 4 -373 309z" />
<glyph unicode=")" horiz-adv-x="594" d="M-22 -267l53 272q111 3 133 114l335 1725q22 112 -88 115l52 271q373 -4 373 -308q0 -57 -13 -124l-317 -1632q-83 -428 -528 -433z" />
<glyph unicode="*" horiz-adv-x="1062" d="M444 1652q0 13 3 27q5 29 24 66q56 112 144 112q37 0 77 -22q41 -24 48 -24q1 0 2 1q0 1 -2 3q0 -1 5 68q2 13 4 25q24 124 175 125h4q150 0 127 -119q-3 -17 -10 -37q-19 -51 -21 -61v-2l1 1v-1q6 0 66 25q41 19 76 19q86 0 102 -110q2 -18 2 -34q0 -19 -3 -36 q-19 -98 -143 -116q-18 -2 -41 -2q-50 0 -51 -3q0 -2 9 -4q20 -10 58 -62q34 -45 25 -91q-11 -60 -94 -113q-65 -42 -115 -42q-72 0 -96 84q-14 44 -20 44q-1 0 -2 -5v-3q0 3 -1 3q-5 0 -40 -46q-57 -76 -127 -76q-47 0 -95 39q-65 54 -54 113q9 48 69 96q62 53 68 55 q15 3 15 5q1 3 -46 3q-30 0 -50 5q-93 18 -93 90z" />
<glyph unicode="+" horiz-adv-x="1097" d="M284 845l53 273h288l56 287h282l-56 -287h287l-53 -273h-287l-56 -287h-282l56 287h-288z" />
<glyph unicode="," horiz-adv-x="641" d="M109 -347l122 327h-114l71 365h401l-61 -309l-187 -383h-232z" />
<glyph unicode="-" horiz-adv-x="836" d="M210 821l53 273h736l-53 -273h-736z" />
<glyph unicode="." horiz-adv-x="615" d="M116 -20l71 365h375l-71 -365h-375z" />
<glyph unicode="/" horiz-adv-x="807" d="M56 -20l788 2003h287l-788 -2003h-287z" />
<glyph unicode="0" horiz-adv-x="1103" d="M180 252q0 59 14 129l233 1200q84 433 515 433q362 0 362 -303q0 -60 -14 -130l-233 -1200q-84 -432 -516 -432q-361 0 -361 303zM527 381q-22 -113 76 -113q99 0 121 113l233 1200q22 113 -76 113h-2q-97 0 -119 -113z" />
<glyph unicode="1" horiz-adv-x="1123" d="M126 -20l62 319h265l265 1364h-265l62 319h598l-327 -1683h265l-62 -319h-863z" />
<glyph unicode="2" horiz-adv-x="1123" d="M126 -20l86 441q53 274 364 469q291 183 316 306l75 385q22 113 -75 113h-2q-98 0 -120 -113l-55 -283h-333l55 283q84 433 515 433q362 0 362 -303q0 -60 -14 -130l-76 -392q-54 -279 -366 -475q-292 -183 -318 -317l-19 -98h530l-62 -319h-863z" />
<glyph unicode="3" horiz-adv-x="1123" d="M190 253q0 59 14 129l55 283h330l-55 -283q-19 -113 80 -113q98 0 123 113l65 334q18 95 -11 109q-16 8 -60 8h-121l62 319h143q32 0 47 8q29 15 46 104l62 317q19 113 -79 113q-99 0 -124 -113l-55 -283h-330l55 283q84 432 516 433q361 0 361 -303q0 -59 -14 -130 l-62 -319q-40 -204 -187 -273q121 -69 81 -273l-65 -334q-84 -433 -515 -433q-362 1 -362 304z" />
<glyph unicode="4" horiz-adv-x="1123" d="M142 461l53 271l746 1250h404l-234 -1202h109l-62 -319h-109l-93 -481h-333l93 481h-574zM542 780h236l116 599z" />
<glyph unicode="5" horiz-adv-x="1124" d="M181 252q0 59 14 129l49 252h333l-49 -252q-22 -113 76 -113q99 0 121 113l108 557q18 92 -10 105q-17 9 -64 9q-12 0 -25 -1q-65 -3 -84 -58l-23 -98h-333l255 1087h820l-62 -319h-500l-81 -335q38 36 175 36q19 0 38 -2q157 -14 219 -129q48 -91 8 -295l-108 -557 q-84 -432 -516 -432q-361 0 -361 303z" />
<glyph unicode="6" horiz-adv-x="1123" d="M190 252q0 59 14 129l9 49l224 1151q84 433 515 433q362 0 362 -303q0 -60 -14 -130l-55 -283h-333l55 283q22 113 -76 113h-2q-97 0 -119 -113l-82 -425q50 39 177 39q22 0 46 -2q144 -15 209 -105q67 -91 23 -317l-67 -341l-9 -49q-84 -432 -516 -432q-361 0 -361 303z M537 381q-22 -113 76 -113q99 0 121 113l9 49l67 341q18 93 -11 105q-16 9 -63 9q-12 0 -25 -1q-77 -3 -98 -113l-67 -341z" />
<glyph unicode="7" horiz-adv-x="1123" d="M263 -20l705 1683h-524l62 319h887l-43 -223l-746 -1779h-341z" />
<glyph unicode="8" horiz-adv-x="1123" d="M190 253q0 59 14 129l64 331q40 204 187 273q-120 69 -81 273l63 322q84 432 516 433q361 0 361 -303q0 -59 -14 -130l-63 -322q-39 -204 -187 -273q121 -69 81 -273l-64 -331q-84 -433 -515 -433q-362 1 -362 304zM534 382q-19 -113 80 -113q98 0 123 113l64 331 q19 95 -11 109q-16 8 -63 8q-13 0 -27 -1q-80 -3 -102 -116zM705 1261q-23 -117 78 -117q102 0 125 117l62 320q19 113 -79 113q-99 0 -124 -113z" />
<glyph unicode="9" horiz-adv-x="1123" d="M190 252q0 59 14 129l55 284h333l-55 -284q-22 -112 76 -113h2q97 0 119 113l83 426q-53 -40 -181 -40q-20 0 -43 2q-144 15 -209 105q-66 92 -23 317l76 390q84 432 516 433q361 0 361 -303q0 -59 -14 -130l-233 -1200q-84 -432 -516 -432q-361 0 -361 303zM694 1191 q-17 -92 11 -105q15 -8 61 -8q12 0 28 1q76 2 97 112l76 390q22 113 -76 113q-99 0 -121 -113z" />
<glyph unicode=":" horiz-adv-x="614" d="M116 -20l71 365h374l-71 -365h-374zM311 985l71 364h374l-71 -364h-374z" />
<glyph unicode=";" horiz-adv-x="641" d="M109 -347l122 327h-114l71 365h401l-61 -309l-187 -383h-232zM312 985l71 364h375l-71 -364h-375z" />
<glyph unicode="&#x3c;" horiz-adv-x="1097" d="M279 819l60 311l951 480l-63 -323l-627 -310l508 -300l-62 -323z" />
<glyph unicode="=" horiz-adv-x="1097" d="M239 613l53 272h857l-53 -272h-857zM329 1076l53 273h857l-53 -273h-857z" />
<glyph unicode="&#x3e;" horiz-adv-x="1097" d="M189 354l63 323l625 300l-507 310l63 323l764 -480l-61 -311z" />
<glyph unicode="?" horiz-adv-x="1103" d="M232 -20l71 365h375l-71 -365h-375zM354 527l18 89q49 252 294 456q229 190 254 319l37 190q22 113 -75 113h-2q-98 0 -120 -113l-55 -283h-333l55 283q84 433 516 433q361 0 361 -303q0 -59 -14 -130l-38 -197q-50 -256 -296 -461q-229 -191 -256 -331l-13 -65h-333z " />
<glyph unicode="@" horiz-adv-x="1533" d="M227 416q0 83 19 180l155 801q122 628 759 628q536 0 536 -436q0 -82 -19 -179l-25 -127h-1l-11 -59q-57 -292 -349 -292h-84l-63 -324q-57 -292 -350 -292q-292 0 -235 292l50 257q56 291 348 291h57l47 242q13 67 -43 67h-2q-55 0 -68 -67l-17 -90h-236l17 90 q57 291 349 291q293 0 236 -291l-47 -242h84q56 0 70 68l36 186q76 392 -323 392q-400 0 -479 -405l-155 -801q-77 -392 323 -392q399 0 478 404l12 63h237l-12 -63q-122 -627 -758 -627q-536 0 -536 435zM779 608q-13 -68 43 -68q57 0 70 68l63 324l-57 1q-56 0 -69 -68z " />
<glyph unicode="A" horiz-adv-x="1107" d="M36 -20l234 715l453 1287h432l-47 -1284l-45 -718h-336l26 416h-245l-137 -416h-335zM612 716h160l38 606z" />
<glyph unicode="B" horiz-adv-x="1093" d="M126 -20l389 2002h461q333 -1 333 -297q0 -61 -15 -136l-57 -295q-40 -204 -187 -273q91 -52 90 -181q0 -42 -9 -92l-58 -296q-84 -431 -503 -432h-444zM521 299h99q98 0 120 113l58 296q3 17 3 31q0 56 -46 75q-16 7 -69 7h-64zM685 1141h64q54 0 71 6q68 25 84 107 l57 295q4 21 4 38q0 76 -80 76h-99z" />
<glyph unicode="C" horiz-adv-x="1073" d="M170 251q0 59 14 130l233 1200q84 432 515 432q362 0 362 -303q0 -59 -14 -129l-55 -284h-333l55 284q4 21 4 37q0 75 -80 76h-2q-97 0 -119 -113l-233 -1200q-4 -21 -4 -38q0 -75 80 -75q99 0 121 113l55 284h333l-55 -284q-84 -432 -516 -433q-361 0 -361 303z" />
<glyph unicode="D" horiz-adv-x="1103" d="M126 -20l389 2002h461q333 -1 333 -297q0 -61 -15 -136l-221 -1137q-84 -431 -503 -432h-444zM521 299h99q98 0 120 113l221 1137q4 21 4 38q0 76 -80 76h-99z" />
<glyph unicode="E" horiz-adv-x="994" d="M126 -20l389 2002h784l-62 -319h-451l-101 -522h388l-63 -320h-388l-101 -522h451l-62 -319h-784z" />
<glyph unicode="F" horiz-adv-x="974" d="M126 -20l389 2002h784l-62 -319h-451l-101 -522h388l-63 -320h-388l-163 -841h-333z" />
<glyph unicode="G" horiz-adv-x="1083" d="M170 251q0 59 14 130l233 1200q84 432 515 432q362 0 362 -303q0 -59 -14 -129l-55 -284h-333l55 284q4 21 4 37q0 75 -80 76h-2q-97 0 -119 -113l-233 -1200q-4 -21 -4 -38q0 -75 80 -75q99 0 121 113l86 440h-86l62 320h419l-148 -760q-84 -432 -516 -433 q-361 0 -361 303z" />
<glyph unicode="H" horiz-adv-x="1123" d="M126 -20l389 2002h333l-163 -841h197l163 841h333l-389 -2002h-333l163 841h-197l-163 -841h-333z" />
<glyph unicode="I" horiz-adv-x="603" d="M131 -20l389 2002h333l-389 -2002h-333z" />
<glyph unicode="J" horiz-adv-x="1023" d="M90 252q0 59 14 129l26 136h333l-26 -136q-4 -21 -4 -37q0 -76 81 -76q98 0 120 113l311 1601h333l-311 -1601q-84 -433 -515 -433q-362 1 -362 304z" />
<glyph unicode="K" horiz-adv-x="1116" d="M126 -20l389 2002h333l-154 -795l411 795h356l-576 -1001l187 -1001h-356l-102 798l-155 -798h-333z" />
<glyph unicode="L" horiz-adv-x="954" d="M126 -20l389 2002h333l-327 -1683h451l-62 -319h-784z" />
<glyph unicode="M" horiz-adv-x="1538" d="M126 -20l389 2002h329l54 -1327l566 1327h329l-389 -2002h-321l179 921l-375 -921h-234l-23 927l-180 -927h-324z" />
<glyph unicode="N" horiz-adv-x="1123" d="M126 -20l389 2002h329l30 -986l192 986h312l-389 -2002h-329l-26 959l-186 -959h-322z" />
<glyph unicode="O" horiz-adv-x="1083" d="M170 251q0 59 14 130l233 1200q84 432 515 432q362 0 362 -303q0 -59 -14 -129l-233 -1200q-84 -432 -516 -433q-361 0 -361 303zM517 381q-4 -21 -4 -38q0 -75 80 -75q99 0 121 113l233 1200q4 21 4 37q0 75 -80 76h-2q-97 0 -119 -113z" />
<glyph unicode="P" horiz-adv-x="1049" d="M126 -20l389 2002h437q333 -1 333 -297q0 -61 -15 -136l-57 -295q-62 -317 -367 -411q-74 -22 -203 -22h-21l-163 -841h-333zM685 1141h40q54 0 71 6q68 25 84 107l57 295q4 21 4 38q0 76 -80 76h-75z" />
<glyph unicode="Q" horiz-adv-x="1083" d="M169 243q0 62 15 138l234 1200q84 432 515 432q362 0 362 -303q0 -59 -14 -129l-234 -1200q-75 -385 -391 -424q-3 -27 303 -29l-53 -276q-283 0 -373 52q-96 54 -96 178q0 33 7 71q-275 20 -275 290zM517 381q-4 -21 -4 -38q0 -75 80 -75q99 0 121 113l234 1200 q4 20 4 36q0 76 -80 77h-2q-97 0 -119 -113z" />
<glyph unicode="R" horiz-adv-x="1102" d="M126 -20l389 2002h437q333 -1 333 -297q0 -61 -15 -136l-57 -295q-53 -272 -287 -352l142 -922h-363l-61 861h-18l-167 -861h-333zM685 1141h40q54 0 71 6q68 25 84 107l57 295q4 21 4 38q0 76 -80 76h-75z" />
<glyph unicode="S" horiz-adv-x="1083" d="M170 252q0 59 14 129l55 284h333l-55 -284q-4 -21 -4 -37q0 -76 81 -76q98 0 120 113l44 224q3 14 3 28q0 124 -198 289q-192 159 -192 374q0 49 10 101l36 184q84 432 515 432q362 0 362 -303q0 -59 -14 -129l-55 -284h-333l55 284q4 21 4 37q0 75 -80 76h-2 q-97 0 -119 -113l-34 -178q-2 -12 -2 -25q0 -115 198 -281q193 -159 193 -370q0 -47 -10 -98l-48 -248q-84 -433 -515 -433q-362 1 -362 304z" />
<glyph unicode="T" horiz-adv-x="963" d="M311 -20l327 1683h-265l62 319h863l-62 -319h-265l-327 -1683h-333z" />
<glyph unicode="U" horiz-adv-x="1103" d="M180 251q0 59 14 130l311 1601h333l-311 -1601q-4 -21 -4 -38q0 -75 80 -75q99 0 121 113l311 1601h333l-311 -1601q-84 -432 -516 -433q-361 0 -361 303z" />
<glyph unicode="V" horiz-adv-x="1107" d="M334 -20l47 1286l44 716h336l-128 -1569l483 1569h336l-234 -718l-452 -1284h-432z" />
<glyph unicode="W" horiz-adv-x="1788" d="M334 -20l47 1286l44 716h335l-108 -1473l464 1473h325l-108 -1473l464 1473h336l-234 -718l-452 -1284h-432l86 1084l-335 -1084h-432z" />
<glyph unicode="X" horiz-adv-x="1082" d="M36 -20l527 1001l-138 1001h336l54 -574l275 574h336l-526 -1001l137 -1001h-336l-40 636l-289 -636h-336z" />
<glyph unicode="Y" horiz-adv-x="1130" d="M395 -20l164 842l-4 22l-130 1138h352l23 -773l323 773h352l-572 -1138l-11 -21l-164 -843h-333z" />
<glyph unicode="Z" horiz-adv-x="930" d="M76 -20l37 192l668 1491h-365l62 319h740l-37 -192l-668 -1491h395l-62 -319h-770z" />
<glyph unicode="[" horiz-adv-x="597" d="M78 -267l485 2497h437l-53 -272h-154l-379 -1952h154l-53 -273h-437z" />
<glyph unicode="\" horiz-adv-x="807" d="M445 1983h287l10 -2003h-287z" />
<glyph unicode="]" horiz-adv-x="597" d="M-22 -267l53 273h154l379 1952h-154l53 272h437l-485 -2497h-437z" />
<glyph unicode="^" horiz-adv-x="1227" d="M324 1152l533 847h291l203 -847h-307l-114 476l-299 -476h-307z" />
<glyph unicode="_" horiz-adv-x="1082" d="M-66 -338l49 251h1082l-49 -251h-1082z" />
<glyph unicode="`" horiz-adv-x="836" d="M514 1973l20 105h258l261 -293h-286z" />
<glyph unicode="a" horiz-adv-x="1107" d="M36 -20l217 629l423 1133h432l-17 -1130l-28 -632h-336l16 366h-245l-127 -366h-335zM595 628h160l24 533z" />
<glyph unicode="b" horiz-adv-x="1093" d="M126 -20l342 1762h461q340 -1 340 -272q0 -50 -12 -109l-50 -260q-35 -179 -181 -240q95 -48 96 -168q0 -33 -8 -72l-51 -261q-74 -379 -493 -380h-444zM514 261h99q98 0 117 99l51 261q3 14 3 26q0 50 -48 67q-16 6 -69 6h-64zM658 1002h64q54 0 71 5q67 22 81 94 l50 260q3 17 3 31q0 69 -81 69h-99z" />
<glyph unicode="c" horiz-adv-x="1073" d="M163 226q0 47 11 103l205 1056q74 380 505 380q369 0 369 -277q0 -47 -11 -103l-48 -250h-333l48 250q3 17 3 31q0 68 -81 69h-2q-97 0 -117 -100l-205 -1056q-3 -16 -3 -30q0 -69 82 -69q99 0 118 99l49 250h333l-49 -250q-74 -380 -506 -381q-368 0 -368 278z" />
<glyph unicode="d" horiz-adv-x="1103" d="M126 -20l342 1762h461q340 -1 340 -272q0 -50 -12 -109l-194 -1001q-74 -379 -493 -380h-444zM514 261h99q98 0 117 99l194 1001q3 17 3 31q0 69 -81 69h-99z" />
<glyph unicode="e" horiz-adv-x="994" d="M126 -20l342 1762h784l-54 -281h-451l-89 -459h388l-55 -282h-388l-89 -459h451l-55 -281h-784z" />
<glyph unicode="f" horiz-adv-x="974" d="M126 -20l342 1762h784l-54 -281h-451l-89 -459h388l-55 -282h-388l-144 -740h-333z" />
<glyph unicode="g" horiz-adv-x="1083" d="M163 226q0 47 11 103l205 1056q74 380 505 380q369 0 369 -277q0 -47 -11 -103l-48 -250h-333l48 250q3 17 3 31q0 68 -81 69h-2q-97 0 -117 -100l-205 -1056q-3 -16 -3 -30q0 -69 82 -69q99 0 118 99l75 387h-83l55 282h416l-130 -669q-74 -380 -506 -381 q-368 0 -368 278z" />
<glyph unicode="h" horiz-adv-x="1123" d="M126 -20l342 1762h333l-143 -740h197l143 740h333l-342 -1762h-333l144 740h-197l-144 -740h-333z" />
<glyph unicode="i" horiz-adv-x="603" d="M131 -20l342 1762h333l-342 -1762h-333z" />
<glyph unicode="j" horiz-adv-x="1023" d="M83 226q0 47 11 103l23 120h333l-23 -120q-3 -16 -3 -29q0 -70 83 -70q98 0 117 99l274 1409h333l-274 -1409q-74 -381 -505 -381q-369 1 -369 278z" />
<glyph unicode="k" horiz-adv-x="1116" d="M126 -20l342 1762h333l-127 -656l384 656h356l-553 -881l211 -881h-356l-129 656l-128 -656h-333z" />
<glyph unicode="l" horiz-adv-x="954" d="M126 -20l342 1762h333l-287 -1481h451l-55 -281h-784z" />
<glyph unicode="m" horiz-adv-x="1538" d="M126 -20l342 1762h329l85 -1168l535 1168h329l-342 -1762h-321l158 811l-354 -811h-234l-44 816l-159 -816h-324z" />
<glyph unicode="n" horiz-adv-x="1123" d="M126 -20l342 1762h329l54 -868l168 868h312l-342 -1762h-329l-48 844l-164 -844h-322z" />
<glyph unicode="o" horiz-adv-x="1083" d="M163 226q0 47 11 103l205 1056q74 380 505 380q369 0 369 -277q0 -47 -11 -103l-205 -1056q-74 -380 -506 -381q-368 0 -368 278zM507 329q-3 -16 -3 -30q0 -69 82 -69q99 0 118 99l205 1056q3 17 3 31q0 68 -81 69h-2q-97 0 -117 -100z" />
<glyph unicode="p" horiz-adv-x="1049" d="M126 -20l342 1762h437q340 -1 340 -272q0 -50 -12 -109l-50 -260q-54 -279 -357 -361q-73 -20 -202 -20h-21l-144 -740h-333zM658 1002h40q54 0 71 5q67 22 81 94l50 260q3 17 3 31q0 69 -81 69h-75z" />
<glyph unicode="q" horiz-adv-x="1083" d="M155 183q0 51 12 111l205 1056q74 380 505 380q369 0 369 -277q0 -47 -11 -103l-205 -1056q-66 -339 -382 -374q-2 -23 304 -25l-47 -243q-283 0 -374 46q-99 49 -99 163q0 26 5 56q-282 18 -282 266zM500 294q-3 -16 -3 -30q0 -70 82 -70q99 0 118 100l205 1056 q3 16 3 30q0 68 -81 69h-2q-97 0 -117 -99z" />
<glyph unicode="r" horiz-adv-x="1102" d="M126 -20l342 1762h437q340 -1 340 -272q0 -50 -12 -109l-50 -260q-47 -239 -278 -310l163 -811h-363l-81 758h-18l-147 -758h-333zM658 1002h40q54 0 71 5q67 22 81 94l50 260q3 17 3 31q0 69 -81 69h-75z" />
<glyph unicode="s" horiz-adv-x="1083" d="M163 226q0 47 11 103l48 250h333l-48 -250q-3 -16 -3 -29q0 -70 83 -70q98 0 117 99l38 197q2 11 2 22q0 110 -204 257q-200 143 -200 338q0 39 8 80l31 162q74 380 505 380q369 0 369 -277q0 -47 -11 -103l-48 -250h-333l48 250q3 16 3 30q0 69 -81 70h-2 q-97 0 -117 -100l-30 -156q-2 -9 -2 -19q0 -103 205 -251q202 -143 202 -335q0 -37 -8 -77l-42 -218q-74 -381 -505 -381q-369 1 -369 278z" />
<glyph unicode="t" horiz-adv-x="963" d="M311 -20l288 1481h-265l54 281h863l-54 -281h-265l-288 -1481h-333z" />
<glyph unicode="u" horiz-adv-x="1103" d="M173 226q0 47 11 103l274 1409h333l-274 -1409q-3 -16 -3 -30q0 -69 82 -69q99 0 118 99l274 1409h333l-274 -1409q-74 -380 -506 -381q-368 0 -368 278z" />
<glyph unicode="v" horiz-adv-x="1107" d="M334 -20l17 1132l27 630h336l-91 -1381l446 1381h336l-217 -632l-422 -1130h-432z" />
<glyph unicode="w" horiz-adv-x="1788" d="M334 -20l17 1132l27 630h335l-73 -1296l429 1296h325l-73 -1296l429 1296h336l-217 -632l-422 -1130h-432l60 954l-309 -954h-432z" />
<glyph unicode="x" horiz-adv-x="1082" d="M36 -20l503 881l-161 881h336l67 -505l262 505h336l-503 -881l161 -881h-336l-55 560l-274 -560h-336z" />
<glyph unicode="y" horiz-adv-x="1130" d="M379 1742h352l41 -680l305 680h352l-546 -1002l-10 -18l-144 -742h-333l144 741l-5 19z" />
<glyph unicode="z" horiz-adv-x="930" d="M76 -20l33 169l633 1312h-365l54 281h740l-32 -169l-633 -1312h395l-55 -281h-770z" />
<glyph unicode="{" horiz-adv-x="595" d="M140 42q0 56 13 124l110 566q22 111 -89 113l53 272q112 3 133 114l110 567q83 427 528 432l-52 -271q-112 -3 -134 -115l-110 -566q-40 -205 -131 -296q56 -92 16 -297l-110 -566q-22 -111 89 -114l-53 -272q-373 4 -373 309z" />
<glyph unicode="|" horiz-adv-x="562" d="M73 -347l516 2657h282l-516 -2657h-282z" />
<glyph unicode="}" horiz-adv-x="595" d="M-22 -267l53 272q111 3 133 114l110 566q40 205 132 297q-57 91 -17 296l110 566q22 112 -88 115l52 271q373 -4 373 -308q0 -57 -13 -124l-110 -567q-21 -111 89 -114l-53 -272q-111 -2 -133 -113l-110 -566q-83 -428 -528 -433z" />
<glyph unicode="~" horiz-adv-x="1163" d="M282 935l82 97q138 165 286 165h11q96 -4 217 -110q53 -47 87 -47q17 0 32 15l99 99l162 -153l-91 -92q-121 -123 -249 -123h-13q-96 4 -216 111q-64 56 -74 58h-3q-19 0 -61 -49l-88 -106z" />
<glyph unicode="&#xa1;" horiz-adv-x="565" d="M-265 -253l307 1472h333l-265 -1472h-375zM53 1384l71 365h375l-71 -365h-375z" />
<glyph unicode="&#xa2;" horiz-adv-x="1135" d="M55 -336l191 384q-93 88 -54 288l205 1057q75 384 506 384q134 0 193 -27l113 223l187 -12l-160 -320q55 -87 24 -248l-49 -252h-224l-445 -889q12 -13 62 -13q99 0 118 97l49 253h333l-49 -253q-75 -383 -507 -383q-100 0 -148 14l-158 -315zM610 775l320 640 q6 75 -82 76q-99 0 -118 -98z" />
<glyph unicode="&#xa3;" horiz-adv-x="1176" d="M56 -20l62 319h94q99 0 121 114l94 485h-193l39 198h193l94 485q84 433 515 433q362 0 362 -303q0 -60 -14 -130l-55 -283h-333l55 283q22 113 -76 113h-2q-97 0 -119 -113l-94 -485h331l-39 -198h-331l-67 -346q-35 -182 -95 -253h497l-62 -319h-977z" />
<glyph unicode="&#xa4;" horiz-adv-x="1462" d="M242 574l209 174q3 41 14 100l52 267q10 49 19 83l-139 173l242 202l82 -101q98 76 311 76t284 -76l120 101l163 -202l-207 -173q-2 -34 -12 -83l-52 -267q-11 -58 -25 -100l141 -174l-241 -203l-90 113q-99 -68 -301 -68t-273 67l-133 -112zM798 848q-22 -113 76 -113 q99 0 121 113l52 267q22 112 -76 113h-2q-97 0 -119 -113z" />
<glyph unicode="&#xa5;" horiz-adv-x="1250" d="M290 480l39 199h262l23 119h-262l38 198h207l-112 986h352l40 -683l306 683h352l-496 -986h208l-38 -198h-262l-23 -119h262l-39 -199h-262l-97 -500h-333l97 500h-262z" />
<glyph unicode="&#xa6;" horiz-adv-x="562" d="M136 -20l160 824h282l-160 -824h-282zM328 966l152 783h282l-152 -783h-282z" />
<glyph unicode="&#xa7;" horiz-adv-x="1103" d="M142 -64q0 53 12 117l24 126h333l-24 -126q-20 -103 68 -103q85 0 105 103q35 182 -189 336q-243 165 -174 519q55 285 236 351q-146 112 -94 379q73 376 501 376q349 0 349 -271q0 -48 -11 -105l-23 -120h-333l23 120q18 95 -69 95q-86 0 -104 -95q-33 -170 191 -313 q247 -157 183 -489q-58 -300 -280 -348q187 -130 128 -435q-78 -400 -507 -400q-345 0 -345 283zM603 855q-24 -124 84 -124q109 0 133 124l8 41q24 123 -84 124h-2q-107 0 -131 -124z" />
<glyph unicode="&#xa8;" horiz-adv-x="949" d="M477 1786l55 282h292l-55 -282h-292zM873 1786l55 282h293l-55 -282h-293z" />
<glyph unicode="&#xa9;" horiz-adv-x="1513" d="M217 416q0 82 19 180l155 801q122 628 758 628q537 0 537 -437q0 -81 -19 -178l-156 -802q-122 -627 -759 -627q-535 0 -535 435zM453 580q-79 -408 336 -408q416 0 498 420l162 834q79 408 -336 408q-416 0 -498 -421zM590 657l127 651q57 294 352 294q296 0 239 -294 l-19 -97h-239l19 97q13 68 -43 69q-58 0 -71 -69l-127 -651q-13 -69 44 -69t70 69l19 96h239l-19 -96q-57 -295 -353 -295q-295 0 -238 295z" />
<glyph unicode="&#xaa;" horiz-adv-x="818" d="M168 501l45 233h669l-45 -233h-669zM236 905l140 390l270 687h298l2 -686l-11 -391h-240l6 221h-147l-79 -221h-239zM621 1313h86l7 258z" />
<glyph unicode="&#xab;" horiz-adv-x="1305" d="M325 1002l723 560l-76 -391l-251 -182l181 -176l-74 -382zM814 1002l723 560l-76 -391l-251 -182l181 -176l-74 -382z" />
<glyph unicode="&#xac;" horiz-adv-x="1117" d="M294 845l53 273h857l-109 -560h-282l56 287h-575z" />
<glyph unicode="&#xad;" horiz-adv-x="836" d="M210 821l53 273h736l-53 -273h-736z" />
<glyph unicode="&#xae;" horiz-adv-x="1513" d="M217 416q0 82 19 180l155 801q122 628 758 628q537 0 537 -437q0 -81 -19 -178l-156 -802q-122 -627 -759 -627q-535 0 -535 435zM453 580q-79 -408 336 -408q416 0 498 420l162 834q79 408 -336 408q-416 0 -498 -421zM574 449l222 1141h283q260 0 212 -247l-33 -168 q-30 -155 -180 -201l106 -525h-235l-53 491h-12l-95 -491h-215zM918 1111h26q35 0 45 3q44 14 53 61l33 168q12 65 -51 65h-49z" />
<glyph unicode="&#xaf;" horiz-adv-x="1258" d="M337 1732l49 251h1258l-49 -251h-1258z" />
<glyph unicode="&#xb0;" horiz-adv-x="927" d="M458 1644q0 44 10 97q64 328 397 328q280 0 280 -231q0 -44 -10 -97q-64 -329 -398 -329q-279 0 -279 232zM701 1741q-21 -106 79 -106q101 0 122 106q20 105 -81 105q-100 0 -120 -105z" />
<glyph unicode="&#xb1;" horiz-adv-x="1097" d="M147 140l49 252h855l-49 -252h-855zM284 845l53 273h288l56 287h282l-56 -287h287l-53 -273h-287l-56 -287h-282l56 287h-288z" />
<glyph unicode="&#xb2;" horiz-adv-x="724" d="M258 811l52 266q31 163 217 280q165 104 180 172l43 224q11 58 -35 58h-1q-47 0 -58 -58l-34 -173h-215l34 173q51 261 313 261q219 0 219 -183q0 -35 -8 -78l-44 -228q-33 -167 -219 -284q-166 -104 -180 -178l-10 -49h309l-39 -203h-524z" />
<glyph unicode="&#xb3;" horiz-adv-x="729" d="M295 968q0 37 9 83l34 175h215l-34 -176q-11 -60 38 -60q50 0 61 60l41 211q10 52 -2 57q-8 4 -31 4h-82l40 204h95q15 0 20 3q14 7 23 55l33 172q11 52 -1 57q-9 4 -34 4q-6 0 -15 -1q-37 -1 -49 -60l-33 -174h-215l34 175q34 179 154 235q82 38 160 38q72 0 140 -33 q84 -39 84 -156q0 -38 -9 -84l-34 -174q-24 -125 -101 -161q63 -36 38 -161l-41 -210q-31 -160 -130 -221q-62 -40 -177 -43h-14q-100 0 -150 34q-67 43 -67 147z" />
<glyph unicode="&#xb4;" horiz-adv-x="836" d="M477 1785l375 293h258l-20 -105l-327 -188h-286z" />
<glyph unicode="&#xb5;" horiz-adv-x="1113" d="M63 -347l389 2002h333l-248 -1275q-21 -112 77 -112q99 0 121 113l247 1274h333l-247 -1274q-76 -390 -425 -428q-20 -2 -40 -2q-102 0 -143 31l-64 -329h-333z" />
<glyph unicode="&#xb6;" horiz-adv-x="1220" d="M340 1175q0 57 15 135l69 354q40 207 131 269q72 50 271 50h650l-389 -2003h-251l342 1762h-173l-342 -1762h-251l198 1021q-179 0 -229 44q-41 37 -41 130z" />
<glyph unicode="&#xb7;" horiz-adv-x="508" d="M117 826l60 310h319l-61 -310h-318z" />
<glyph unicode="&#xb8;" horiz-adv-x="687" d="M127 -282q0 13 3 27l10 49q81 -45 127 -45q50 0 61 51v2q16 82 -119 82q-21 0 -45 -2l56 139h175l-33 -60q-3 -2 -3 -3q-1 -4 28 -4q41 0 69 -25q23 -19 23 -56q0 -14 -3 -29l-20 -99q-20 -103 -147 -113q-16 -2 -37 -2q-11 0 -22 1q-123 3 -123 87z" />
<glyph unicode="&#xb9;" horiz-adv-x="1123" d="M287 810l39 201h153l150 770h-153l39 201h366l-189 -971h153l-39 -201h-519z" />
<glyph unicode="&#xba;" horiz-adv-x="827" d="M224 486l42 215h566l-42 -215h-566zM335 1110l124 634q46 238 339 238q254 0 254 -178q0 -28 -6 -60l-124 -634q-46 -238 -340 -238q-293 0 -247 238zM572 1110q-10 -51 46 -51q57 0 67 51l124 634q9 50 -47 51q-57 0 -66 -51z" />
<glyph unicode="&#xbb;" horiz-adv-x="1305" d="M214 431l74 382l249 176l-179 182l76 391l505 -560zM703 431l74 382l249 176l-179 182l76 391l505 -560z" />
<glyph unicode="&#xbc;" horiz-adv-x="1659" d="M277 810l39 201h153l150 770h-153l39 201h366l-189 -971h153l-39 -201h-519zM427 -20l1126 2003h227l-1125 -2003h-228zM1004 256l32 165l432 724h250l-134 -689h63l-39 -200h-63l-53 -276h-212l53 276h-329zM1262 456h110l54 279z" />
<glyph unicode="&#xbd;" horiz-adv-x="1735" d="M217 810l39 201h153l150 770h-153l39 201h366l-189 -971h153l-39 -201h-519zM367 -20l1126 2003h227l-1125 -2003h-228zM1107 -20l51 266q32 163 218 280q165 104 179 172l44 224q11 58 -35 58h-1q-47 0 -58 -58l-34 -173h-215l34 173q51 261 313 261q219 0 219 -183 q0 -35 -8 -78l-45 -228q-32 -167 -219 -284q-165 -104 -179 -178l-10 -49h309l-39 -203h-524z" />
<glyph unicode="&#xbe;" horiz-adv-x="1599" d="M295 968q0 37 9 83l34 175h215l-34 -176q-11 -60 38 -60q50 0 61 60l41 211q10 52 -2 57q-8 4 -31 4h-82l40 204h95q15 0 20 3q14 7 23 55l33 172q11 52 -1 57q-9 4 -34 4q-6 0 -15 -1q-37 -1 -49 -60l-33 -174h-215l34 175q34 179 154 235q82 38 160 38q72 0 140 -33 q111 -52 75 -240l-34 -174q-24 -125 -101 -161q63 -36 38 -161l-41 -210q-31 -160 -130 -221q-62 -40 -177 -43h-14q-100 0 -150 34q-67 43 -67 147zM367 -20l1127 2003h227l-1126 -2003h-228zM945 256l32 165l432 724h250l-134 -689h63l-39 -200h-63l-54 -276h-212l54 276 h-329zM1203 456h110l54 279z" />
<glyph unicode="&#xbf;" d="M-201 18q0 59 14 130l38 197q50 256 296 461q229 191 256 331l13 65h333l-18 -89q-49 -252 -294 -456q-229 -190 -254 -319l-37 -190q-22 -113 75 -113h2q98 0 120 113l55 283h333l-55 -283q-84 -433 -516 -433q-361 0 -361 303zM425 1384l71 365h375l-71 -365h-375z" />
<glyph unicode="&#xc0;" horiz-adv-x="1091" d="M56 -20l234 715l453 1287h432l-47 -1284l-45 -718h-336l26 416h-245l-137 -416h-335zM601 2206l20 105h258l261 -293h-286zM632 716h160l38 606z" />
<glyph unicode="&#xc1;" horiz-adv-x="1091" d="M56 -20l234 715l453 1287h432l-47 -1284l-45 -718h-336l26 416h-245l-137 -416h-335zM632 716h160l38 606zM700 2018l375 293h258l-20 -105l-327 -188h-286z" />
<glyph unicode="&#xc2;" horiz-adv-x="1091" d="M56 -20l234 715l453 1287h432l-47 -1284l-45 -718h-336l26 416h-245l-137 -416h-335zM480 2019l353 292h288l242 -292h-316l-110 87l-143 -87h-314zM632 716h160l38 606z" />
<glyph unicode="&#xc3;" horiz-adv-x="1091" d="M56 -20l234 715l453 1287h432l-47 -1284l-45 -718h-336l26 416h-245l-137 -416h-335zM601 2071l60 86q102 147 226 154h8q75 0 174 -70q39 -28 64 -28q13 0 23 12l73 89l147 -112l-66 -82q-92 -112 -202 -118h-8q-75 0 -172 70q-54 38 -59 39h-2q-11 0 -133 -121z M632 716h160l38 606z" />
<glyph unicode="&#xc4;" horiz-adv-x="1091" d="M56 -20l234 715l453 1287h432l-47 -1284l-45 -718h-336l26 416h-245l-137 -416h-335zM576 2019l55 282h292l-55 -282h-292zM632 716h160l38 606zM972 2019l55 282h293l-55 -282h-293z" />
<glyph unicode="&#xc5;" horiz-adv-x="1147" d="M56 -20l234 715l453 1287h9q-12 23 5 112q42 218 265 218q189 0 189 -155q0 -29 -7 -63q-17 -89 -39 -112h10l-47 -1284l-45 -718h-336l26 416h-245l-137 -416h-335zM632 716h160l38 606zM925 2094q-12 -61 43 -61q56 0 68 61q12 60 -44 60q-55 0 -67 -60z" />
<glyph unicode="&#xc6;" horiz-adv-x="1531" d="M56 -20l234 715l453 1287h980l-62 -319h-451l-101 -522h388l-63 -320h-388l-101 -522h451l-62 -319h-784l81 416h-103l-137 -416h-335zM632 716h61l146 750z" />
<glyph unicode="&#xc7;" horiz-adv-x="1093" d="M179 244q0 62 15 137l233 1200q84 432 515 432q362 0 362 -303q0 -59 -14 -129l-55 -284h-333l55 284q22 112 -76 113h-2q-97 0 -119 -113l-233 -1200q-22 -113 76 -113q99 0 121 113l55 284h333l-55 -284q-80 -407 -452 -431q-3 -6 -4 -10q-2 -12 13 -12q8 0 22 4 q21 6 38 6q19 0 32 -9q31 -26 19 -85l-19 -99q-20 -103 -148 -113q-15 -2 -37 -2q-10 0 -22 1q-140 4 -119 114l9 49l138 -3q20 -23 35 -23q21 0 32 43l2 10q6 31 -6 31q-11 0 -37 -27l-143 47l33 82q-264 27 -264 290z" />
<glyph unicode="&#xc8;" horiz-adv-x="944" d="M126 -20l389 2002h784l-62 -319h-451l-101 -522h388l-63 -320h-388l-101 -522h451l-62 -319h-784zM549 2206l20 105h258l261 -293h-286z" />
<glyph unicode="&#xc9;" horiz-adv-x="944" d="M126 -20l389 2002h784l-62 -319h-451l-101 -522h388l-63 -320h-388l-101 -522h451l-62 -319h-784zM649 2018l375 293h258l-20 -105l-327 -188h-286z" />
<glyph unicode="&#xca;" horiz-adv-x="944" d="M153 -20l389 2002h784l-62 -319h-451l-101 -522h388l-63 -320h-388l-101 -522h451l-62 -319h-784zM455 2019l353 292h288l242 -292h-316l-110 87l-143 -87h-314z" />
<glyph unicode="&#xcb;" horiz-adv-x="944" d="M126 -20l389 2002h784l-62 -319h-451l-101 -522h388l-63 -320h-388l-101 -522h451l-62 -319h-784zM525 2019l55 282h292l-55 -282h-292zM921 2019l55 282h293l-55 -282h-293z" />
<glyph unicode="&#xcc;" horiz-adv-x="553" d="M131 -20l389 2002h333l-389 -2002h-333zM329 2206l20 105h258l261 -293h-286z" />
<glyph unicode="&#xcd;" horiz-adv-x="553" d="M161 -20l389 2002h333l-389 -2002h-333zM458 2018l375 293h258l-20 -105l-327 -188h-286z" />
<glyph unicode="&#xce;" horiz-adv-x="553" d="M159 -20l389 2002h333l-389 -2002h-333zM235 2019l353 292h288l242 -292h-316l-110 87l-143 -87h-314z" />
<glyph unicode="&#xcf;" horiz-adv-x="553" d="M131 -20l389 2002h333l-389 -2002h-333zM304 2019l55 282h292l-55 -282h-292zM700 2019l55 282h293l-55 -282h-293z" />
<glyph unicode="&#xd0;" horiz-adv-x="1165" d="M178 -20l170 876h-124l49 251h124l170 875l461 -1q333 0 333 -296q0 -61 -15 -136l-221 -1137q-84 -431 -486 -431q-5 0 -17 -1h-444zM573 299h99q98 0 120 113l221 1137q22 114 -76 114h-99l-108 -556h98l-49 -251h-98z" />
<glyph unicode="&#xd1;" horiz-adv-x="1073" d="M126 -20l389 2002h329l39 -944l182 939l313 5l-389 -2002h-329l-36 907l-176 -907h-322zM589 2071l60 86q102 147 226 154h8q75 0 174 -70q39 -28 64 -28q13 0 23 12l73 89l147 -112l-66 -82q-92 -112 -202 -118h-8q-75 0 -172 70q-54 38 -59 39h-2q-11 0 -136 -114z" />
<glyph unicode="&#xd2;" d="M180 251q0 59 14 130l233 1200q84 432 515 432q362 0 362 -303q0 -59 -14 -129l-233 -1200q-84 -432 -516 -433q-361 0 -361 303zM527 381q-22 -113 76 -113q99 0 121 113l233 1200q22 112 -76 113h-2q-97 0 -119 -113zM580 2206l20 105h258l261 -293h-286z" />
<glyph unicode="&#xd3;" d="M180 251q0 59 14 130l233 1200q84 432 515 432q362 0 362 -303q0 -59 -14 -129l-233 -1200q-84 -432 -516 -433q-361 0 -361 303zM527 381q-22 -113 76 -113q99 0 121 113l233 1200q22 112 -76 113h-2q-97 0 -119 -113zM678 2018l375 293h258l-20 -105l-327 -188h-286z " />
<glyph unicode="&#xd4;" d="M189 251q0 59 14 130l233 1200q84 432 515 432q362 0 362 -303q0 -59 -14 -129l-233 -1200q-84 -432 -516 -433q-361 0 -361 303zM467 2019l353 292h288l242 -292h-316l-110 87l-143 -87h-314zM536 381q-22 -113 76 -113q99 0 121 113l233 1200q22 112 -76 113h-2 q-97 0 -119 -113z" />
<glyph unicode="&#xd5;" d="M180 251q0 59 14 130l233 1200q84 432 515 432q362 0 362 -303q0 -59 -14 -129l-233 -1200q-84 -432 -516 -433q-361 0 -361 303zM527 381q-22 -113 76 -113q99 0 121 113l233 1200q22 112 -76 113h-2q-97 0 -119 -113zM580 2071l59 86q102 147 226 154h8q75 0 175 -70 q38 -28 63 -28q13 0 24 12l72 89l147 -112l-66 -82q-97 -100 -201 -101q-4 -1 -6 -1q-101 0 -175 54q-54 38 -59 39h-2q-11 0 -145 -114z" />
<glyph unicode="&#xd6;" d="M180 251q0 59 14 130l233 1200q84 432 515 432q362 0 362 -303q0 -59 -14 -129l-233 -1200q-84 -432 -516 -433q-361 0 -361 303zM527 381q-22 -113 76 -113q99 0 121 113l233 1200q22 112 -76 113h-2q-97 0 -119 -113zM554 2019l55 282h292l-55 -282h-292zM950 2019 l55 282h293l-55 -282h-293z" />
<glyph unicode="&#xd7;" horiz-adv-x="1111" d="M307 779l243 203l-163 203l234 196l164 -203l242 203l158 -197l-243 -202l164 -203l-234 -196l-164 202l-242 -203z" />
<glyph unicode="&#xd8;" horiz-adv-x="1103" d="M106 -226l127 292q-81 101 -39 315l233 1200q84 432 515 432q92 0 135 -13l52 121h192l-88 -204q71 -69 71 -203q0 -60 -14 -133l-233 -1200q-84 -432 -516 -433q-110 0 -159 19l-85 -193h-191zM528 305q12 -37 75 -37q99 0 121 113l130 670zM653 1027l285 654 q-13 13 -57 13h-2q-97 0 -119 -113z" />
<glyph unicode="&#xd9;" d="M180 251q0 59 14 130l311 1601h333l-311 -1601q-22 -113 76 -113q99 0 121 113l311 1601h333l-311 -1601q-84 -432 -516 -433q-361 0 -361 303zM580 2206l20 105h258l261 -293h-286z" />
<glyph unicode="&#xda;" d="M180 251q0 59 14 130l311 1601h333l-311 -1601q-22 -113 76 -113q99 0 121 113l311 1601h333l-311 -1601q-84 -432 -516 -433q-361 0 -361 303zM678 2018l375 293h258l-20 -105l-327 -188h-286z" />
<glyph unicode="&#xdb;" d="M189 251q0 59 14 130l311 1601h333l-311 -1601q-22 -113 76 -113q99 0 121 113l311 1601h333l-311 -1601q-84 -432 -516 -433q-361 0 -361 303zM467 2019l353 292h288l242 -292h-316l-110 87l-143 -87h-314z" />
<glyph unicode="&#xdc;" d="M180 251q0 59 14 130l311 1601h333l-311 -1601q-22 -113 76 -113q99 0 121 113l311 1601h333l-311 -1601q-84 -432 -516 -433q-361 0 -361 303zM554 2019l55 282h292l-55 -282h-292zM950 2019l55 282h293l-55 -282h-293z" />
<glyph unicode="&#xdd;" horiz-adv-x="1106" d="M415 -20l164 842l-4 22l-130 1138h352l23 -773l323 773h352l-572 -1138l-11 -21l-164 -843h-333zM712 2018l375 293h258l-20 -105l-327 -188h-286z" />
<glyph unicode="&#xde;" horiz-adv-x="1068" d="M63 -347l453 2329h333l-64 -327h67q7 0 19 -1h18q332 0 332 -295q0 -62 -15 -137l-57 -295q-62 -317 -366 -411q-75 -22 -204 -22h-20l-163 -841h-333zM621 813h39q53 0 73 7q67 25 83 107l57 295q22 114 -76 114h-74z" />
<glyph unicode="&#xdf;" horiz-adv-x="1103" d="M126 -20l305 1570q84 432 515 432q362 0 362 -303q0 -59 -14 -129l-57 -296q-40 -204 -188 -273q121 -68 82 -273l-99 -508q-84 -431 -485 -431l-54 -2l62 320q122 0 144 113l99 508q15 82 -43 107q-16 7 -69 7h-63l-164 -842h-333zM685 1141h63q53 0 72 7q68 24 84 106 l57 296q22 112 -76 113h-2q-97 0 -119 -113z" />
<glyph unicode="&#xe0;" horiz-adv-x="1091" d="M56 -20l217 629l423 1133h432l-17 -1130l-28 -632h-336l16 366h-245l-127 -366h-335zM601 1973l20 105h258l261 -293h-286zM615 628h160l24 533z" />
<glyph unicode="&#xe1;" horiz-adv-x="1091" d="M56 -20l217 629l423 1133h432l-17 -1130l-28 -632h-336l16 366h-245l-127 -366h-335zM615 628h160l24 533zM700 1785l375 293h258l-20 -105l-327 -188h-286z" />
<glyph unicode="&#xe2;" horiz-adv-x="1091" d="M56 -20l217 629l423 1133h432l-17 -1130l-28 -632h-336l16 366h-245l-127 -366h-335zM480 1786l353 292h288l242 -292h-316l-110 87l-143 -87h-314zM615 628h160l24 533z" />
<glyph unicode="&#xe3;" horiz-adv-x="1091" d="M56 -20l218 633l424 1136h432l-18 -1133l-29 -636h-336l17 368h-245l-128 -368h-335zM556 1838l60 86q101 147 226 154h8q75 0 174 -70q39 -28 64 -28q13 0 23 12l72 89l148 -112l-66 -82q-92 -112 -202 -118h-8q-75 0 -173 70q-53 38 -58 39h-2q-11 0 -107 -119z M616 634h160l23 531z" />
<glyph unicode="&#xe4;" horiz-adv-x="1091" d="M56 -20l217 629l423 1133h432l-17 -1130l-28 -632h-336l16 366h-245l-127 -366h-335zM576 1786l55 282h292l-55 -282h-292zM615 628h160l24 533zM972 1786l55 282h293l-55 -282h-293z" />
<glyph unicode="&#xe5;" horiz-adv-x="1147" d="M56 -20l218 633l424 1136h9q-13 23 5 112q42 218 265 218q189 0 189 -155q0 -29 -7 -63q-18 -89 -39 -112h10l-18 -1133l-29 -636h-336l17 368h-245l-128 -368h-335zM616 634h160l23 531zM880 1861q-12 -61 43 -61q56 0 68 61q11 60 -45 60q-55 0 -66 -60z" />
<glyph unicode="&#xe6;" horiz-adv-x="1621" d="M56 -20l218 633l424 1136h981l-56 -286h-451l-88 -455h388l-56 -286h-388l-88 -456h451l-56 -286h-784l72 368h-104l-128 -368h-335zM616 634h62l126 650z" />
<glyph unicode="&#xe7;" horiz-adv-x="1093" d="M174 226q0 50 12 110l205 1057q75 384 506 384q368 0 368 -279q0 -48 -11 -105l-49 -252h-333l49 252q19 97 -79 98q-99 0 -118 -98l-205 -1057q-19 -97 79 -97q99 0 118 97l49 253h333l-49 -253q-74 -380 -482 -383l-45 -43q46 28 87 26q91 -14 71 -116l-9 -47 q-28 -143 -190 -143q-163 1 -141 115l9 49l130 -1q-11 -52 33 -52q40 0 50.5 56.5t-11 57t-39.5 -29.5l-154 27l49 113q-233 36 -233 261z" />
<glyph unicode="&#xe8;" horiz-adv-x="924" d="M126 -20l342 1762h784l-54 -281h-451l-89 -459h388l-55 -282h-388l-89 -459h451l-55 -281h-784zM549 1973l20 105h258l261 -293h-286z" />
<glyph unicode="&#xe9;" horiz-adv-x="924" d="M126 -20l342 1762h784l-54 -281h-451l-89 -459h388l-55 -282h-388l-89 -459h451l-55 -281h-784zM649 1785l375 293h258l-20 -105l-327 -188h-286z" />
<glyph unicode="&#xea;" horiz-adv-x="924" d="M153 -20l342 1762h784l-54 -281h-451l-89 -459h388l-55 -282h-388l-89 -459h451l-55 -281h-784zM455 1786l353 292h288l242 -292h-316l-110 87l-143 -87h-314z" />
<glyph unicode="&#xeb;" horiz-adv-x="924" d="M126 -20l342 1762h784l-54 -281h-451l-89 -459h388l-55 -282h-388l-89 -459h451l-55 -281h-784zM525 1786l55 282h292l-55 -282h-292zM921 1786l55 282h293l-55 -282h-293z" />
<glyph unicode="&#xec;" horiz-adv-x="514" d="M131 -20l344 1769h333l-344 -1769h-333zM329 1973l20 105h258l261 -293h-286z" />
<glyph unicode="&#xed;" horiz-adv-x="514" d="M161 -20l344 1769h333l-344 -1769h-333zM458 1785l375 293h258l-20 -105l-327 -188h-286z" />
<glyph unicode="&#xee;" horiz-adv-x="514" d="M159 -20l344 1769h333l-344 -1769h-333zM235 1786l353 292h288l242 -292h-316l-110 87l-143 -87h-314z" />
<glyph unicode="&#xef;" horiz-adv-x="514" d="M131 -20l344 1769h333l-344 -1769h-333zM304 1786l55 282h292l-55 -282h-292zM700 1786l55 282h293l-55 -282h-293z" />
<glyph unicode="&#xf0;" horiz-adv-x="1103" d="M186 283q0 60 14 130l71 365q80 412 456 412q115 0 148 -31q38 195 -15 317l-247 -179l-129 198l227 164q-32 23 -152 73l131 259q220 -68 298 -133l200 145l128 -198l-175 -126q125 -223 46 -627l-124 -639q-84 -433 -515 -433q-362 0 -362 303zM533 413 q-22 -113 77 -113q98 0 120 113l71 365q21 110 -54 113q-14 1 -26 1q-47 0 -65 -8q-34 -13 -52 -106z" />
<glyph unicode="&#xf1;" horiz-adv-x="1073" d="M126 -20l344 1769h328l61 -834l161 830l313 4l-344 -1769h-328l-57 802l-156 -802h-322zM544 1838l60 86q101 147 226 154h8q75 0 174 -70q39 -28 64 -28q13 0 23 12l72 89l148 -112l-66 -82q-92 -112 -202 -118h-8q-75 0 -173 70q-53 38 -58 39h-2q-11 0 -40 -41 l-68 -84z" />
<glyph unicode="&#xf2;" d="M173 226q0 47 11 103l205 1056q74 380 505 380q369 0 369 -277q0 -47 -11 -103l-205 -1056q-74 -380 -506 -381q-368 0 -368 278zM517 329q-19 -99 79 -99q99 0 118 99l205 1056q20 99 -78 100h-2q-97 0 -117 -100zM580 1973l20 105h258l261 -293h-286z" />
<glyph unicode="&#xf3;" d="M173 226q0 47 11 103l205 1056q74 380 505 380q369 0 369 -277q0 -47 -11 -103l-205 -1056q-74 -380 -506 -381q-368 0 -368 278zM517 329q-19 -99 79 -99q99 0 118 99l205 1056q20 99 -78 100h-2q-97 0 -117 -100zM678 1785l375 293h258l-20 -105l-327 -188h-286z" />
<glyph unicode="&#xf4;" d="M182 226q0 47 11 103l205 1056q74 380 505 380q369 0 369 -277q0 -47 -11 -103l-205 -1056q-74 -380 -506 -381q-368 0 -368 278zM467 1786l353 292h288l242 -292h-316l-110 87l-143 -87h-314zM526 329q-19 -99 79 -99q99 0 118 99l205 1056q20 99 -78 100h-2 q-97 0 -117 -100z" />
<glyph unicode="&#xf5;" d="M174 232q0 48 11 104l206 1057q75 384 506 384q368 0 368 -279q0 -48 -11 -105l-206 -1057q-74 -383 -506 -383q-368 0 -368 279zM518 336q-18 -97 80 -97q99 0 117 97l206 1057q19 97 -79 98q-99 0 -118 -98zM534 1838l60 86q102 147 226 154h8q75 0 174 -70 q39 -28 64 -28q13 0 23 12l73 89l147 -112l-66 -82q-92 -112 -202 -118h-8q-75 0 -172 70q-54 38 -59 39h-2q-11 0 -125 -118z" />
<glyph unicode="&#xf6;" d="M173 226q0 47 11 103l205 1056q74 380 505 380q369 0 369 -277q0 -47 -11 -103l-205 -1056q-74 -380 -506 -381q-368 0 -368 278zM517 329q-19 -99 79 -99q99 0 118 99l205 1056q20 99 -78 100h-2q-97 0 -117 -100zM554 1786l55 282h292l-55 -282h-292zM950 1786l55 282 h293l-55 -282h-293z" />
<glyph unicode="&#xf7;" horiz-adv-x="1045" d="M284 846l53 274h855l-53 -274h-855zM356 299l71 365h374l-71 -365h-374zM551 1304l71 364h374l-71 -364h-374z" />
<glyph unicode="&#xf8;" horiz-adv-x="1115" d="M54 -336l192 384q-93 89 -54 288l205 1057q75 384 506 384q134 0 193 -27l112 223l187 -12l-159 -319q56 -87 24 -249l-205 -1057q-75 -383 -507 -383q-100 0 -149 14l-158 -315zM541 253q13 -14 63 -14q99 0 118 97l88 453zM611 778l320 640q4 72 -83 73q-99 0 -118 -98 z" />
<glyph unicode="&#xf9;" d="M173 226q0 47 11 103l274 1409h333l-274 -1409q-19 -99 79 -99q99 0 118 99l274 1409h333l-274 -1409q-74 -380 -506 -381q-368 0 -368 278zM580 1973l20 105h258l261 -293h-286z" />
<glyph unicode="&#xfa;" d="M173 226q0 47 11 103l274 1409h333l-274 -1409q-19 -99 79 -99q99 0 118 99l274 1409h333l-274 -1409q-74 -380 -506 -381q-368 0 -368 278zM678 1785l375 293h258l-20 -105l-327 -188h-286z" />
<glyph unicode="&#xfb;" d="M182 226q0 47 11 103l274 1409h333l-274 -1409q-19 -99 79 -99q99 0 118 99l274 1409h333l-274 -1409q-74 -380 -506 -381q-368 0 -368 278zM467 1786l353 292h288l242 -292h-316l-110 87l-143 -87h-314z" />
<glyph unicode="&#xfc;" d="M173 226q0 47 11 103l274 1409h333l-274 -1409q-19 -99 79 -99q99 0 118 99l274 1409h333l-274 -1409q-74 -380 -506 -381q-368 0 -368 278zM554 1786l55 282h292l-55 -282h-292zM950 1786l55 282h293l-55 -282h-293z" />
<glyph unicode="&#xfd;" horiz-adv-x="1106" d="M399 1742h352l41 -680l305 680h352l-546 -1002l-10 -18l-144 -742h-333l144 741l-5 19zM713 1785l375 293h258l-20 -105l-327 -188h-286z" />
<glyph unicode="&#xfe;" horiz-adv-x="1060" d="M63 -347l453 2329h333l-64 -327h67q7 0 19 -1h18q332 0 332 -295q0 -62 -15 -137l-57 -295q-62 -317 -366 -411q-75 -22 -204 -22h-20l-163 -841h-333zM621 813h39q53 0 73 7q67 25 83 107l57 295q22 114 -76 114h-74z" />
<glyph unicode="&#xff;" horiz-adv-x="1106" d="M399 1742h352l41 -680l305 680h352l-546 -1002l-10 -18l-144 -742h-333l144 741l-5 19zM590 1786l55 282h292l-55 -282h-292zM986 1786l55 282h293l-55 -282h-293z" />
<glyph unicode="&#x2c6;" horiz-adv-x="1214" d="M513 1786l353 292h288l242 -292h-316l-110 87l-143 -87h-314z" />
<glyph unicode="&#x2dc;" horiz-adv-x="1008" d="M487 1838l60 86q101 147 226 154h8q75 0 174 -70q39 -28 64 -28q13 0 23 12l72 89l147 -112l-65 -82q-92 -112 -202 -118h-8q-75 0 -173 70q-53 38 -58 39h-2q-11 0 -40 -41l-64 -94z" />
<glyph unicode="&#x2000;" horiz-adv-x="1157" />
<glyph unicode="&#x2001;" horiz-adv-x="2314" />
<glyph unicode="&#x2002;" horiz-adv-x="1157" />
<glyph unicode="&#x2003;" horiz-adv-x="2314" />
<glyph unicode="&#x2004;" horiz-adv-x="771" />
<glyph unicode="&#x2005;" horiz-adv-x="578" />
<glyph unicode="&#x2006;" horiz-adv-x="385" />
<glyph unicode="&#x2007;" horiz-adv-x="385" />
<glyph unicode="&#x2008;" horiz-adv-x="289" />
<glyph unicode="&#x2009;" horiz-adv-x="462" />
<glyph unicode="&#x200a;" horiz-adv-x="128" />
<glyph unicode="&#x2010;" horiz-adv-x="836" d="M210 821l53 273h736l-53 -273h-736z" />
<glyph unicode="&#x2011;" horiz-adv-x="836" d="M210 821l53 273h736l-53 -273h-736z" />
<glyph unicode="&#x2012;" horiz-adv-x="836" d="M210 821l53 273h736l-53 -273h-736z" />
<glyph unicode="&#x2013;" horiz-adv-x="1222" d="M210 821l53 273h1110l-53 -273h-1110z" />
<glyph unicode="&#x2014;" horiz-adv-x="2098" d="M210 821l53 273h2013l-53 -273h-2013z" />
<glyph unicode="&#x2018;" horiz-adv-x="607" d="M381 1291l60 310l187 382h233l-122 -327h113l-71 -365h-400z" />
<glyph unicode="&#x2019;" horiz-adv-x="660" d="M436 1291l122 327h-113l71 365h400l-61 -310l-186 -382h-233z" />
<glyph unicode="&#x201a;" horiz-adv-x="607" d="M109 -347l122 327h-114l71 365h401l-61 -309l-187 -383h-232z" />
<glyph unicode="&#x201c;" horiz-adv-x="1047" d="M381 1291l60 310l187 382h233l-122 -327h113l-71 -365h-400zM871 1291l60 310l187 382h233l-122 -327h113l-71 -365h-400z" />
<glyph unicode="&#x201d;" horiz-adv-x="1100" d="M436 1291l122 327h-113l71 365h400l-61 -310l-186 -382h-233zM926 1291l122 327h-113l71 365h400l-61 -310l-186 -382h-233z" />
<glyph unicode="&#x201e;" horiz-adv-x="1100" d="M436 -346l122 327h-113l71 365h400l-61 -310l-186 -382h-233zM926 -346l122 327h-113l71 365h400l-61 -310l-186 -382h-233z" />
<glyph unicode="&#x2022;" horiz-adv-x="1037" d="M314 905q0 38 8 78q30 158 165 271t297 113q163 0 254 -113q68 -85 68 -195q0 -37 -7 -76q-31 -157 -165 -269q-136 -114 -299 -114q-162 0 -254 114q-67 83 -67 191z" />
<glyph unicode="&#x2026;" horiz-adv-x="2048" d="M116 -20l71 365h375l-71 -365h-375zM799 -20l71 365h375l-71 -365h-375zM1482 -20l71 365h375l-71 -365h-375z" />
<glyph unicode="&#x202f;" horiz-adv-x="462" />
<glyph unicode="&#x2039;" horiz-adv-x="874" d="M325 1002l723 560l-76 -391l-251 -182l181 -176l-74 -382z" />
<glyph unicode="&#x203a;" horiz-adv-x="874" d="M214 431l74 382l249 176l-179 182l76 391l505 -560z" />
<glyph unicode="&#x205f;" horiz-adv-x="578" />
<glyph unicode="&#x20ac;" horiz-adv-x="1144" d="M170 723l39 198h141l23 120h-141l39 198h141l66 342q84 433 515 433q362 0 362 -303q0 -60 -14 -130l-55 -283h-333l55 283q22 113 -76 113h-2q-97 0 -119 -113l-66 -342h382l-39 -198h-382l-23 -120h382l-39 -198h-382l-66 -342q-22 -113 76 -113q99 0 121 113l55 284 h333l-55 -284q-84 -432 -516 -432q-361 0 -361 303q0 59 14 129l66 342h-141z" />
<glyph unicode="&#x2122;" horiz-adv-x="1158" d="M359 924l131 673h-119l29 152h416l-29 -152h-119l-131 -673h-178zM659 925l161 825h172l39 -466l219 466h173l-161 -825h-172l50 256l-113 -256h-128l-16 262l-51 -262h-173z" />
<glyph unicode="&#x25fc;" horiz-adv-x="1740" d="M0 0v1740h1740v-1740h-1740z" />
</font>
</defs>
</svg>
