<?xml version="1.0" encoding="utf-8"?>
<!-- Generator: Adobe Illustrator 27.0.0, SVG Export Plug-In . SVG Version: 6.00 Build 0)  -->
<svg version="1.1" id="Layer_1" xmlns="http://www.w3.org/2000/svg" xmlns:xlink="http://www.w3.org/1999/xlink" x="0px" y="0px"
	 viewBox="0 0 100 100" style="enable-background:new 0 0 100 100;" xml:space="preserve">
<style type="text/css">
	.st0{fill:#FFFFFF;}
</style>
<g>
	<path class="st0" d="M30.7,15.9C19.8,20.3,12.4,30.3,11,41.6l0,0c-1.8-6.9-1.4-13.8,0.8-19.8C8.7,24,6,27,4,30.6
		C-1.2,40-0.4,51.3,5.1,60.3c0.6-5.4,2.6-10.6,6-15.1c0.6-3,1.7-6,3.3-8.8c5.9-10.5,16.8-16.5,28-16.5c1.4,0,2.7,0.1,4.1,0.3l0,0
		C41.4,17.3,36,15.9,30.7,15.9L30.7,15.9L30.7,15.9z"/>
	<path class="st0" d="M25,34.3L25,34.3c-5.8,2.5-10.5,6.3-13.9,10.9c-3.3,4.5-5.4,9.7-6,15.1c-0.5,4.7,0.1,9.5,2.1,14
		c4.2,9.9,13.6,16.2,24.2,17.3c-3.9-3.7-6.8-8.6-8.3-14c-2-2.4-3.7-5.1-4.9-8C12.8,57.2,16,43.3,25,34.3L25,34.3L25,34.3z"/>
	<path class="st0" d="M23,60.1L23,60.1c-1.6,6.1-1.4,12.2,0.1,17.7c1.5,5.4,4.4,10.2,8.3,14c3.4,3.3,7.6,5.7,12.4,6.9
		c2.3,0.6,4.7,0.9,7,0.9c8,0,15.8-3.5,21.5-9.4c-1.4,0.2-2.9,0.3-4.4,0.3c-4,0-8-0.8-11.7-2.3c-0.4,0-0.9,0-1.3,0
		c-2.7,0-5.3-0.3-8-1C33.6,83.7,24.6,72.7,23,60.1L23,60.1L23,60.1z"/>
	<path class="st0" d="M95.9,56.7c-2.6,4.7-6.6,8.7-11.4,11.5c-1.8,2.5-4,4.8-6.5,6.8c-5.8,4.5-12.7,6.7-19.6,6.7
		c-5.7,0-11.3-1.5-16.3-4.4l0,0c3.8,4.9,8.7,8.5,14,10.7c3.8,1.5,7.8,2.3,11.7,2.3c1.5,0,2.9-0.1,4.4-0.3c4.7-0.7,9.1-2.5,13-5.6
		C93.8,77.9,97.4,67.2,95.9,56.7L95.9,56.7L95.9,56.7z"/>
	<path class="st0" d="M84.1,17.6c2.1,5,2.9,10.6,2.1,16.1c0.9,3,1.4,6.1,1.4,9.3c0,13.5-8.3,25.1-20.2,29.8l0,0
		c6.2,0,12.1-1.7,17-4.6c4.8-2.8,8.8-6.8,11.4-11.5c2.3-4.1,3.6-8.8,3.6-13.7C99.5,32.2,93.3,22.8,84.1,17.6L84.1,17.6L84.1,17.6z"
		/>
	<path class="st0" d="M58.1,0.5C54,0.5,49.8,1.3,45.9,3c5.2,1.4,10.1,4.2,14,8.2c2.9,1.1,5.7,2.6,8.2,4.6C78.8,24,82.9,37.7,79.4,50
		l0,0c3.8-5,6.1-10.6,6.8-16.3c0.7-5.6,0-11.1-2.1-16.1c-1.8-4.3-4.7-8.2-8.7-11.2C70.3,2.4,64.2,0.5,58.1,0.5L58.1,0.5L58.1,0.5z"
		/>
	<path class="st0" d="M38.8,2.1c-2.3,0-4.7,0.3-7,0.9c-9.5,2.5-16.7,9.7-19.9,18.7c-2.2,6.1-2.6,13-0.8,19.8l0,0
		c1.4-11.3,8.8-21.3,19.6-25.7c1.3-0.5,2.6-1,4-1.3c2.7-0.7,5.4-1,8.1-1c10.2,0,19.8,4.9,25.8,13.1l0,0c-1.6-6.1-4.7-11.3-8.7-15.3
		c-3.9-4-8.8-6.8-14-8.2C43.6,2.4,41.2,2.1,38.8,2.1L38.8,2.1L38.8,2.1z"/>
</g>
</svg>
